STARTFONT 2.1
FONT -TakWolf-Ark Pixel 10px Monospaced ko-Regular-R-Normal-Sans Serif-10-100-75-75-M-92-ISO10646-1
SIZE 10 75 75
FONTBOUNDINGBOX 10 10 0 -1
STARTPROPERTIES 22
FOUNDRY "TakWolf"
FAMILY_NAME "Ark Pixel 10px Monospaced ko"
WEIGHT_NAME "Regular"
SLANT "R"
SETWIDTH_NAME "Normal"
ADD_STYLE_NAME "Sans Serif"
PIXEL_SIZE 10
POINT_SIZE 100
RESOLUTION_X 75
RESOLUTION_Y 75
SPACING "M"
AVERAGE_WIDTH 92
CHARSET_REGISTRY "ISO10646"
CHARSET_ENCODING "1"
DEFAULT_CHAR -1
FONT_ASCENT 9
FONT_DESCENT -1
X_HEIGHT 5
CAP_HEIGHT 7
FONT_VERSION "2023.08.24"
COPYRIGHT "Copyright (c) 2021, TakWolf (https://takwolf.com), with Reserved Font Name 'Ark Pixel'."
LICENSE "This Font Software is licensed under the SIL Open Font License, Version 1.1."
ENDPROPERTIES
CHARS 2569
STARTCHAR .notdef
ENCODING -1
SWIDTH 960 0
DWIDTH 10 0
BBX 10 10 0 -1
BITMAP
FFC0
8040
8040
8040
8040
8040
8040
8040
8040
FFC0
ENDCHAR
STARTCHAR uni0020
ENCODING 32
SWIDTH 480 0
DWIDTH 5 0
BBX 0 0 5 -1
BITMAP
ENDCHAR
STARTCHAR uni0021
ENCODING 33
SWIDTH 480 0
DWIDTH 5 0
BBX 1 7 2 0
BITMAP
80
80
80
80
80
00
80
ENDCHAR
STARTCHAR uni0022
ENCODING 34
SWIDTH 480 0
DWIDTH 5 0
BBX 3 2 1 5
BITMAP
A0
A0
ENDCHAR
STARTCHAR uni0023
ENCODING 35
SWIDTH 480 0
DWIDTH 5 0
BBX 4 7 0 0
BITMAP
50
F0
50
90
A0
F0
A0
ENDCHAR
STARTCHAR uni0024
ENCODING 36
SWIDTH 480 0
DWIDTH 5 0
BBX 4 9 0 -1
BITMAP
20
70
A0
A0
60
30
30
E0
20
ENDCHAR
STARTCHAR uni0025
ENCODING 37
SWIDTH 480 0
DWIDTH 5 0
BBX 4 7 0 0
BITMAP
90
10
20
20
40
80
90
ENDCHAR
STARTCHAR uni0026
ENCODING 38
SWIDTH 480 0
DWIDTH 5 0
BBX 4 7 0 0
BITMAP
40
A0
A0
40
B0
A0
50
ENDCHAR
STARTCHAR uni0027
ENCODING 39
SWIDTH 480 0
DWIDTH 5 0
BBX 1 2 2 5
BITMAP
80
80
ENDCHAR
STARTCHAR uni0028
ENCODING 40
SWIDTH 480 0
DWIDTH 5 0
BBX 3 9 1 -1
BITMAP
20
40
40
80
80
80
40
40
20
ENDCHAR
STARTCHAR uni0029
ENCODING 41
SWIDTH 480 0
DWIDTH 5 0
BBX 3 9 0 -1
BITMAP
80
40
40
20
20
20
40
40
80
ENDCHAR
STARTCHAR uni002A
ENCODING 42
SWIDTH 480 0
DWIDTH 5 0
BBX 3 5 1 1
BITMAP
A0
40
E0
40
A0
ENDCHAR
STARTCHAR uni002B
ENCODING 43
SWIDTH 480 0
DWIDTH 5 0
BBX 4 5 0 1
BITMAP
20
20
F0
20
20
ENDCHAR
STARTCHAR uni002C
ENCODING 44
SWIDTH 480 0
DWIDTH 5 0
BBX 2 2 1 -1
BITMAP
40
80
ENDCHAR
STARTCHAR uni002D
ENCODING 45
SWIDTH 480 0
DWIDTH 5 0
BBX 4 1 0 3
BITMAP
F0
ENDCHAR
STARTCHAR uni002E
ENCODING 46
SWIDTH 480 0
DWIDTH 5 0
BBX 1 1 2 0
BITMAP
80
ENDCHAR
STARTCHAR uni002F
ENCODING 47
SWIDTH 480 0
DWIDTH 5 0
BBX 4 9 0 -1
BITMAP
10
10
20
20
40
40
40
80
80
ENDCHAR
STARTCHAR uni0030
ENCODING 48
SWIDTH 480 0
DWIDTH 5 0
BBX 4 7 0 0
BITMAP
60
90
B0
D0
90
90
60
ENDCHAR
STARTCHAR uni0031
ENCODING 49
SWIDTH 480 0
DWIDTH 5 0
BBX 3 7 1 0
BITMAP
40
C0
40
40
40
40
E0
ENDCHAR
STARTCHAR uni0032
ENCODING 50
SWIDTH 480 0
DWIDTH 5 0
BBX 4 7 0 0
BITMAP
60
90
10
20
40
80
F0
ENDCHAR
STARTCHAR uni0033
ENCODING 51
SWIDTH 480 0
DWIDTH 5 0
BBX 4 7 0 0
BITMAP
60
90
10
20
10
90
60
ENDCHAR
STARTCHAR uni0034
ENCODING 52
SWIDTH 480 0
DWIDTH 5 0
BBX 4 7 0 0
BITMAP
30
50
50
90
90
F0
10
ENDCHAR
STARTCHAR uni0035
ENCODING 53
SWIDTH 480 0
DWIDTH 5 0
BBX 4 7 0 0
BITMAP
F0
80
80
E0
10
10
E0
ENDCHAR
STARTCHAR uni0036
ENCODING 54
SWIDTH 480 0
DWIDTH 5 0
BBX 4 7 0 0
BITMAP
60
90
80
E0
90
90
60
ENDCHAR
STARTCHAR uni0037
ENCODING 55
SWIDTH 480 0
DWIDTH 5 0
BBX 4 7 0 0
BITMAP
F0
10
10
20
20
20
20
ENDCHAR
STARTCHAR uni0038
ENCODING 56
SWIDTH 480 0
DWIDTH 5 0
BBX 4 7 0 0
BITMAP
60
90
90
60
90
90
60
ENDCHAR
STARTCHAR uni0039
ENCODING 57
SWIDTH 480 0
DWIDTH 5 0
BBX 4 7 0 0
BITMAP
60
90
90
70
10
90
60
ENDCHAR
STARTCHAR uni003A
ENCODING 58
SWIDTH 480 0
DWIDTH 5 0
BBX 1 5 2 0
BITMAP
80
00
00
00
80
ENDCHAR
STARTCHAR uni003B
ENCODING 59
SWIDTH 480 0
DWIDTH 5 0
BBX 2 6 1 -1
BITMAP
40
00
00
00
40
80
ENDCHAR
STARTCHAR uni003C
ENCODING 60
SWIDTH 480 0
DWIDTH 5 0
BBX 3 5 1 1
BITMAP
20
40
80
40
20
ENDCHAR
STARTCHAR uni003D
ENCODING 61
SWIDTH 480 0
DWIDTH 5 0
BBX 4 3 0 2
BITMAP
F0
00
F0
ENDCHAR
STARTCHAR uni003E
ENCODING 62
SWIDTH 480 0
DWIDTH 5 0
BBX 3 5 1 1
BITMAP
80
40
20
40
80
ENDCHAR
STARTCHAR uni003F
ENCODING 63
SWIDTH 480 0
DWIDTH 5 0
BBX 4 7 0 0
BITMAP
60
90
10
20
20
00
20
ENDCHAR
STARTCHAR uni0040
ENCODING 64
SWIDTH 480 0
DWIDTH 5 0
BBX 4 7 0 0
BITMAP
60
90
B0
B0
B0
80
60
ENDCHAR
STARTCHAR uni0041
ENCODING 65
SWIDTH 480 0
DWIDTH 5 0
BBX 4 7 0 0
BITMAP
60
90
90
90
F0
90
90
ENDCHAR
STARTCHAR uni0042
ENCODING 66
SWIDTH 480 0
DWIDTH 5 0
BBX 4 7 0 0
BITMAP
E0
90
90
E0
90
90
E0
ENDCHAR
STARTCHAR uni0043
ENCODING 67
SWIDTH 480 0
DWIDTH 5 0
BBX 4 7 0 0
BITMAP
60
90
80
80
80
90
60
ENDCHAR
STARTCHAR uni0044
ENCODING 68
SWIDTH 480 0
DWIDTH 5 0
BBX 4 7 0 0
BITMAP
E0
90
90
90
90
90
E0
ENDCHAR
STARTCHAR uni0045
ENCODING 69
SWIDTH 480 0
DWIDTH 5 0
BBX 4 7 0 0
BITMAP
F0
80
80
E0
80
80
F0
ENDCHAR
STARTCHAR uni0046
ENCODING 70
SWIDTH 480 0
DWIDTH 5 0
BBX 4 7 0 0
BITMAP
F0
80
80
E0
80
80
80
ENDCHAR
STARTCHAR uni0047
ENCODING 71
SWIDTH 480 0
DWIDTH 5 0
BBX 4 7 0 0
BITMAP
60
90
80
80
B0
90
70
ENDCHAR
STARTCHAR uni0048
ENCODING 72
SWIDTH 480 0
DWIDTH 5 0
BBX 4 7 0 0
BITMAP
90
90
90
F0
90
90
90
ENDCHAR
STARTCHAR uni0049
ENCODING 73
SWIDTH 480 0
DWIDTH 5 0
BBX 4 7 0 0
BITMAP
F0
20
20
20
20
20
F0
ENDCHAR
STARTCHAR uni004A
ENCODING 74
SWIDTH 480 0
DWIDTH 5 0
BBX 4 7 0 0
BITMAP
10
10
10
10
90
90
60
ENDCHAR
STARTCHAR uni004B
ENCODING 75
SWIDTH 480 0
DWIDTH 5 0
BBX 4 7 0 0
BITMAP
90
90
A0
C0
A0
90
90
ENDCHAR
STARTCHAR uni004C
ENCODING 76
SWIDTH 480 0
DWIDTH 5 0
BBX 4 7 0 0
BITMAP
80
80
80
80
80
80
F0
ENDCHAR
STARTCHAR uni004D
ENCODING 77
SWIDTH 480 0
DWIDTH 5 0
BBX 4 7 0 0
BITMAP
90
F0
F0
90
90
90
90
ENDCHAR
STARTCHAR uni004E
ENCODING 78
SWIDTH 480 0
DWIDTH 5 0
BBX 4 7 0 0
BITMAP
90
D0
D0
B0
B0
90
90
ENDCHAR
STARTCHAR uni004F
ENCODING 79
SWIDTH 480 0
DWIDTH 5 0
BBX 4 7 0 0
BITMAP
60
90
90
90
90
90
60
ENDCHAR
STARTCHAR uni0050
ENCODING 80
SWIDTH 480 0
DWIDTH 5 0
BBX 4 7 0 0
BITMAP
E0
90
90
E0
80
80
80
ENDCHAR
STARTCHAR uni0051
ENCODING 81
SWIDTH 480 0
DWIDTH 5 0
BBX 4 7 0 0
BITMAP
60
90
90
90
90
A0
50
ENDCHAR
STARTCHAR uni0052
ENCODING 82
SWIDTH 480 0
DWIDTH 5 0
BBX 4 7 0 0
BITMAP
E0
90
90
E0
90
90
90
ENDCHAR
STARTCHAR uni0053
ENCODING 83
SWIDTH 480 0
DWIDTH 5 0
BBX 4 7 0 0
BITMAP
60
90
80
60
10
90
60
ENDCHAR
STARTCHAR uni0054
ENCODING 84
SWIDTH 480 0
DWIDTH 5 0
BBX 4 7 0 0
BITMAP
F0
20
20
20
20
20
20
ENDCHAR
STARTCHAR uni0055
ENCODING 85
SWIDTH 480 0
DWIDTH 5 0
BBX 4 7 0 0
BITMAP
90
90
90
90
90
90
60
ENDCHAR
STARTCHAR uni0056
ENCODING 86
SWIDTH 480 0
DWIDTH 5 0
BBX 4 7 0 0
BITMAP
90
90
90
A0
A0
A0
C0
ENDCHAR
STARTCHAR uni0057
ENCODING 87
SWIDTH 480 0
DWIDTH 5 0
BBX 4 7 0 0
BITMAP
90
90
90
90
F0
F0
90
ENDCHAR
STARTCHAR uni0058
ENCODING 88
SWIDTH 480 0
DWIDTH 5 0
BBX 4 7 0 0
BITMAP
90
90
90
60
90
90
90
ENDCHAR
STARTCHAR uni0059
ENCODING 89
SWIDTH 480 0
DWIDTH 5 0
BBX 4 7 0 0
BITMAP
90
90
50
50
20
20
20
ENDCHAR
STARTCHAR uni005A
ENCODING 90
SWIDTH 480 0
DWIDTH 5 0
BBX 4 7 0 0
BITMAP
F0
10
20
40
40
80
F0
ENDCHAR
STARTCHAR uni005B
ENCODING 91
SWIDTH 480 0
DWIDTH 5 0
BBX 3 9 1 -1
BITMAP
E0
80
80
80
80
80
80
80
E0
ENDCHAR
STARTCHAR uni005C
ENCODING 92
SWIDTH 480 0
DWIDTH 5 0
BBX 4 9 0 -1
BITMAP
80
80
40
40
20
20
20
10
10
ENDCHAR
STARTCHAR uni005D
ENCODING 93
SWIDTH 480 0
DWIDTH 5 0
BBX 3 9 0 -1
BITMAP
E0
20
20
20
20
20
20
20
E0
ENDCHAR
STARTCHAR uni005E
ENCODING 94
SWIDTH 480 0
DWIDTH 5 0
BBX 3 2 1 5
BITMAP
40
A0
ENDCHAR
STARTCHAR uni005F
ENCODING 95
SWIDTH 480 0
DWIDTH 5 0
BBX 4 1 0 -1
BITMAP
F0
ENDCHAR
STARTCHAR uni0060
ENCODING 96
SWIDTH 480 0
DWIDTH 5 0
BBX 2 2 1 5
BITMAP
80
40
ENDCHAR
STARTCHAR uni0061
ENCODING 97
SWIDTH 480 0
DWIDTH 5 0
BBX 4 5 0 0
BITMAP
60
10
70
90
70
ENDCHAR
STARTCHAR uni0062
ENCODING 98
SWIDTH 480 0
DWIDTH 5 0
BBX 4 7 0 0
BITMAP
80
80
E0
90
90
90
E0
ENDCHAR
STARTCHAR uni0063
ENCODING 99
SWIDTH 480 0
DWIDTH 5 0
BBX 4 5 0 0
BITMAP
60
90
80
90
60
ENDCHAR
STARTCHAR uni0064
ENCODING 100
SWIDTH 480 0
DWIDTH 5 0
BBX 4 7 0 0
BITMAP
10
10
70
90
90
90
70
ENDCHAR
STARTCHAR uni0065
ENCODING 101
SWIDTH 480 0
DWIDTH 5 0
BBX 4 5 0 0
BITMAP
60
90
F0
80
60
ENDCHAR
STARTCHAR uni0066
ENCODING 102
SWIDTH 480 0
DWIDTH 5 0
BBX 4 7 0 0
BITMAP
30
40
F0
40
40
40
40
ENDCHAR
STARTCHAR uni0067
ENCODING 103
SWIDTH 480 0
DWIDTH 5 0
BBX 4 6 0 -1
BITMAP
70
90
90
70
10
60
ENDCHAR
STARTCHAR uni0068
ENCODING 104
SWIDTH 480 0
DWIDTH 5 0
BBX 4 7 0 0
BITMAP
80
80
E0
90
90
90
90
ENDCHAR
STARTCHAR uni0069
ENCODING 105
SWIDTH 480 0
DWIDTH 5 0
BBX 4 7 0 0
BITMAP
20
00
E0
20
20
20
F0
ENDCHAR
STARTCHAR uni006A
ENCODING 106
SWIDTH 480 0
DWIDTH 5 0
BBX 3 8 0 -1
BITMAP
20
00
E0
20
20
20
20
C0
ENDCHAR
STARTCHAR uni006B
ENCODING 107
SWIDTH 480 0
DWIDTH 5 0
BBX 4 7 0 0
BITMAP
80
80
90
A0
C0
A0
90
ENDCHAR
STARTCHAR uni006C
ENCODING 108
SWIDTH 480 0
DWIDTH 5 0
BBX 4 7 0 0
BITMAP
C0
40
40
40
40
40
30
ENDCHAR
STARTCHAR uni006D
ENCODING 109
SWIDTH 480 0
DWIDTH 5 0
BBX 4 5 0 0
BITMAP
90
F0
F0
90
90
ENDCHAR
STARTCHAR uni006E
ENCODING 110
SWIDTH 480 0
DWIDTH 5 0
BBX 4 5 0 0
BITMAP
E0
90
90
90
90
ENDCHAR
STARTCHAR uni006F
ENCODING 111
SWIDTH 480 0
DWIDTH 5 0
BBX 4 5 0 0
BITMAP
60
90
90
90
60
ENDCHAR
STARTCHAR uni0070
ENCODING 112
SWIDTH 480 0
DWIDTH 5 0
BBX 4 6 0 -1
BITMAP
E0
90
90
E0
80
80
ENDCHAR
STARTCHAR uni0071
ENCODING 113
SWIDTH 480 0
DWIDTH 5 0
BBX 4 6 0 -1
BITMAP
70
90
90
70
10
10
ENDCHAR
STARTCHAR uni0072
ENCODING 114
SWIDTH 480 0
DWIDTH 5 0
BBX 4 5 0 0
BITMAP
B0
C0
80
80
80
ENDCHAR
STARTCHAR uni0073
ENCODING 115
SWIDTH 480 0
DWIDTH 5 0
BBX 4 5 0 0
BITMAP
70
80
60
10
E0
ENDCHAR
STARTCHAR uni0074
ENCODING 116
SWIDTH 480 0
DWIDTH 5 0
BBX 4 7 0 0
BITMAP
40
40
F0
40
40
40
30
ENDCHAR
STARTCHAR uni0075
ENCODING 117
SWIDTH 480 0
DWIDTH 5 0
BBX 4 5 0 0
BITMAP
90
90
90
90
70
ENDCHAR
STARTCHAR uni0076
ENCODING 118
SWIDTH 480 0
DWIDTH 5 0
BBX 4 5 0 0
BITMAP
90
90
A0
A0
C0
ENDCHAR
STARTCHAR uni0077
ENCODING 119
SWIDTH 480 0
DWIDTH 5 0
BBX 4 5 0 0
BITMAP
90
90
F0
F0
90
ENDCHAR
STARTCHAR uni0078
ENCODING 120
SWIDTH 480 0
DWIDTH 5 0
BBX 4 5 0 0
BITMAP
90
90
60
90
90
ENDCHAR
STARTCHAR uni0079
ENCODING 121
SWIDTH 480 0
DWIDTH 5 0
BBX 4 6 0 -1
BITMAP
90
90
50
50
20
C0
ENDCHAR
STARTCHAR uni007A
ENCODING 122
SWIDTH 480 0
DWIDTH 5 0
BBX 4 5 0 0
BITMAP
F0
20
40
80
F0
ENDCHAR
STARTCHAR uni007B
ENCODING 123
SWIDTH 480 0
DWIDTH 5 0
BBX 4 9 0 -1
BITMAP
30
40
40
40
80
40
40
40
30
ENDCHAR
STARTCHAR uni007C
ENCODING 124
SWIDTH 480 0
DWIDTH 5 0
BBX 1 9 2 -1
BITMAP
80
80
80
80
80
80
80
80
80
ENDCHAR
STARTCHAR uni007D
ENCODING 125
SWIDTH 480 0
DWIDTH 5 0
BBX 4 9 0 -1
BITMAP
C0
20
20
20
10
20
20
20
C0
ENDCHAR
STARTCHAR uni007E
ENCODING 126
SWIDTH 480 0
DWIDTH 5 0
BBX 4 2 0 3
BITMAP
50
A0
ENDCHAR
STARTCHAR uni00A1
ENCODING 161
SWIDTH 480 0
DWIDTH 5 0
BBX 1 7 2 -1
BITMAP
80
00
80
80
80
80
80
ENDCHAR
STARTCHAR uni00A2
ENCODING 162
SWIDTH 480 0
DWIDTH 5 0
BBX 4 7 0 -1
BITMAP
20
70
A0
A0
A0
70
20
ENDCHAR
STARTCHAR uni00A3
ENCODING 163
SWIDTH 480 0
DWIDTH 5 0
BBX 4 7 0 0
BITMAP
30
40
40
F0
40
80
F0
ENDCHAR
STARTCHAR uni00A4
ENCODING 164
SWIDTH 480 0
DWIDTH 5 0
BBX 4 5 0 1
BITMAP
90
60
60
60
90
ENDCHAR
STARTCHAR uni00A5
ENCODING 165
SWIDTH 480 0
DWIDTH 5 0
BBX 4 7 0 0
BITMAP
90
90
50
F0
20
F0
20
ENDCHAR
STARTCHAR uni00A6
ENCODING 166
SWIDTH 480 0
DWIDTH 5 0
BBX 1 9 2 -1
BITMAP
80
80
80
80
00
80
80
80
80
ENDCHAR
STARTCHAR uni00A7
ENCODING 167
SWIDTH 480 0
DWIDTH 5 0
BBX 4 8 0 -1
BITMAP
60
90
40
A0
50
20
90
60
ENDCHAR
STARTCHAR uni00A8
ENCODING 168
SWIDTH 480 0
DWIDTH 5 0
BBX 3 1 1 6
BITMAP
A0
ENDCHAR
STARTCHAR uni00A9
ENCODING 169
SWIDTH 960 0
DWIDTH 10 0
BBX 9 9 0 -1
BITMAP
3E00
4100
9C80
A280
A080
A280
9C80
4100
3E00
ENDCHAR
STARTCHAR uni00AA
ENCODING 170
SWIDTH 480 0
DWIDTH 5 0
BBX 4 4 0 3
BITMAP
70
90
90
70
ENDCHAR
STARTCHAR uni00AB
ENCODING 171
SWIDTH 480 0
DWIDTH 5 0
BBX 4 3 0 1
BITMAP
50
A0
50
ENDCHAR
STARTCHAR uni00AC
ENCODING 172
SWIDTH 480 0
DWIDTH 5 0
BBX 4 3 0 2
BITMAP
F0
10
10
ENDCHAR
STARTCHAR uni00AE
ENCODING 174
SWIDTH 960 0
DWIDTH 10 0
BBX 8 8 0 0
BITMAP
3C
42
B9
A5
B9
A5
42
3C
ENDCHAR
STARTCHAR uni00AF
ENCODING 175
SWIDTH 480 0
DWIDTH 5 0
BBX 4 1 0 6
BITMAP
F0
ENDCHAR
STARTCHAR uni00B0
ENCODING 176
SWIDTH 480 0
DWIDTH 5 0
BBX 3 3 1 4
BITMAP
40
A0
40
ENDCHAR
STARTCHAR uni00B1
ENCODING 177
SWIDTH 480 0
DWIDTH 5 0
BBX 4 6 0 0
BITMAP
20
20
F0
20
20
F0
ENDCHAR
STARTCHAR uni00B2
ENCODING 178
SWIDTH 480 0
DWIDTH 5 0
BBX 3 5 0 3
BITMAP
E0
20
E0
80
E0
ENDCHAR
STARTCHAR uni00B3
ENCODING 179
SWIDTH 480 0
DWIDTH 5 0
BBX 3 5 0 3
BITMAP
E0
20
E0
20
E0
ENDCHAR
STARTCHAR uni00B4
ENCODING 180
SWIDTH 480 0
DWIDTH 5 0
BBX 2 2 1 5
BITMAP
40
80
ENDCHAR
STARTCHAR uni00B5
ENCODING 181
SWIDTH 480 0
DWIDTH 5 0
BBX 4 6 0 -1
BITMAP
90
90
90
B0
D0
80
ENDCHAR
STARTCHAR uni00B6
ENCODING 182
SWIDTH 480 0
DWIDTH 5 0
BBX 4 8 0 -1
BITMAP
F0
D0
D0
D0
50
50
50
50
ENDCHAR
STARTCHAR uni00B7
ENCODING 183
SWIDTH 480 0
DWIDTH 5 0
BBX 1 1 2 3
BITMAP
80
ENDCHAR
STARTCHAR uni00B8
ENCODING 184
SWIDTH 480 0
DWIDTH 5 0
BBX 3 2 0 -1
BITMAP
20
C0
ENDCHAR
STARTCHAR uni00B9
ENCODING 185
SWIDTH 480 0
DWIDTH 5 0
BBX 3 5 0 3
BITMAP
40
C0
40
40
E0
ENDCHAR
STARTCHAR uni00BA
ENCODING 186
SWIDTH 480 0
DWIDTH 5 0
BBX 4 4 0 3
BITMAP
60
90
90
60
ENDCHAR
STARTCHAR uni00BB
ENCODING 187
SWIDTH 480 0
DWIDTH 5 0
BBX 4 3 0 1
BITMAP
A0
50
A0
ENDCHAR
STARTCHAR uni00BC
ENCODING 188
SWIDTH 960 0
DWIDTH 10 0
BBX 9 9 0 -1
BITMAP
4080
C100
4200
4400
E980
1280
2280
4380
8080
ENDCHAR
STARTCHAR uni00BD
ENCODING 189
SWIDTH 960 0
DWIDTH 10 0
BBX 9 9 0 -1
BITMAP
4080
C100
4200
4400
EB80
1080
2380
4200
8380
ENDCHAR
STARTCHAR uni00BE
ENCODING 190
SWIDTH 960 0
DWIDTH 10 0
BBX 9 9 0 -1
BITMAP
E080
2100
E200
2400
E980
1280
2280
4380
8080
ENDCHAR
STARTCHAR uni00BF
ENCODING 191
SWIDTH 480 0
DWIDTH 5 0
BBX 4 7 0 -1
BITMAP
40
00
40
40
80
90
60
ENDCHAR
STARTCHAR uni00C0
ENCODING 192
SWIDTH 480 0
DWIDTH 5 0
BBX 4 9 0 0
BITMAP
40
20
00
60
90
90
F0
90
90
ENDCHAR
STARTCHAR uni00C1
ENCODING 193
SWIDTH 480 0
DWIDTH 5 0
BBX 4 9 0 0
BITMAP
20
40
00
60
90
90
F0
90
90
ENDCHAR
STARTCHAR uni00C2
ENCODING 194
SWIDTH 480 0
DWIDTH 5 0
BBX 4 9 0 0
BITMAP
20
50
00
60
90
90
F0
90
90
ENDCHAR
STARTCHAR uni00C3
ENCODING 195
SWIDTH 480 0
DWIDTH 5 0
BBX 4 9 0 0
BITMAP
50
A0
00
60
90
90
F0
90
90
ENDCHAR
STARTCHAR uni00C4
ENCODING 196
SWIDTH 480 0
DWIDTH 5 0
BBX 4 8 0 0
BITMAP
50
00
60
90
90
F0
90
90
ENDCHAR
STARTCHAR uni00C5
ENCODING 197
SWIDTH 480 0
DWIDTH 5 0
BBX 4 9 0 0
BITMAP
20
50
20
00
60
90
F0
90
90
ENDCHAR
STARTCHAR uni00C6
ENCODING 198
SWIDTH 480 0
DWIDTH 5 0
BBX 4 7 0 0
BITMAP
70
A0
A0
B0
E0
A0
B0
ENDCHAR
STARTCHAR uni00C7
ENCODING 199
SWIDTH 480 0
DWIDTH 5 0
BBX 4 8 0 -1
BITMAP
60
90
80
80
80
90
60
C0
ENDCHAR
STARTCHAR uni00C8
ENCODING 200
SWIDTH 480 0
DWIDTH 5 0
BBX 4 9 0 0
BITMAP
40
20
00
F0
80
E0
80
80
F0
ENDCHAR
STARTCHAR uni00C9
ENCODING 201
SWIDTH 480 0
DWIDTH 5 0
BBX 4 9 0 0
BITMAP
20
40
00
F0
80
E0
80
80
F0
ENDCHAR
STARTCHAR uni00CA
ENCODING 202
SWIDTH 480 0
DWIDTH 5 0
BBX 4 9 0 0
BITMAP
20
50
00
F0
80
E0
80
80
F0
ENDCHAR
STARTCHAR uni00CB
ENCODING 203
SWIDTH 480 0
DWIDTH 5 0
BBX 4 8 0 0
BITMAP
50
00
F0
80
E0
80
80
F0
ENDCHAR
STARTCHAR uni00CC
ENCODING 204
SWIDTH 480 0
DWIDTH 5 0
BBX 4 9 0 0
BITMAP
40
20
00
F0
20
20
20
20
F0
ENDCHAR
STARTCHAR uni00CD
ENCODING 205
SWIDTH 480 0
DWIDTH 5 0
BBX 4 9 0 0
BITMAP
20
40
00
F0
20
20
20
20
F0
ENDCHAR
STARTCHAR uni00CE
ENCODING 206
SWIDTH 480 0
DWIDTH 5 0
BBX 4 9 0 0
BITMAP
20
50
00
F0
20
20
20
20
F0
ENDCHAR
STARTCHAR uni00CF
ENCODING 207
SWIDTH 480 0
DWIDTH 5 0
BBX 4 8 0 0
BITMAP
50
00
F0
20
20
20
20
F0
ENDCHAR
STARTCHAR uni00D0
ENCODING 208
SWIDTH 480 0
DWIDTH 5 0
BBX 4 7 0 0
BITMAP
60
50
50
F0
50
50
60
ENDCHAR
STARTCHAR uni00D1
ENCODING 209
SWIDTH 480 0
DWIDTH 5 0
BBX 4 9 0 0
BITMAP
50
A0
00
90
D0
D0
B0
B0
90
ENDCHAR
STARTCHAR uni00D2
ENCODING 210
SWIDTH 480 0
DWIDTH 5 0
BBX 4 9 0 0
BITMAP
40
20
00
60
90
90
90
90
60
ENDCHAR
STARTCHAR uni00D3
ENCODING 211
SWIDTH 480 0
DWIDTH 5 0
BBX 4 9 0 0
BITMAP
20
40
00
60
90
90
90
90
60
ENDCHAR
STARTCHAR uni00D4
ENCODING 212
SWIDTH 480 0
DWIDTH 5 0
BBX 4 9 0 0
BITMAP
20
50
00
60
90
90
90
90
60
ENDCHAR
STARTCHAR uni00D5
ENCODING 213
SWIDTH 480 0
DWIDTH 5 0
BBX 4 9 0 0
BITMAP
50
A0
00
60
90
90
90
90
60
ENDCHAR
STARTCHAR uni00D6
ENCODING 214
SWIDTH 480 0
DWIDTH 5 0
BBX 4 8 0 0
BITMAP
50
00
60
90
90
90
90
60
ENDCHAR
STARTCHAR uni00D7
ENCODING 215
SWIDTH 480 0
DWIDTH 5 0
BBX 4 5 0 1
BITMAP
90
50
20
50
90
ENDCHAR
STARTCHAR uni00D8
ENCODING 216
SWIDTH 480 0
DWIDTH 5 0
BBX 4 9 0 -1
BITMAP
10
60
90
B0
D0
90
90
60
80
ENDCHAR
STARTCHAR uni00D9
ENCODING 217
SWIDTH 480 0
DWIDTH 5 0
BBX 4 9 0 0
BITMAP
40
20
00
90
90
90
90
90
60
ENDCHAR
STARTCHAR uni00DA
ENCODING 218
SWIDTH 480 0
DWIDTH 5 0
BBX 4 9 0 0
BITMAP
20
40
00
90
90
90
90
90
60
ENDCHAR
STARTCHAR uni00DB
ENCODING 219
SWIDTH 480 0
DWIDTH 5 0
BBX 4 9 0 0
BITMAP
20
50
00
90
90
90
90
90
60
ENDCHAR
STARTCHAR uni00DC
ENCODING 220
SWIDTH 480 0
DWIDTH 5 0
BBX 4 8 0 0
BITMAP
50
00
90
90
90
90
90
60
ENDCHAR
STARTCHAR uni00DD
ENCODING 221
SWIDTH 480 0
DWIDTH 5 0
BBX 4 9 0 0
BITMAP
10
20
00
90
50
50
20
20
20
ENDCHAR
STARTCHAR uni00DE
ENCODING 222
SWIDTH 480 0
DWIDTH 5 0
BBX 4 7 0 0
BITMAP
80
E0
90
90
90
E0
80
ENDCHAR
STARTCHAR uni00DF
ENCODING 223
SWIDTH 480 0
DWIDTH 5 0
BBX 4 7 0 0
BITMAP
40
A0
A0
A0
90
90
A0
ENDCHAR
STARTCHAR uni00E0
ENCODING 224
SWIDTH 480 0
DWIDTH 5 0
BBX 4 8 0 0
BITMAP
40
20
00
60
10
70
90
70
ENDCHAR
STARTCHAR uni00E1
ENCODING 225
SWIDTH 480 0
DWIDTH 5 0
BBX 4 8 0 0
BITMAP
20
40
00
60
10
70
90
70
ENDCHAR
STARTCHAR uni00E2
ENCODING 226
SWIDTH 480 0
DWIDTH 5 0
BBX 4 8 0 0
BITMAP
20
50
00
60
10
70
90
70
ENDCHAR
STARTCHAR uni00E3
ENCODING 227
SWIDTH 480 0
DWIDTH 5 0
BBX 4 8 0 0
BITMAP
50
A0
00
60
10
70
90
70
ENDCHAR
STARTCHAR uni00E4
ENCODING 228
SWIDTH 480 0
DWIDTH 5 0
BBX 4 7 0 0
BITMAP
50
00
60
10
70
90
70
ENDCHAR
STARTCHAR uni00E5
ENCODING 229
SWIDTH 480 0
DWIDTH 5 0
BBX 4 9 0 0
BITMAP
20
50
20
00
60
10
70
90
70
ENDCHAR
STARTCHAR uni00E6
ENCODING 230
SWIDTH 480 0
DWIDTH 5 0
BBX 4 5 0 0
BITMAP
A0
50
F0
A0
70
ENDCHAR
STARTCHAR uni00E7
ENCODING 231
SWIDTH 480 0
DWIDTH 5 0
BBX 4 6 0 -1
BITMAP
60
90
80
90
60
C0
ENDCHAR
STARTCHAR uni00E8
ENCODING 232
SWIDTH 480 0
DWIDTH 5 0
BBX 4 8 0 0
BITMAP
40
20
00
60
90
F0
80
60
ENDCHAR
STARTCHAR uni00E9
ENCODING 233
SWIDTH 480 0
DWIDTH 5 0
BBX 4 8 0 0
BITMAP
20
40
00
60
90
F0
80
60
ENDCHAR
STARTCHAR uni00EA
ENCODING 234
SWIDTH 480 0
DWIDTH 5 0
BBX 4 8 0 0
BITMAP
20
50
00
60
90
F0
80
60
ENDCHAR
STARTCHAR uni00EB
ENCODING 235
SWIDTH 480 0
DWIDTH 5 0
BBX 4 7 0 0
BITMAP
50
00
60
90
F0
80
60
ENDCHAR
STARTCHAR uni00EC
ENCODING 236
SWIDTH 480 0
DWIDTH 5 0
BBX 4 8 0 0
BITMAP
40
20
00
E0
20
20
20
F0
ENDCHAR
STARTCHAR uni00ED
ENCODING 237
SWIDTH 480 0
DWIDTH 5 0
BBX 4 8 0 0
BITMAP
10
20
00
E0
20
20
20
F0
ENDCHAR
STARTCHAR uni00EE
ENCODING 238
SWIDTH 480 0
DWIDTH 5 0
BBX 4 8 0 0
BITMAP
20
50
00
E0
20
20
20
F0
ENDCHAR
STARTCHAR uni00EF
ENCODING 239
SWIDTH 480 0
DWIDTH 5 0
BBX 4 7 0 0
BITMAP
50
00
E0
20
20
20
F0
ENDCHAR
STARTCHAR uni00F0
ENCODING 240
SWIDTH 480 0
DWIDTH 5 0
BBX 4 8 0 0
BITMAP
40
30
E0
10
70
90
90
60
ENDCHAR
STARTCHAR uni00F1
ENCODING 241
SWIDTH 480 0
DWIDTH 5 0
BBX 4 8 0 0
BITMAP
50
A0
00
E0
90
90
90
90
ENDCHAR
STARTCHAR uni00F2
ENCODING 242
SWIDTH 480 0
DWIDTH 5 0
BBX 4 8 0 0
BITMAP
40
20
00
60
90
90
90
60
ENDCHAR
STARTCHAR uni00F3
ENCODING 243
SWIDTH 480 0
DWIDTH 5 0
BBX 4 8 0 0
BITMAP
20
40
00
60
90
90
90
60
ENDCHAR
STARTCHAR uni00F4
ENCODING 244
SWIDTH 480 0
DWIDTH 5 0
BBX 4 8 0 0
BITMAP
20
50
00
60
90
90
90
60
ENDCHAR
STARTCHAR uni00F5
ENCODING 245
SWIDTH 480 0
DWIDTH 5 0
BBX 4 8 0 0
BITMAP
50
A0
00
60
90
90
90
60
ENDCHAR
STARTCHAR uni00F6
ENCODING 246
SWIDTH 480 0
DWIDTH 5 0
BBX 4 7 0 0
BITMAP
50
00
60
90
90
90
60
ENDCHAR
STARTCHAR uni00F7
ENCODING 247
SWIDTH 480 0
DWIDTH 5 0
BBX 4 5 0 1
BITMAP
20
00
F0
00
20
ENDCHAR
STARTCHAR uni00F8
ENCODING 248
SWIDTH 480 0
DWIDTH 5 0
BBX 4 7 0 -1
BITMAP
10
60
90
F0
90
60
80
ENDCHAR
STARTCHAR uni00F9
ENCODING 249
SWIDTH 480 0
DWIDTH 5 0
BBX 4 8 0 0
BITMAP
40
20
00
90
90
90
90
70
ENDCHAR
STARTCHAR uni00FA
ENCODING 250
SWIDTH 480 0
DWIDTH 5 0
BBX 4 8 0 0
BITMAP
20
40
00
90
90
90
90
70
ENDCHAR
STARTCHAR uni00FB
ENCODING 251
SWIDTH 480 0
DWIDTH 5 0
BBX 4 8 0 0
BITMAP
20
50
00
90
90
90
90
70
ENDCHAR
STARTCHAR uni00FC
ENCODING 252
SWIDTH 480 0
DWIDTH 5 0
BBX 4 7 0 0
BITMAP
50
00
90
90
90
90
70
ENDCHAR
STARTCHAR uni00FD
ENCODING 253
SWIDTH 480 0
DWIDTH 5 0
BBX 4 9 0 -1
BITMAP
20
40
00
90
90
50
50
20
C0
ENDCHAR
STARTCHAR uni00FE
ENCODING 254
SWIDTH 480 0
DWIDTH 5 0
BBX 4 8 0 -1
BITMAP
80
80
E0
90
90
E0
80
80
ENDCHAR
STARTCHAR uni00FF
ENCODING 255
SWIDTH 480 0
DWIDTH 5 0
BBX 4 8 0 -1
BITMAP
50
00
90
90
50
50
20
C0
ENDCHAR
STARTCHAR uni0100
ENCODING 256
SWIDTH 480 0
DWIDTH 5 0
BBX 4 8 0 0
BITMAP
60
00
60
90
90
F0
90
90
ENDCHAR
STARTCHAR uni0101
ENCODING 257
SWIDTH 480 0
DWIDTH 5 0
BBX 4 7 0 0
BITMAP
60
00
60
10
70
90
70
ENDCHAR
STARTCHAR uni0102
ENCODING 258
SWIDTH 480 0
DWIDTH 5 0
BBX 4 9 0 0
BITMAP
90
60
00
60
90
90
F0
90
90
ENDCHAR
STARTCHAR uni0103
ENCODING 259
SWIDTH 480 0
DWIDTH 5 0
BBX 4 8 0 0
BITMAP
90
60
00
60
10
70
90
70
ENDCHAR
STARTCHAR uni0106
ENCODING 262
SWIDTH 480 0
DWIDTH 5 0
BBX 4 9 0 0
BITMAP
20
40
00
60
90
80
80
90
60
ENDCHAR
STARTCHAR uni0107
ENCODING 263
SWIDTH 480 0
DWIDTH 5 0
BBX 4 8 0 0
BITMAP
20
40
00
60
90
80
90
60
ENDCHAR
STARTCHAR uni0108
ENCODING 264
SWIDTH 480 0
DWIDTH 5 0
BBX 4 9 0 0
BITMAP
20
50
00
60
90
80
80
90
60
ENDCHAR
STARTCHAR uni0109
ENCODING 265
SWIDTH 480 0
DWIDTH 5 0
BBX 4 8 0 0
BITMAP
20
50
00
60
90
80
90
60
ENDCHAR
STARTCHAR uni010A
ENCODING 266
SWIDTH 480 0
DWIDTH 5 0
BBX 4 8 0 0
BITMAP
20
00
60
90
80
80
90
60
ENDCHAR
STARTCHAR uni010B
ENCODING 267
SWIDTH 480 0
DWIDTH 5 0
BBX 4 7 0 0
BITMAP
20
00
60
90
80
90
60
ENDCHAR
STARTCHAR uni010C
ENCODING 268
SWIDTH 480 0
DWIDTH 5 0
BBX 4 9 0 0
BITMAP
50
20
00
60
90
80
80
90
60
ENDCHAR
STARTCHAR uni010D
ENCODING 269
SWIDTH 480 0
DWIDTH 5 0
BBX 4 8 0 0
BITMAP
50
20
00
60
90
80
90
60
ENDCHAR
STARTCHAR uni0110
ENCODING 272
SWIDTH 480 0
DWIDTH 5 0
BBX 4 7 0 0
BITMAP
60
50
50
F0
50
50
60
ENDCHAR
STARTCHAR uni0111
ENCODING 273
SWIDTH 480 0
DWIDTH 5 0
BBX 4 7 0 0
BITMAP
20
70
20
60
A0
A0
60
ENDCHAR
STARTCHAR uni0112
ENCODING 274
SWIDTH 480 0
DWIDTH 5 0
BBX 4 8 0 0
BITMAP
60
00
F0
80
E0
80
80
F0
ENDCHAR
STARTCHAR uni0113
ENCODING 275
SWIDTH 480 0
DWIDTH 5 0
BBX 4 7 0 0
BITMAP
60
00
60
90
F0
80
60
ENDCHAR
STARTCHAR uni0114
ENCODING 276
SWIDTH 480 0
DWIDTH 5 0
BBX 4 9 0 0
BITMAP
90
60
00
F0
80
E0
80
80
F0
ENDCHAR
STARTCHAR uni0115
ENCODING 277
SWIDTH 480 0
DWIDTH 5 0
BBX 4 8 0 0
BITMAP
90
60
00
60
90
F0
80
60
ENDCHAR
STARTCHAR uni0116
ENCODING 278
SWIDTH 480 0
DWIDTH 5 0
BBX 4 8 0 0
BITMAP
20
00
F0
80
E0
80
80
F0
ENDCHAR
STARTCHAR uni0117
ENCODING 279
SWIDTH 480 0
DWIDTH 5 0
BBX 4 7 0 0
BITMAP
20
00
60
90
F0
80
60
ENDCHAR
STARTCHAR uni011A
ENCODING 282
SWIDTH 480 0
DWIDTH 5 0
BBX 4 9 0 0
BITMAP
50
20
00
F0
80
E0
80
80
F0
ENDCHAR
STARTCHAR uni011B
ENCODING 283
SWIDTH 480 0
DWIDTH 5 0
BBX 4 8 0 0
BITMAP
50
20
00
60
90
F0
80
60
ENDCHAR
STARTCHAR uni011C
ENCODING 284
SWIDTH 480 0
DWIDTH 5 0
BBX 4 9 0 0
BITMAP
20
50
00
60
90
80
B0
90
70
ENDCHAR
STARTCHAR uni011D
ENCODING 285
SWIDTH 480 0
DWIDTH 5 0
BBX 4 9 0 -1
BITMAP
20
50
00
70
90
90
70
10
60
ENDCHAR
STARTCHAR uni011E
ENCODING 286
SWIDTH 480 0
DWIDTH 5 0
BBX 4 9 0 0
BITMAP
90
60
00
60
90
80
B0
90
70
ENDCHAR
STARTCHAR uni011F
ENCODING 287
SWIDTH 480 0
DWIDTH 5 0
BBX 4 9 0 -1
BITMAP
90
60
00
70
90
90
70
10
60
ENDCHAR
STARTCHAR uni0120
ENCODING 288
SWIDTH 480 0
DWIDTH 5 0
BBX 4 8 0 0
BITMAP
20
00
60
90
80
B0
90
70
ENDCHAR
STARTCHAR uni0121
ENCODING 289
SWIDTH 480 0
DWIDTH 5 0
BBX 4 8 0 -1
BITMAP
20
00
70
90
90
70
10
60
ENDCHAR
STARTCHAR uni0128
ENCODING 296
SWIDTH 480 0
DWIDTH 5 0
BBX 4 9 0 0
BITMAP
50
A0
00
F0
20
20
20
20
F0
ENDCHAR
STARTCHAR uni0129
ENCODING 297
SWIDTH 480 0
DWIDTH 5 0
BBX 4 8 0 0
BITMAP
50
A0
00
E0
20
20
20
F0
ENDCHAR
STARTCHAR uni012A
ENCODING 298
SWIDTH 480 0
DWIDTH 5 0
BBX 4 8 0 0
BITMAP
60
00
F0
20
20
20
20
F0
ENDCHAR
STARTCHAR uni012B
ENCODING 299
SWIDTH 480 0
DWIDTH 5 0
BBX 4 7 0 0
BITMAP
60
00
E0
20
20
20
F0
ENDCHAR
STARTCHAR uni012C
ENCODING 300
SWIDTH 480 0
DWIDTH 5 0
BBX 4 9 0 0
BITMAP
90
60
00
F0
20
20
20
20
F0
ENDCHAR
STARTCHAR uni012D
ENCODING 301
SWIDTH 480 0
DWIDTH 5 0
BBX 4 8 0 0
BITMAP
90
60
00
E0
20
20
20
F0
ENDCHAR
STARTCHAR uni0143
ENCODING 323
SWIDTH 480 0
DWIDTH 5 0
BBX 4 9 0 0
BITMAP
20
40
00
90
D0
D0
B0
B0
90
ENDCHAR
STARTCHAR uni0144
ENCODING 324
SWIDTH 480 0
DWIDTH 5 0
BBX 4 8 0 0
BITMAP
20
40
00
E0
90
90
90
90
ENDCHAR
STARTCHAR uni0147
ENCODING 327
SWIDTH 480 0
DWIDTH 5 0
BBX 4 9 0 0
BITMAP
50
20
00
90
D0
D0
B0
B0
90
ENDCHAR
STARTCHAR uni0148
ENCODING 328
SWIDTH 480 0
DWIDTH 5 0
BBX 4 8 0 0
BITMAP
50
20
00
E0
90
90
90
90
ENDCHAR
STARTCHAR uni014C
ENCODING 332
SWIDTH 480 0
DWIDTH 5 0
BBX 4 8 0 0
BITMAP
60
00
60
90
90
90
90
60
ENDCHAR
STARTCHAR uni014D
ENCODING 333
SWIDTH 480 0
DWIDTH 5 0
BBX 4 7 0 0
BITMAP
60
00
60
90
90
90
60
ENDCHAR
STARTCHAR uni014E
ENCODING 334
SWIDTH 480 0
DWIDTH 5 0
BBX 4 9 0 0
BITMAP
90
60
00
60
90
90
90
90
60
ENDCHAR
STARTCHAR uni014F
ENCODING 335
SWIDTH 480 0
DWIDTH 5 0
BBX 4 8 0 0
BITMAP
90
60
00
60
90
90
90
60
ENDCHAR
STARTCHAR uni0154
ENCODING 340
SWIDTH 480 0
DWIDTH 5 0
BBX 4 9 0 0
BITMAP
20
40
00
E0
90
90
E0
90
90
ENDCHAR
STARTCHAR uni0155
ENCODING 341
SWIDTH 480 0
DWIDTH 5 0
BBX 4 8 0 0
BITMAP
20
40
00
B0
C0
80
80
80
ENDCHAR
STARTCHAR uni0168
ENCODING 360
SWIDTH 480 0
DWIDTH 5 0
BBX 4 9 0 0
BITMAP
50
A0
00
90
90
90
90
90
60
ENDCHAR
STARTCHAR uni0169
ENCODING 361
SWIDTH 480 0
DWIDTH 5 0
BBX 4 8 0 0
BITMAP
50
A0
00
90
90
90
90
70
ENDCHAR
STARTCHAR uni016A
ENCODING 362
SWIDTH 480 0
DWIDTH 5 0
BBX 4 8 0 0
BITMAP
60
00
90
90
90
90
90
60
ENDCHAR
STARTCHAR uni016B
ENCODING 363
SWIDTH 480 0
DWIDTH 5 0
BBX 4 7 0 0
BITMAP
60
00
90
90
90
90
70
ENDCHAR
STARTCHAR uni016C
ENCODING 364
SWIDTH 480 0
DWIDTH 5 0
BBX 4 9 0 0
BITMAP
90
60
00
90
90
90
90
90
60
ENDCHAR
STARTCHAR uni016D
ENCODING 365
SWIDTH 480 0
DWIDTH 5 0
BBX 4 8 0 0
BITMAP
90
60
00
90
90
90
90
70
ENDCHAR
STARTCHAR uni0174
ENCODING 372
SWIDTH 480 0
DWIDTH 5 0
BBX 4 9 0 0
BITMAP
20
50
00
90
90
90
F0
F0
90
ENDCHAR
STARTCHAR uni0175
ENCODING 373
SWIDTH 480 0
DWIDTH 5 0
BBX 4 8 0 0
BITMAP
20
50
00
90
90
F0
F0
90
ENDCHAR
STARTCHAR uni0176
ENCODING 374
SWIDTH 480 0
DWIDTH 5 0
BBX 4 9 0 0
BITMAP
20
50
00
90
50
50
20
20
20
ENDCHAR
STARTCHAR uni0177
ENCODING 375
SWIDTH 480 0
DWIDTH 5 0
BBX 4 9 0 -1
BITMAP
20
50
00
90
90
50
50
20
C0
ENDCHAR
STARTCHAR uni0178
ENCODING 376
SWIDTH 480 0
DWIDTH 5 0
BBX 4 8 0 0
BITMAP
50
00
90
50
50
20
20
20
ENDCHAR
STARTCHAR uni0179
ENCODING 377
SWIDTH 480 0
DWIDTH 5 0
BBX 4 9 0 0
BITMAP
20
40
00
F0
10
20
40
80
F0
ENDCHAR
STARTCHAR uni017A
ENCODING 378
SWIDTH 480 0
DWIDTH 5 0
BBX 4 8 0 0
BITMAP
20
40
00
F0
20
40
80
F0
ENDCHAR
STARTCHAR uni017B
ENCODING 379
SWIDTH 480 0
DWIDTH 5 0
BBX 4 8 0 0
BITMAP
20
00
F0
10
20
40
80
F0
ENDCHAR
STARTCHAR uni017C
ENCODING 380
SWIDTH 480 0
DWIDTH 5 0
BBX 4 7 0 0
BITMAP
20
00
F0
20
40
80
F0
ENDCHAR
STARTCHAR uni017D
ENCODING 381
SWIDTH 480 0
DWIDTH 5 0
BBX 4 9 0 0
BITMAP
50
20
00
F0
10
20
40
80
F0
ENDCHAR
STARTCHAR uni017E
ENCODING 382
SWIDTH 480 0
DWIDTH 5 0
BBX 4 8 0 0
BITMAP
50
20
00
F0
20
40
80
F0
ENDCHAR
STARTCHAR uni0192
ENCODING 402
SWIDTH 480 0
DWIDTH 5 0
BBX 4 8 0 -1
BITMAP
30
40
F0
40
40
40
40
80
ENDCHAR
STARTCHAR uni01CD
ENCODING 461
SWIDTH 480 0
DWIDTH 5 0
BBX 4 9 0 0
BITMAP
50
20
00
60
90
90
F0
90
90
ENDCHAR
STARTCHAR uni01CE
ENCODING 462
SWIDTH 480 0
DWIDTH 5 0
BBX 4 8 0 0
BITMAP
50
20
00
60
10
70
90
70
ENDCHAR
STARTCHAR uni01CF
ENCODING 463
SWIDTH 480 0
DWIDTH 5 0
BBX 4 9 0 0
BITMAP
50
20
00
F0
20
20
20
20
F0
ENDCHAR
STARTCHAR uni01D0
ENCODING 464
SWIDTH 480 0
DWIDTH 5 0
BBX 4 8 0 0
BITMAP
50
20
00
E0
20
20
20
F0
ENDCHAR
STARTCHAR uni01D1
ENCODING 465
SWIDTH 480 0
DWIDTH 5 0
BBX 4 9 0 0
BITMAP
50
20
00
60
90
90
90
90
60
ENDCHAR
STARTCHAR uni01D2
ENCODING 466
SWIDTH 480 0
DWIDTH 5 0
BBX 4 8 0 0
BITMAP
50
20
00
60
90
90
90
60
ENDCHAR
STARTCHAR uni01D3
ENCODING 467
SWIDTH 480 0
DWIDTH 5 0
BBX 4 9 0 0
BITMAP
50
20
00
90
90
90
90
90
60
ENDCHAR
STARTCHAR uni01D4
ENCODING 468
SWIDTH 480 0
DWIDTH 5 0
BBX 4 8 0 0
BITMAP
50
20
00
90
90
90
90
70
ENDCHAR
STARTCHAR uni01D5
ENCODING 469
SWIDTH 480 0
DWIDTH 5 0
BBX 4 9 0 0
BITMAP
60
00
90
00
90
90
90
90
60
ENDCHAR
STARTCHAR uni01D6
ENCODING 470
SWIDTH 480 0
DWIDTH 5 0
BBX 4 8 0 0
BITMAP
60
00
90
00
90
90
90
70
ENDCHAR
STARTCHAR uni01D7
ENCODING 471
SWIDTH 480 0
DWIDTH 5 0
BBX 4 9 0 0
BITMAP
20
40
90
00
90
90
90
90
60
ENDCHAR
STARTCHAR uni01D8
ENCODING 472
SWIDTH 480 0
DWIDTH 5 0
BBX 4 9 0 0
BITMAP
10
20
00
90
00
90
90
90
70
ENDCHAR
STARTCHAR uni01D9
ENCODING 473
SWIDTH 480 0
DWIDTH 5 0
BBX 4 9 0 0
BITMAP
50
20
90
00
90
90
90
90
60
ENDCHAR
STARTCHAR uni01DA
ENCODING 474
SWIDTH 480 0
DWIDTH 5 0
BBX 4 9 0 0
BITMAP
50
20
00
90
00
90
90
90
70
ENDCHAR
STARTCHAR uni01DB
ENCODING 475
SWIDTH 480 0
DWIDTH 5 0
BBX 4 9 0 0
BITMAP
40
20
90
00
90
90
90
90
60
ENDCHAR
STARTCHAR uni01DC
ENCODING 476
SWIDTH 480 0
DWIDTH 5 0
BBX 4 9 0 0
BITMAP
40
20
00
90
00
90
90
90
70
ENDCHAR
STARTCHAR uni01DD
ENCODING 477
SWIDTH 480 0
DWIDTH 5 0
BBX 4 5 0 0
BITMAP
60
10
F0
90
60
ENDCHAR
STARTCHAR uni01DE
ENCODING 478
SWIDTH 480 0
DWIDTH 5 0
BBX 4 9 0 0
BITMAP
60
00
50
00
60
90
F0
90
90
ENDCHAR
STARTCHAR uni01DF
ENCODING 479
SWIDTH 480 0
DWIDTH 5 0
BBX 4 9 0 0
BITMAP
60
00
50
00
60
10
70
90
70
ENDCHAR
STARTCHAR uni01E0
ENCODING 480
SWIDTH 480 0
DWIDTH 5 0
BBX 4 9 0 0
BITMAP
60
00
20
00
60
90
F0
90
90
ENDCHAR
STARTCHAR uni01E1
ENCODING 481
SWIDTH 480 0
DWIDTH 5 0
BBX 4 9 0 0
BITMAP
60
00
20
00
60
10
70
90
70
ENDCHAR
STARTCHAR uni01E2
ENCODING 482
SWIDTH 480 0
DWIDTH 5 0
BBX 4 8 0 0
BITMAP
60
00
70
A0
B0
E0
A0
B0
ENDCHAR
STARTCHAR uni01E3
ENCODING 483
SWIDTH 480 0
DWIDTH 5 0
BBX 4 7 0 0
BITMAP
60
00
A0
50
F0
A0
70
ENDCHAR
STARTCHAR uni01F8
ENCODING 504
SWIDTH 480 0
DWIDTH 5 0
BBX 4 9 0 0
BITMAP
40
20
00
90
D0
D0
B0
B0
90
ENDCHAR
STARTCHAR uni01F9
ENCODING 505
SWIDTH 480 0
DWIDTH 5 0
BBX 4 8 0 0
BITMAP
40
20
00
E0
90
90
90
90
ENDCHAR
STARTCHAR uni01FC
ENCODING 508
SWIDTH 480 0
DWIDTH 5 0
BBX 4 9 0 0
BITMAP
20
40
00
70
A0
B0
E0
A0
B0
ENDCHAR
STARTCHAR uni01FD
ENCODING 509
SWIDTH 480 0
DWIDTH 5 0
BBX 4 8 0 0
BITMAP
20
40
00
A0
50
F0
A0
70
ENDCHAR
STARTCHAR uni021E
ENCODING 542
SWIDTH 480 0
DWIDTH 5 0
BBX 4 9 0 0
BITMAP
50
20
00
90
90
F0
90
90
90
ENDCHAR
STARTCHAR uni021F
ENCODING 543
SWIDTH 480 0
DWIDTH 5 0
BBX 4 9 0 0
BITMAP
50
20
00
80
80
E0
90
90
90
ENDCHAR
STARTCHAR uni0232
ENCODING 562
SWIDTH 480 0
DWIDTH 5 0
BBX 4 8 0 0
BITMAP
60
00
90
50
50
20
20
20
ENDCHAR
STARTCHAR uni0233
ENCODING 563
SWIDTH 480 0
DWIDTH 5 0
BBX 4 8 0 -1
BITMAP
60
00
90
90
50
50
20
C0
ENDCHAR
STARTCHAR uni2010
ENCODING 8208
SWIDTH 960 0
DWIDTH 10 0
BBX 5 1 2 3
BITMAP
F8
ENDCHAR
STARTCHAR uni2011
ENCODING 8209
SWIDTH 480 0
DWIDTH 5 0
BBX 4 1 0 3
BITMAP
F0
ENDCHAR
STARTCHAR uni2012
ENCODING 8210
SWIDTH 480 0
DWIDTH 5 0
BBX 4 1 0 3
BITMAP
F0
ENDCHAR
STARTCHAR uni2013
ENCODING 8211
SWIDTH 480 0
DWIDTH 5 0
BBX 5 1 0 3
BITMAP
F8
ENDCHAR
STARTCHAR uni2014
ENCODING 8212
SWIDTH 960 0
DWIDTH 10 0
BBX 9 1 0 3
BITMAP
FF80
ENDCHAR
STARTCHAR uni2015
ENCODING 8213
SWIDTH 960 0
DWIDTH 10 0
BBX 10 1 0 3
BITMAP
FFC0
ENDCHAR
STARTCHAR uni2016
ENCODING 8214
SWIDTH 960 0
DWIDTH 10 0
BBX 3 9 3 -1
BITMAP
A0
A0
A0
A0
A0
A0
A0
A0
A0
ENDCHAR
STARTCHAR uni2018
ENCODING 8216
SWIDTH 480 0
DWIDTH 5 0
BBX 2 3 1 4
BITMAP
40
80
80
ENDCHAR
STARTCHAR uni2019
ENCODING 8217
SWIDTH 480 0
DWIDTH 5 0
BBX 2 3 1 4
BITMAP
40
40
80
ENDCHAR
STARTCHAR uni201A
ENCODING 8218
SWIDTH 480 0
DWIDTH 5 0
BBX 2 3 1 -1
BITMAP
40
40
80
ENDCHAR
STARTCHAR uni201B
ENCODING 8219
SWIDTH 480 0
DWIDTH 5 0
BBX 2 3 1 4
BITMAP
80
80
40
ENDCHAR
STARTCHAR uni201C
ENCODING 8220
SWIDTH 480 0
DWIDTH 5 0
BBX 4 3 0 4
BITMAP
50
A0
A0
ENDCHAR
STARTCHAR uni201D
ENCODING 8221
SWIDTH 480 0
DWIDTH 5 0
BBX 4 3 0 4
BITMAP
50
50
A0
ENDCHAR
STARTCHAR uni201E
ENCODING 8222
SWIDTH 480 0
DWIDTH 5 0
BBX 4 3 0 -1
BITMAP
50
50
A0
ENDCHAR
STARTCHAR uni201F
ENCODING 8223
SWIDTH 480 0
DWIDTH 5 0
BBX 4 3 0 4
BITMAP
A0
A0
50
ENDCHAR
STARTCHAR uni2020
ENCODING 8224
SWIDTH 960 0
DWIDTH 10 0
BBX 5 9 2 -1
BITMAP
20
20
20
F8
20
20
20
20
20
ENDCHAR
STARTCHAR uni2021
ENCODING 8225
SWIDTH 960 0
DWIDTH 10 0
BBX 5 9 2 -1
BITMAP
20
20
F8
20
20
20
F8
20
20
ENDCHAR
STARTCHAR uni2024-zh_cn
ENCODING 8228
SWIDTH 960 0
DWIDTH 10 0
BBX 2 2 4 2
BITMAP
C0
C0
ENDCHAR
STARTCHAR uni2025-zh_cn
ENCODING 8229
SWIDTH 960 0
DWIDTH 10 0
BBX 6 2 2 2
BITMAP
CC
CC
ENDCHAR
STARTCHAR uni2026-zh_cn
ENCODING 8230
SWIDTH 960 0
DWIDTH 10 0
BBX 8 2 1 2
BITMAP
DB
DB
ENDCHAR
STARTCHAR uni2027-zh_cn
ENCODING 8231
SWIDTH 960 0
DWIDTH 10 0
BBX 2 2 4 2
BITMAP
C0
C0
ENDCHAR
STARTCHAR uni203B
ENCODING 8251
SWIDTH 960 0
DWIDTH 10 0
BBX 9 9 0 -1
BITMAP
0800
4100
2200
1400
8880
1400
2200
4100
0800
ENDCHAR
STARTCHAR uni203E
ENCODING 8254
SWIDTH 480 0
DWIDTH 5 0
BBX 4 1 0 7
BITMAP
F0
ENDCHAR
STARTCHAR uni204B
ENCODING 8267
SWIDTH 480 0
DWIDTH 5 0
BBX 4 8 0 -1
BITMAP
F0
B0
B0
B0
A0
A0
A0
A0
ENDCHAR
STARTCHAR uni204C
ENCODING 8268
SWIDTH 480 0
DWIDTH 5 0
BBX 4 4 0 1
BITMAP
F0
D0
D0
F0
ENDCHAR
STARTCHAR uni204D
ENCODING 8269
SWIDTH 480 0
DWIDTH 5 0
BBX 4 4 0 1
BITMAP
F0
B0
B0
F0
ENDCHAR
STARTCHAR uni2070
ENCODING 8304
SWIDTH 480 0
DWIDTH 5 0
BBX 3 5 0 3
BITMAP
E0
A0
A0
A0
E0
ENDCHAR
STARTCHAR uni2071
ENCODING 8305
SWIDTH 480 0
DWIDTH 5 0
BBX 3 5 1 3
BITMAP
40
00
C0
40
E0
ENDCHAR
STARTCHAR uni2074
ENCODING 8308
SWIDTH 480 0
DWIDTH 5 0
BBX 3 5 0 3
BITMAP
60
A0
A0
E0
20
ENDCHAR
STARTCHAR uni2075
ENCODING 8309
SWIDTH 480 0
DWIDTH 5 0
BBX 3 5 0 3
BITMAP
E0
80
E0
20
E0
ENDCHAR
STARTCHAR uni2076
ENCODING 8310
SWIDTH 480 0
DWIDTH 5 0
BBX 3 5 0 3
BITMAP
E0
80
E0
A0
E0
ENDCHAR
STARTCHAR uni2077
ENCODING 8311
SWIDTH 480 0
DWIDTH 5 0
BBX 3 5 0 3
BITMAP
E0
20
40
40
40
ENDCHAR
STARTCHAR uni2078
ENCODING 8312
SWIDTH 480 0
DWIDTH 5 0
BBX 3 5 0 3
BITMAP
E0
A0
E0
A0
E0
ENDCHAR
STARTCHAR uni2079
ENCODING 8313
SWIDTH 480 0
DWIDTH 5 0
BBX 3 5 0 3
BITMAP
E0
A0
E0
20
E0
ENDCHAR
STARTCHAR uni207A
ENCODING 8314
SWIDTH 480 0
DWIDTH 5 0
BBX 3 3 0 4
BITMAP
40
E0
40
ENDCHAR
STARTCHAR uni207B
ENCODING 8315
SWIDTH 480 0
DWIDTH 5 0
BBX 3 1 0 5
BITMAP
E0
ENDCHAR
STARTCHAR uni207C
ENCODING 8316
SWIDTH 480 0
DWIDTH 5 0
BBX 3 3 0 4
BITMAP
E0
00
E0
ENDCHAR
STARTCHAR uni207D
ENCODING 8317
SWIDTH 480 0
DWIDTH 5 0
BBX 2 5 1 3
BITMAP
40
80
80
80
40
ENDCHAR
STARTCHAR uni207E
ENCODING 8318
SWIDTH 480 0
DWIDTH 5 0
BBX 2 5 0 3
BITMAP
80
40
40
40
80
ENDCHAR
STARTCHAR uni207F
ENCODING 8319
SWIDTH 480 0
DWIDTH 5 0
BBX 4 4 0 3
BITMAP
E0
90
90
90
ENDCHAR
STARTCHAR uni2080
ENCODING 8320
SWIDTH 480 0
DWIDTH 5 0
BBX 3 5 0 -1
BITMAP
E0
A0
A0
A0
E0
ENDCHAR
STARTCHAR uni2081
ENCODING 8321
SWIDTH 480 0
DWIDTH 5 0
BBX 3 5 0 -1
BITMAP
40
C0
40
40
E0
ENDCHAR
STARTCHAR uni2082
ENCODING 8322
SWIDTH 480 0
DWIDTH 5 0
BBX 3 5 0 -1
BITMAP
E0
20
E0
80
E0
ENDCHAR
STARTCHAR uni2083
ENCODING 8323
SWIDTH 480 0
DWIDTH 5 0
BBX 3 5 0 -1
BITMAP
E0
20
E0
20
E0
ENDCHAR
STARTCHAR uni2084
ENCODING 8324
SWIDTH 480 0
DWIDTH 5 0
BBX 3 5 0 -1
BITMAP
60
A0
A0
E0
20
ENDCHAR
STARTCHAR uni2085
ENCODING 8325
SWIDTH 480 0
DWIDTH 5 0
BBX 3 5 0 -1
BITMAP
E0
80
E0
20
E0
ENDCHAR
STARTCHAR uni2086
ENCODING 8326
SWIDTH 480 0
DWIDTH 5 0
BBX 3 5 0 -1
BITMAP
E0
80
E0
A0
E0
ENDCHAR
STARTCHAR uni2087
ENCODING 8327
SWIDTH 480 0
DWIDTH 5 0
BBX 3 5 0 -1
BITMAP
E0
20
40
40
40
ENDCHAR
STARTCHAR uni2088
ENCODING 8328
SWIDTH 480 0
DWIDTH 5 0
BBX 3 5 0 -1
BITMAP
E0
A0
E0
A0
E0
ENDCHAR
STARTCHAR uni2089
ENCODING 8329
SWIDTH 480 0
DWIDTH 5 0
BBX 3 5 0 -1
BITMAP
E0
A0
E0
20
E0
ENDCHAR
STARTCHAR uni208A
ENCODING 8330
SWIDTH 480 0
DWIDTH 5 0
BBX 3 3 0 0
BITMAP
40
E0
40
ENDCHAR
STARTCHAR uni208B
ENCODING 8331
SWIDTH 480 0
DWIDTH 5 0
BBX 3 1 0 1
BITMAP
E0
ENDCHAR
STARTCHAR uni208C
ENCODING 8332
SWIDTH 480 0
DWIDTH 5 0
BBX 3 3 0 0
BITMAP
E0
00
E0
ENDCHAR
STARTCHAR uni208D
ENCODING 8333
SWIDTH 480 0
DWIDTH 5 0
BBX 2 5 1 -1
BITMAP
40
80
80
80
40
ENDCHAR
STARTCHAR uni208E
ENCODING 8334
SWIDTH 480 0
DWIDTH 5 0
BBX 2 5 0 -1
BITMAP
80
40
40
40
80
ENDCHAR
STARTCHAR uni2090
ENCODING 8336
SWIDTH 480 0
DWIDTH 5 0
BBX 4 4 0 -1
BITMAP
70
90
90
70
ENDCHAR
STARTCHAR uni2091
ENCODING 8337
SWIDTH 480 0
DWIDTH 5 0
BBX 4 4 0 -1
BITMAP
60
B0
C0
60
ENDCHAR
STARTCHAR uni2092
ENCODING 8338
SWIDTH 480 0
DWIDTH 5 0
BBX 4 4 0 -1
BITMAP
60
90
90
60
ENDCHAR
STARTCHAR uni2093
ENCODING 8339
SWIDTH 480 0
DWIDTH 5 0
BBX 4 4 0 -1
BITMAP
90
60
90
90
ENDCHAR
STARTCHAR uni2094
ENCODING 8340
SWIDTH 480 0
DWIDTH 5 0
BBX 4 4 0 -1
BITMAP
60
30
D0
60
ENDCHAR
STARTCHAR uni2095
ENCODING 8341
SWIDTH 480 0
DWIDTH 5 0
BBX 4 5 0 -1
BITMAP
80
E0
90
90
90
ENDCHAR
STARTCHAR uni2096
ENCODING 8342
SWIDTH 480 0
DWIDTH 5 0
BBX 4 5 0 -1
BITMAP
80
B0
C0
A0
90
ENDCHAR
STARTCHAR uni2097
ENCODING 8343
SWIDTH 480 0
DWIDTH 5 0
BBX 3 5 1 -1
BITMAP
C0
40
40
40
60
ENDCHAR
STARTCHAR uni2098
ENCODING 8344
SWIDTH 480 0
DWIDTH 5 0
BBX 4 4 0 -1
BITMAP
90
F0
90
90
ENDCHAR
STARTCHAR uni2099
ENCODING 8345
SWIDTH 480 0
DWIDTH 5 0
BBX 4 4 0 -1
BITMAP
E0
90
90
90
ENDCHAR
STARTCHAR uni209A
ENCODING 8346
SWIDTH 480 0
DWIDTH 5 0
BBX 4 4 0 -1
BITMAP
E0
90
E0
80
ENDCHAR
STARTCHAR uni209B
ENCODING 8347
SWIDTH 480 0
DWIDTH 5 0
BBX 4 4 0 -1
BITMAP
70
C0
30
E0
ENDCHAR
STARTCHAR uni209C
ENCODING 8348
SWIDTH 480 0
DWIDTH 5 0
BBX 4 5 0 -1
BITMAP
40
F0
40
40
30
ENDCHAR
STARTCHAR uni2150
ENCODING 8528
SWIDTH 960 0
DWIDTH 10 0
BBX 9 9 0 -1
BITMAP
4080
C100
4200
4400
EB80
1080
2100
4100
8100
ENDCHAR
STARTCHAR uni2151
ENCODING 8529
SWIDTH 960 0
DWIDTH 10 0
BBX 9 9 0 -1
BITMAP
4080
C100
4200
4400
EB80
1280
2380
4080
8380
ENDCHAR
STARTCHAR uni2152
ENCODING 8530
SWIDTH 960 0
DWIDTH 10 0
BBX 9 9 0 -1
BITMAP
4080
C100
4200
4400
EB80
1A80
2A80
4A80
8B80
ENDCHAR
STARTCHAR uni2153
ENCODING 8531
SWIDTH 960 0
DWIDTH 10 0
BBX 9 9 0 -1
BITMAP
4080
C100
4200
4400
EB80
1080
2380
4080
8380
ENDCHAR
STARTCHAR uni2154
ENCODING 8532
SWIDTH 960 0
DWIDTH 10 0
BBX 9 9 0 -1
BITMAP
E080
2100
E200
8400
EB80
1080
2380
4080
8380
ENDCHAR
STARTCHAR uni2155
ENCODING 8533
SWIDTH 960 0
DWIDTH 10 0
BBX 9 9 0 -1
BITMAP
4080
C100
4200
4400
EB80
1200
2380
4080
8380
ENDCHAR
STARTCHAR uni2156
ENCODING 8534
SWIDTH 960 0
DWIDTH 10 0
BBX 9 9 0 -1
BITMAP
E080
2100
E200
8400
EB80
1200
2380
4080
8380
ENDCHAR
STARTCHAR uni2157
ENCODING 8535
SWIDTH 960 0
DWIDTH 10 0
BBX 9 9 0 -1
BITMAP
E080
2100
E200
2400
EB80
1200
2380
4080
8380
ENDCHAR
STARTCHAR uni2158
ENCODING 8536
SWIDTH 960 0
DWIDTH 10 0
BBX 9 9 0 -1
BITMAP
6080
A100
A200
E400
2B80
1200
2380
4080
8380
ENDCHAR
STARTCHAR uni2159
ENCODING 8537
SWIDTH 960 0
DWIDTH 10 0
BBX 9 9 0 -1
BITMAP
4080
C100
4200
4400
EB80
1200
2380
4280
8380
ENDCHAR
STARTCHAR uni215A
ENCODING 8538
SWIDTH 960 0
DWIDTH 10 0
BBX 9 9 0 -1
BITMAP
E080
8100
E200
2400
EB80
1200
2380
4280
8380
ENDCHAR
STARTCHAR uni215B
ENCODING 8539
SWIDTH 960 0
DWIDTH 10 0
BBX 9 9 0 -1
BITMAP
4080
C100
4200
4400
EB80
1280
2380
4280
8380
ENDCHAR
STARTCHAR uni215C
ENCODING 8540
SWIDTH 960 0
DWIDTH 10 0
BBX 9 9 0 -1
BITMAP
E080
2100
E200
2400
EB80
1280
2380
4280
8380
ENDCHAR
STARTCHAR uni215D
ENCODING 8541
SWIDTH 960 0
DWIDTH 10 0
BBX 9 9 0 -1
BITMAP
E080
8100
E200
2400
EB80
1280
2380
4280
8380
ENDCHAR
STARTCHAR uni215E
ENCODING 8542
SWIDTH 960 0
DWIDTH 10 0
BBX 9 9 0 -1
BITMAP
E080
2100
4200
4400
4B80
1280
2380
4280
8380
ENDCHAR
STARTCHAR uni215F
ENCODING 8543
SWIDTH 960 0
DWIDTH 10 0
BBX 9 9 0 -1
BITMAP
4080
C100
4200
4400
E800
1000
2000
4000
8000
ENDCHAR
STARTCHAR uni2160
ENCODING 8544
SWIDTH 960 0
DWIDTH 10 0
BBX 1 7 4 0
BITMAP
80
80
80
80
80
80
80
ENDCHAR
STARTCHAR uni2161
ENCODING 8545
SWIDTH 960 0
DWIDTH 10 0
BBX 3 7 3 0
BITMAP
A0
A0
A0
A0
A0
A0
A0
ENDCHAR
STARTCHAR uni2162
ENCODING 8546
SWIDTH 960 0
DWIDTH 10 0
BBX 5 7 2 0
BITMAP
A8
A8
A8
A8
A8
A8
A8
ENDCHAR
STARTCHAR uni2163
ENCODING 8547
SWIDTH 960 0
DWIDTH 10 0
BBX 7 7 1 0
BITMAP
A2
A2
94
94
94
88
88
ENDCHAR
STARTCHAR uni2164
ENCODING 8548
SWIDTH 960 0
DWIDTH 10 0
BBX 5 7 2 0
BITMAP
88
88
50
50
50
20
20
ENDCHAR
STARTCHAR uni2165
ENCODING 8549
SWIDTH 960 0
DWIDTH 10 0
BBX 7 7 1 0
BITMAP
8A
8A
52
52
52
22
22
ENDCHAR
STARTCHAR uni2166
ENCODING 8550
SWIDTH 960 0
DWIDTH 10 0
BBX 9 7 0 0
BITMAP
8A80
8A80
5280
5280
5280
2280
2280
ENDCHAR
STARTCHAR uni2167
ENCODING 8551
SWIDTH 960 0
DWIDTH 10 0
BBX 9 7 0 0
BITMAP
AA80
AA80
AA80
AA80
4A80
4A80
4A80
ENDCHAR
STARTCHAR uni2168
ENCODING 8552
SWIDTH 960 0
DWIDTH 10 0
BBX 7 7 1 0
BITMAP
A2
A2
94
88
94
A2
A2
ENDCHAR
STARTCHAR uni2169
ENCODING 8553
SWIDTH 960 0
DWIDTH 10 0
BBX 5 7 2 0
BITMAP
88
88
50
20
50
88
88
ENDCHAR
STARTCHAR uni216A
ENCODING 8554
SWIDTH 960 0
DWIDTH 10 0
BBX 7 7 1 0
BITMAP
8A
8A
52
22
52
8A
8A
ENDCHAR
STARTCHAR uni216B
ENCODING 8555
SWIDTH 960 0
DWIDTH 10 0
BBX 9 7 0 0
BITMAP
8A80
8A80
5280
2280
5280
8A80
8A80
ENDCHAR
STARTCHAR uni216C
ENCODING 8556
SWIDTH 960 0
DWIDTH 10 0
BBX 5 7 2 0
BITMAP
80
80
80
80
80
80
F8
ENDCHAR
STARTCHAR uni216D
ENCODING 8557
SWIDTH 960 0
DWIDTH 10 0
BBX 5 7 2 0
BITMAP
70
88
80
80
80
88
70
ENDCHAR
STARTCHAR uni216E
ENCODING 8558
SWIDTH 960 0
DWIDTH 10 0
BBX 5 7 2 0
BITMAP
F0
88
88
88
88
88
F0
ENDCHAR
STARTCHAR uni216F
ENCODING 8559
SWIDTH 960 0
DWIDTH 10 0
BBX 7 7 1 0
BITMAP
82
C6
C6
AA
AA
92
92
ENDCHAR
STARTCHAR uni2170
ENCODING 8560
SWIDTH 960 0
DWIDTH 10 0
BBX 1 7 4 0
BITMAP
80
00
80
80
80
80
80
ENDCHAR
STARTCHAR uni2171
ENCODING 8561
SWIDTH 960 0
DWIDTH 10 0
BBX 3 7 3 0
BITMAP
A0
00
A0
A0
A0
A0
A0
ENDCHAR
STARTCHAR uni2172
ENCODING 8562
SWIDTH 960 0
DWIDTH 10 0
BBX 5 7 2 0
BITMAP
A8
00
A8
A8
A8
A8
A8
ENDCHAR
STARTCHAR uni2173
ENCODING 8563
SWIDTH 960 0
DWIDTH 10 0
BBX 7 7 1 0
BITMAP
80
00
A2
A2
94
94
88
ENDCHAR
STARTCHAR uni2174
ENCODING 8564
SWIDTH 960 0
DWIDTH 10 0
BBX 5 5 2 0
BITMAP
88
88
50
50
20
ENDCHAR
STARTCHAR uni2175
ENCODING 8565
SWIDTH 960 0
DWIDTH 10 0
BBX 7 7 1 0
BITMAP
02
00
8A
8A
52
52
22
ENDCHAR
STARTCHAR uni2176
ENCODING 8566
SWIDTH 960 0
DWIDTH 10 0
BBX 9 7 0 0
BITMAP
0280
0000
8A80
8A80
5280
5280
2280
ENDCHAR
STARTCHAR uni2177
ENCODING 8567
SWIDTH 960 0
DWIDTH 10 0
BBX 9 7 0 0
BITMAP
0A80
0000
AA80
AA80
AA80
4A80
4A80
ENDCHAR
STARTCHAR uni2178
ENCODING 8568
SWIDTH 960 0
DWIDTH 10 0
BBX 7 7 1 0
BITMAP
80
00
A2
94
88
94
A2
ENDCHAR
STARTCHAR uni2179
ENCODING 8569
SWIDTH 960 0
DWIDTH 10 0
BBX 5 5 2 0
BITMAP
88
50
20
50
88
ENDCHAR
STARTCHAR uni217A
ENCODING 8570
SWIDTH 960 0
DWIDTH 10 0
BBX 7 7 1 0
BITMAP
02
00
8A
52
22
52
8A
ENDCHAR
STARTCHAR uni217B
ENCODING 8571
SWIDTH 960 0
DWIDTH 10 0
BBX 9 7 0 0
BITMAP
0280
0000
8A80
5280
2280
5280
8A80
ENDCHAR
STARTCHAR uni217C
ENCODING 8572
SWIDTH 960 0
DWIDTH 10 0
BBX 3 7 3 0
BITMAP
C0
40
40
40
40
40
60
ENDCHAR
STARTCHAR uni217D
ENCODING 8573
SWIDTH 960 0
DWIDTH 10 0
BBX 5 5 2 0
BITMAP
70
88
80
88
70
ENDCHAR
STARTCHAR uni217E
ENCODING 8574
SWIDTH 960 0
DWIDTH 10 0
BBX 5 7 2 0
BITMAP
08
08
78
88
88
88
78
ENDCHAR
STARTCHAR uni217F
ENCODING 8575
SWIDTH 960 0
DWIDTH 10 0
BBX 7 5 1 0
BITMAP
EC
92
92
92
92
ENDCHAR
STARTCHAR uni2189
ENCODING 8585
SWIDTH 960 0
DWIDTH 10 0
BBX 9 9 0 -1
BITMAP
E080
A100
A200
A400
EB80
1080
2380
4080
8380
ENDCHAR
STARTCHAR uni2190
ENCODING 8592
SWIDTH 960 0
DWIDTH 10 0
BBX 9 7 0 0
BITMAP
1000
2000
4000
FF80
4000
2000
1000
ENDCHAR
STARTCHAR uni2191
ENCODING 8593
SWIDTH 960 0
DWIDTH 10 0
BBX 7 9 1 -1
BITMAP
10
38
54
92
10
10
10
10
10
ENDCHAR
STARTCHAR uni2192
ENCODING 8594
SWIDTH 960 0
DWIDTH 10 0
BBX 9 7 0 0
BITMAP
0400
0200
0100
FF80
0100
0200
0400
ENDCHAR
STARTCHAR uni2193
ENCODING 8595
SWIDTH 960 0
DWIDTH 10 0
BBX 7 9 1 -1
BITMAP
10
10
10
10
10
92
54
38
10
ENDCHAR
STARTCHAR uni2194
ENCODING 8596
SWIDTH 960 0
DWIDTH 10 0
BBX 9 5 0 1
BITMAP
2200
4100
FF80
4100
2200
ENDCHAR
STARTCHAR uni2195
ENCODING 8597
SWIDTH 960 0
DWIDTH 10 0
BBX 5 9 2 -1
BITMAP
20
70
A8
20
20
20
A8
70
20
ENDCHAR
STARTCHAR uni2196
ENCODING 8598
SWIDTH 960 0
DWIDTH 10 0
BBX 7 7 1 0
BITMAP
F8
C0
A0
90
88
04
02
ENDCHAR
STARTCHAR uni2197
ENCODING 8599
SWIDTH 960 0
DWIDTH 10 0
BBX 7 7 1 0
BITMAP
3E
06
0A
12
22
40
80
ENDCHAR
STARTCHAR uni2198
ENCODING 8600
SWIDTH 960 0
DWIDTH 10 0
BBX 7 7 1 0
BITMAP
80
40
22
12
0A
06
3E
ENDCHAR
STARTCHAR uni2199
ENCODING 8601
SWIDTH 960 0
DWIDTH 10 0
BBX 7 7 1 0
BITMAP
02
04
88
90
A0
C0
F8
ENDCHAR
STARTCHAR uni21BA
ENCODING 8634
SWIDTH 960 0
DWIDTH 10 0
BBX 7 8 1 0
BITMAP
1C
18
54
82
82
82
44
38
ENDCHAR
STARTCHAR uni21BB
ENCODING 8635
SWIDTH 960 0
DWIDTH 10 0
BBX 7 8 1 0
BITMAP
70
30
54
82
82
82
44
38
ENDCHAR
STARTCHAR uni21D0
ENCODING 8656
SWIDTH 960 0
DWIDTH 10 0
BBX 9 7 0 0
BITMAP
1000
2000
7F80
8000
7F80
2000
1000
ENDCHAR
STARTCHAR uni21D1
ENCODING 8657
SWIDTH 960 0
DWIDTH 10 0
BBX 7 9 1 -1
BITMAP
10
28
6C
AA
28
28
28
28
28
ENDCHAR
STARTCHAR uni21D2
ENCODING 8658
SWIDTH 960 0
DWIDTH 10 0
BBX 9 7 0 0
BITMAP
0400
0200
FF00
0080
FF00
0200
0400
ENDCHAR
STARTCHAR uni21D3
ENCODING 8659
SWIDTH 960 0
DWIDTH 10 0
BBX 7 9 1 -1
BITMAP
28
28
28
28
28
AA
6C
28
10
ENDCHAR
STARTCHAR uni21D4
ENCODING 8660
SWIDTH 960 0
DWIDTH 10 0
BBX 9 5 0 1
BITMAP
2200
7F00
8080
7F00
2200
ENDCHAR
STARTCHAR uni21D5
ENCODING 8661
SWIDTH 960 0
DWIDTH 10 0
BBX 5 9 2 -1
BITMAP
20
50
D8
50
50
50
D8
50
20
ENDCHAR
STARTCHAR uni21D6
ENCODING 8662
SWIDTH 960 0
DWIDTH 10 0
BBX 7 7 1 0
BITMAP
F8
A0
D0
A8
94
0A
04
ENDCHAR
STARTCHAR uni21D7
ENCODING 8663
SWIDTH 960 0
DWIDTH 10 0
BBX 7 7 1 0
BITMAP
3E
0A
16
2A
52
A0
40
ENDCHAR
STARTCHAR uni21D8
ENCODING 8664
SWIDTH 960 0
DWIDTH 10 0
BBX 7 7 1 0
BITMAP
40
A0
52
2A
16
0A
3E
ENDCHAR
STARTCHAR uni21D9
ENCODING 8665
SWIDTH 960 0
DWIDTH 10 0
BBX 7 7 1 0
BITMAP
04
0A
94
A8
D0
A0
F8
ENDCHAR
STARTCHAR uni21DA
ENCODING 8666
SWIDTH 960 0
DWIDTH 10 0
BBX 9 7 0 0
BITMAP
1000
3F80
4000
FF80
4000
3F80
1000
ENDCHAR
STARTCHAR uni21DB
ENCODING 8667
SWIDTH 960 0
DWIDTH 10 0
BBX 9 7 0 0
BITMAP
0400
FE00
0100
FF80
0100
FE00
0400
ENDCHAR
STARTCHAR uni21E0
ENCODING 8672
SWIDTH 960 0
DWIDTH 10 0
BBX 9 7 0 0
BITMAP
1000
2000
4000
ED80
4000
2000
1000
ENDCHAR
STARTCHAR uni21E1
ENCODING 8673
SWIDTH 960 0
DWIDTH 10 0
BBX 7 9 1 -1
BITMAP
10
38
54
82
10
10
00
10
10
ENDCHAR
STARTCHAR uni21E2
ENCODING 8674
SWIDTH 960 0
DWIDTH 10 0
BBX 9 7 0 0
BITMAP
0400
0200
0100
DB80
0100
0200
0400
ENDCHAR
STARTCHAR uni21E3
ENCODING 8675
SWIDTH 960 0
DWIDTH 10 0
BBX 7 9 1 -1
BITMAP
10
10
00
10
10
82
54
38
10
ENDCHAR
STARTCHAR uni21E4
ENCODING 8676
SWIDTH 960 0
DWIDTH 10 0
BBX 9 5 0 1
BITMAP
8800
9000
BF80
9000
8800
ENDCHAR
STARTCHAR uni21E5
ENCODING 8677
SWIDTH 960 0
DWIDTH 10 0
BBX 9 5 0 1
BITMAP
0880
0480
FE80
0480
0880
ENDCHAR
STARTCHAR uni21E6
ENCODING 8678
SWIDTH 960 0
DWIDTH 10 0
BBX 9 9 0 -1
BITMAP
0800
1800
2F80
4080
8080
4080
2F80
1800
0800
ENDCHAR
STARTCHAR uni21E7
ENCODING 8679
SWIDTH 960 0
DWIDTH 10 0
BBX 9 9 0 -1
BITMAP
0800
1400
2200
4100
E380
2200
2200
2200
3E00
ENDCHAR
STARTCHAR uni21E8
ENCODING 8680
SWIDTH 960 0
DWIDTH 10 0
BBX 9 9 0 -1
BITMAP
0800
0C00
FA00
8100
8080
8100
FA00
0C00
0800
ENDCHAR
STARTCHAR uni21E9
ENCODING 8681
SWIDTH 960 0
DWIDTH 10 0
BBX 9 9 0 -1
BITMAP
3E00
2200
2200
2200
E380
4100
2200
1400
0800
ENDCHAR
STARTCHAR uni21EA
ENCODING 8682
SWIDTH 960 0
DWIDTH 10 0
BBX 9 9 0 -1
BITMAP
0800
1400
2200
4100
E380
2200
3E00
0000
3E00
ENDCHAR
STARTCHAR uni21EB
ENCODING 8683
SWIDTH 960 0
DWIDTH 10 0
BBX 9 9 0 -1
BITMAP
0800
1400
2200
4100
E380
2200
2200
2200
FF80
ENDCHAR
STARTCHAR uni21EC
ENCODING 8684
SWIDTH 960 0
DWIDTH 10 0
BBX 9 9 0 -1
BITMAP
0800
1400
3E00
4100
E380
2200
2200
2200
FF80
ENDCHAR
STARTCHAR uni21ED
ENCODING 8685
SWIDTH 960 0
DWIDTH 10 0
BBX 9 9 0 -1
BITMAP
0800
1C00
2A00
4900
EB80
2A00
2A00
2A00
FF80
ENDCHAR
STARTCHAR uni21EE
ENCODING 8686
SWIDTH 960 0
DWIDTH 10 0
BBX 9 10 0 -1
BITMAP
0800
1400
2A00
5500
A280
4100
E380
2200
2200
3E00
ENDCHAR
STARTCHAR uni21EF
ENCODING 8687
SWIDTH 960 0
DWIDTH 10 0
BBX 9 10 0 -1
BITMAP
0800
1400
2A00
5500
A280
4100
E380
2200
2200
FF80
ENDCHAR
STARTCHAR uni21F0
ENCODING 8688
SWIDTH 960 0
DWIDTH 10 0
BBX 9 9 0 -1
BITMAP
8800
8C00
FA00
8100
8080
8100
FA00
8C00
8800
ENDCHAR
STARTCHAR uni21F1
ENCODING 8689
SWIDTH 960 0
DWIDTH 10 0
BBX 9 9 0 -1
BITMAP
FF80
8000
BE00
B000
A800
A400
A200
8100
8080
ENDCHAR
STARTCHAR uni21F2
ENCODING 8690
SWIDTH 960 0
DWIDTH 10 0
BBX 9 9 0 -1
BITMAP
8080
4080
2280
1280
0A80
0680
3E80
0080
FF80
ENDCHAR
STARTCHAR uni21F3
ENCODING 8691
SWIDTH 960 0
DWIDTH 10 0
BBX 5 9 2 -1
BITMAP
20
50
88
50
50
50
88
50
20
ENDCHAR
STARTCHAR uni21FD
ENCODING 8701
SWIDTH 960 0
DWIDTH 10 0
BBX 9 5 0 1
BITMAP
2000
6000
BF80
6000
2000
ENDCHAR
STARTCHAR uni21FE
ENCODING 8702
SWIDTH 960 0
DWIDTH 10 0
BBX 9 5 0 1
BITMAP
0200
0300
FE80
0300
0200
ENDCHAR
STARTCHAR uni21FF
ENCODING 8703
SWIDTH 960 0
DWIDTH 10 0
BBX 9 5 0 1
BITMAP
2200
6300
BE80
6300
2200
ENDCHAR
STARTCHAR uni230C
ENCODING 8972
SWIDTH 960 0
DWIDTH 10 0
BBX 5 5 4 -1
BITMAP
38
00
80
80
80
ENDCHAR
STARTCHAR uni230D
ENCODING 8973
SWIDTH 960 0
DWIDTH 10 0
BBX 5 5 0 -1
BITMAP
E0
00
08
08
08
ENDCHAR
STARTCHAR uni230E
ENCODING 8974
SWIDTH 960 0
DWIDTH 10 0
BBX 5 5 4 3
BITMAP
80
80
80
00
38
ENDCHAR
STARTCHAR uni230F
ENCODING 8975
SWIDTH 960 0
DWIDTH 10 0
BBX 5 5 0 3
BITMAP
08
08
08
00
E0
ENDCHAR
STARTCHAR uni2310
ENCODING 8976
SWIDTH 960 0
DWIDTH 10 0
BBX 5 3 2 2
BITMAP
F8
80
80
ENDCHAR
STARTCHAR uni2311
ENCODING 8977
SWIDTH 960 0
DWIDTH 10 0
BBX 7 7 1 0
BITMAP
C6
BA
44
44
44
BA
C6
ENDCHAR
STARTCHAR uni2312
ENCODING 8978
SWIDTH 960 0
DWIDTH 10 0
BBX 9 5 0 1
BITMAP
3E00
4100
8080
8080
8080
ENDCHAR
STARTCHAR uni2313
ENCODING 8979
SWIDTH 960 0
DWIDTH 10 0
BBX 9 5 0 1
BITMAP
3E00
4100
8080
8080
FF80
ENDCHAR
STARTCHAR uni2314
ENCODING 8980
SWIDTH 960 0
DWIDTH 10 0
BBX 7 9 1 -1
BITMAP
38
44
82
82
44
44
28
28
10
ENDCHAR
STARTCHAR uni2315
ENCODING 8981
SWIDTH 960 0
DWIDTH 10 0
BBX 9 9 0 -1
BITMAP
0E00
1100
2080
2080
2080
1100
2E00
4000
8000
ENDCHAR
STARTCHAR uni2316
ENCODING 8982
SWIDTH 960 0
DWIDTH 10 0
BBX 9 9 0 -1
BITMAP
0800
0800
1C00
2A00
FF80
2A00
1C00
0800
0800
ENDCHAR
STARTCHAR uni2317
ENCODING 8983
SWIDTH 960 0
DWIDTH 10 0
BBX 9 9 0 -1
BITMAP
2200
2200
FF80
2200
2200
2200
FF80
2200
2200
ENDCHAR
STARTCHAR uni2318
ENCODING 8984
SWIDTH 960 0
DWIDTH 10 0
BBX 9 9 0 -1
BITMAP
6300
9480
9480
7F00
1400
7F00
9480
9480
6300
ENDCHAR
STARTCHAR uni2319
ENCODING 8985
SWIDTH 960 0
DWIDTH 10 0
BBX 5 3 2 2
BITMAP
80
80
F8
ENDCHAR
STARTCHAR uni231A
ENCODING 8986
SWIDTH 960 0
DWIDTH 10 0
BBX 7 9 1 -1
BITMAP
38
7C
92
92
9E
82
82
7C
38
ENDCHAR
STARTCHAR uni231B
ENCODING 8987
SWIDTH 960 0
DWIDTH 10 0
BBX 9 9 0 -1
BITMAP
FF80
4100
4100
2200
1400
3E00
7F00
7F00
FF80
ENDCHAR
STARTCHAR uni231C
ENCODING 8988
SWIDTH 960 0
DWIDTH 10 0
BBX 5 5 0 3
BITMAP
F8
80
80
80
80
ENDCHAR
STARTCHAR uni231D
ENCODING 8989
SWIDTH 960 0
DWIDTH 10 0
BBX 5 5 4 3
BITMAP
F8
08
08
08
08
ENDCHAR
STARTCHAR uni231E
ENCODING 8990
SWIDTH 960 0
DWIDTH 10 0
BBX 5 5 0 -1
BITMAP
80
80
80
80
F8
ENDCHAR
STARTCHAR uni231F
ENCODING 8991
SWIDTH 960 0
DWIDTH 10 0
BBX 5 5 4 -1
BITMAP
08
08
08
08
F8
ENDCHAR
STARTCHAR uni23CE
ENCODING 9166
SWIDTH 960 0
DWIDTH 10 0
BBX 9 9 0 -1
BITMAP
0380
0280
1280
3280
5E80
8080
5F00
3000
1000
ENDCHAR
STARTCHAR uni23CF
ENCODING 9167
SWIDTH 960 0
DWIDTH 10 0
BBX 7 7 1 0
BITMAP
10
38
7C
FE
00
FE
FE
ENDCHAR
STARTCHAR uni23E8
ENCODING 9192
SWIDTH 960 0
DWIDTH 10 0
BBX 6 5 2 -1
BITMAP
5C
D4
54
54
5C
ENDCHAR
STARTCHAR uni23E9
ENCODING 9193
SWIDTH 960 0
DWIDTH 10 0
BBX 7 5 1 1
BITMAP
88
CC
EE
CC
88
ENDCHAR
STARTCHAR uni23EA
ENCODING 9194
SWIDTH 960 0
DWIDTH 10 0
BBX 7 5 1 1
BITMAP
22
66
EE
66
22
ENDCHAR
STARTCHAR uni23EB
ENCODING 9195
SWIDTH 960 0
DWIDTH 10 0
BBX 5 7 2 0
BITMAP
20
70
F8
00
20
70
F8
ENDCHAR
STARTCHAR uni23EC
ENCODING 9196
SWIDTH 960 0
DWIDTH 10 0
BBX 5 7 2 0
BITMAP
F8
70
20
00
F8
70
20
ENDCHAR
STARTCHAR uni23ED
ENCODING 9197
SWIDTH 960 0
DWIDTH 10 0
BBX 7 5 1 1
BITMAP
92
DA
FE
DA
92
ENDCHAR
STARTCHAR uni23EE
ENCODING 9198
SWIDTH 960 0
DWIDTH 10 0
BBX 7 5 1 1
BITMAP
92
B6
FE
B6
92
ENDCHAR
STARTCHAR uni23EF
ENCODING 9199
SWIDTH 960 0
DWIDTH 10 0
BBX 7 5 1 1
BITMAP
8A
CA
EA
CA
8A
ENDCHAR
STARTCHAR uni23F3
ENCODING 9203
SWIDTH 960 0
DWIDTH 10 0
BBX 9 9 0 -1
BITMAP
FF80
4100
7F00
3E00
1C00
2A00
4900
7F00
FF80
ENDCHAR
STARTCHAR uni23F4
ENCODING 9204
SWIDTH 960 0
DWIDTH 10 0
BBX 3 5 3 1
BITMAP
20
60
E0
60
20
ENDCHAR
STARTCHAR uni23F5
ENCODING 9205
SWIDTH 960 0
DWIDTH 10 0
BBX 3 5 3 1
BITMAP
80
C0
E0
C0
80
ENDCHAR
STARTCHAR uni23F6
ENCODING 9206
SWIDTH 960 0
DWIDTH 10 0
BBX 5 3 2 2
BITMAP
20
70
F8
ENDCHAR
STARTCHAR uni23F7
ENCODING 9207
SWIDTH 960 0
DWIDTH 10 0
BBX 5 3 2 2
BITMAP
F8
70
20
ENDCHAR
STARTCHAR uni23F8
ENCODING 9208
SWIDTH 960 0
DWIDTH 10 0
BBX 5 5 2 1
BITMAP
D8
D8
D8
D8
D8
ENDCHAR
STARTCHAR uni23F9
ENCODING 9209
SWIDTH 960 0
DWIDTH 10 0
BBX 5 5 2 1
BITMAP
F8
F8
F8
F8
F8
ENDCHAR
STARTCHAR uni23FA
ENCODING 9210
SWIDTH 960 0
DWIDTH 10 0
BBX 5 5 2 1
BITMAP
70
F8
F8
F8
70
ENDCHAR
STARTCHAR uni23FB
ENCODING 9211
SWIDTH 960 0
DWIDTH 10 0
BBX 7 7 1 0
BITMAP
10
54
92
92
82
44
38
ENDCHAR
STARTCHAR uni23FC
ENCODING 9212
SWIDTH 960 0
DWIDTH 10 0
BBX 7 7 1 0
BITMAP
38
44
92
92
92
44
38
ENDCHAR
STARTCHAR uni23FD
ENCODING 9213
SWIDTH 960 0
DWIDTH 10 0
BBX 1 5 4 1
BITMAP
80
80
80
80
80
ENDCHAR
STARTCHAR uni23FE
ENCODING 9214
SWIDTH 960 0
DWIDTH 10 0
BBX 9 9 0 -1
BITMAP
3800
7000
E000
E000
E000
F000
F880
7F00
3E00
ENDCHAR
STARTCHAR uni23FF
ENCODING 9215
SWIDTH 960 0
DWIDTH 10 0
BBX 9 7 0 0
BITMAP
0380
0D00
3280
C280
3280
0D00
0380
ENDCHAR
STARTCHAR uni2460
ENCODING 9312
SWIDTH 960 0
DWIDTH 10 0
BBX 9 9 0 -1
BITMAP
3E00
4100
8880
9880
8880
8880
9C80
4100
3E00
ENDCHAR
STARTCHAR uni2461
ENCODING 9313
SWIDTH 960 0
DWIDTH 10 0
BBX 9 9 0 -1
BITMAP
3E00
4100
9C80
8480
9C80
9080
9C80
4100
3E00
ENDCHAR
STARTCHAR uni2462
ENCODING 9314
SWIDTH 960 0
DWIDTH 10 0
BBX 9 9 0 -1
BITMAP
3E00
4100
9C80
8480
9C80
8480
9C80
4100
3E00
ENDCHAR
STARTCHAR uni2463
ENCODING 9315
SWIDTH 960 0
DWIDTH 10 0
BBX 9 9 0 -1
BITMAP
3E00
4100
8C80
9480
9480
9C80
8480
4100
3E00
ENDCHAR
STARTCHAR uni2464
ENCODING 9316
SWIDTH 960 0
DWIDTH 10 0
BBX 9 9 0 -1
BITMAP
3E00
4100
9C80
9080
9C80
8480
9C80
4100
3E00
ENDCHAR
STARTCHAR uni2465
ENCODING 9317
SWIDTH 960 0
DWIDTH 10 0
BBX 9 9 0 -1
BITMAP
3E00
4100
9C80
9080
9C80
9480
9C80
4100
3E00
ENDCHAR
STARTCHAR uni2466
ENCODING 9318
SWIDTH 960 0
DWIDTH 10 0
BBX 9 9 0 -1
BITMAP
3E00
4100
9C80
8480
8880
8880
8880
4100
3E00
ENDCHAR
STARTCHAR uni2467
ENCODING 9319
SWIDTH 960 0
DWIDTH 10 0
BBX 9 9 0 -1
BITMAP
3E00
4100
9C80
9480
9C80
9480
9C80
4100
3E00
ENDCHAR
STARTCHAR uni2468
ENCODING 9320
SWIDTH 960 0
DWIDTH 10 0
BBX 9 9 0 -1
BITMAP
3E00
4100
9C80
9480
9C80
8480
9C80
4100
3E00
ENDCHAR
STARTCHAR uni2469
ENCODING 9321
SWIDTH 960 0
DWIDTH 10 0
BBX 9 9 0 -1
BITMAP
3E00
4100
AE80
AA80
AA80
AA80
AE80
4100
3E00
ENDCHAR
STARTCHAR uni246A
ENCODING 9322
SWIDTH 960 0
DWIDTH 10 0
BBX 9 9 0 -1
BITMAP
3E00
4100
9280
B680
9280
9280
9280
4100
3E00
ENDCHAR
STARTCHAR uni246B
ENCODING 9323
SWIDTH 960 0
DWIDTH 10 0
BBX 9 9 0 -1
BITMAP
3E00
4100
AE80
A280
AE80
A880
AE80
4100
3E00
ENDCHAR
STARTCHAR uni246C
ENCODING 9324
SWIDTH 960 0
DWIDTH 10 0
BBX 9 9 0 -1
BITMAP
3E00
4100
AE80
A280
AE80
A280
AE80
4100
3E00
ENDCHAR
STARTCHAR uni246D
ENCODING 9325
SWIDTH 960 0
DWIDTH 10 0
BBX 9 9 0 -1
BITMAP
3E00
4100
A680
AA80
AA80
AE80
A280
4100
3E00
ENDCHAR
STARTCHAR uni246E
ENCODING 9326
SWIDTH 960 0
DWIDTH 10 0
BBX 9 9 0 -1
BITMAP
3E00
4100
AE80
A880
AE80
A280
AE80
4100
3E00
ENDCHAR
STARTCHAR uni246F
ENCODING 9327
SWIDTH 960 0
DWIDTH 10 0
BBX 9 9 0 -1
BITMAP
3E00
4100
AE80
A880
AE80
AA80
AE80
4100
3E00
ENDCHAR
STARTCHAR uni2470
ENCODING 9328
SWIDTH 960 0
DWIDTH 10 0
BBX 9 9 0 -1
BITMAP
3E00
4100
AE80
A280
A480
A480
A480
4100
3E00
ENDCHAR
STARTCHAR uni2471
ENCODING 9329
SWIDTH 960 0
DWIDTH 10 0
BBX 9 9 0 -1
BITMAP
3E00
4100
AE80
AA80
AE80
AA80
AE80
4100
3E00
ENDCHAR
STARTCHAR uni2472
ENCODING 9330
SWIDTH 960 0
DWIDTH 10 0
BBX 9 9 0 -1
BITMAP
3E00
4100
AE80
AA80
AE80
A280
AE80
4100
3E00
ENDCHAR
STARTCHAR uni2473
ENCODING 9331
SWIDTH 960 0
DWIDTH 10 0
BBX 9 9 0 -1
BITMAP
3E00
4100
B480
8A80
9A80
AA80
B480
4100
3E00
ENDCHAR
STARTCHAR uni2474
ENCODING 9332
SWIDTH 960 0
DWIDTH 10 0
BBX 9 9 0 -1
BITMAP
4100
8080
8880
9880
8880
8880
9C80
8080
4100
ENDCHAR
STARTCHAR uni2475
ENCODING 9333
SWIDTH 960 0
DWIDTH 10 0
BBX 9 9 0 -1
BITMAP
4100
8080
9C80
8480
9C80
9080
9C80
8080
4100
ENDCHAR
STARTCHAR uni2476
ENCODING 9334
SWIDTH 960 0
DWIDTH 10 0
BBX 9 9 0 -1
BITMAP
4100
8080
9C80
8480
9C80
8480
9C80
8080
4100
ENDCHAR
STARTCHAR uni2477
ENCODING 9335
SWIDTH 960 0
DWIDTH 10 0
BBX 9 9 0 -1
BITMAP
4100
8080
8C80
9480
9480
9C80
8480
8080
4100
ENDCHAR
STARTCHAR uni2478
ENCODING 9336
SWIDTH 960 0
DWIDTH 10 0
BBX 9 9 0 -1
BITMAP
4100
8080
9C80
9080
9C80
8480
9C80
8080
4100
ENDCHAR
STARTCHAR uni2479
ENCODING 9337
SWIDTH 960 0
DWIDTH 10 0
BBX 9 9 0 -1
BITMAP
4100
8080
9C80
9080
9C80
9480
9C80
8080
4100
ENDCHAR
STARTCHAR uni247A
ENCODING 9338
SWIDTH 960 0
DWIDTH 10 0
BBX 9 9 0 -1
BITMAP
4100
8080
9C80
8480
8880
8880
8880
8080
4100
ENDCHAR
STARTCHAR uni247B
ENCODING 9339
SWIDTH 960 0
DWIDTH 10 0
BBX 9 9 0 -1
BITMAP
4100
8080
9C80
9480
9C80
9480
9C80
8080
4100
ENDCHAR
STARTCHAR uni247C
ENCODING 9340
SWIDTH 960 0
DWIDTH 10 0
BBX 9 9 0 -1
BITMAP
4100
8080
9C80
9480
9C80
8480
9C80
8080
4100
ENDCHAR
STARTCHAR uni247D
ENCODING 9341
SWIDTH 960 0
DWIDTH 10 0
BBX 9 9 0 -1
BITMAP
4100
8080
AE80
AA80
AA80
AA80
AE80
8080
4100
ENDCHAR
STARTCHAR uni247E
ENCODING 9342
SWIDTH 960 0
DWIDTH 10 0
BBX 9 9 0 -1
BITMAP
4100
8080
9280
B680
9280
9280
9280
8080
4100
ENDCHAR
STARTCHAR uni247F
ENCODING 9343
SWIDTH 960 0
DWIDTH 10 0
BBX 9 9 0 -1
BITMAP
4100
8080
AE80
A280
AE80
A880
AE80
8080
4100
ENDCHAR
STARTCHAR uni2480
ENCODING 9344
SWIDTH 960 0
DWIDTH 10 0
BBX 9 9 0 -1
BITMAP
4100
8080
AE80
A280
AE80
A280
AE80
8080
4100
ENDCHAR
STARTCHAR uni2481
ENCODING 9345
SWIDTH 960 0
DWIDTH 10 0
BBX 9 9 0 -1
BITMAP
4100
8080
A680
AA80
AA80
AE80
A280
8080
4100
ENDCHAR
STARTCHAR uni2482
ENCODING 9346
SWIDTH 960 0
DWIDTH 10 0
BBX 9 9 0 -1
BITMAP
4100
8080
AE80
A880
AE80
A280
AE80
8080
4100
ENDCHAR
STARTCHAR uni2483
ENCODING 9347
SWIDTH 960 0
DWIDTH 10 0
BBX 9 9 0 -1
BITMAP
4100
8080
AE80
A880
AE80
AA80
AE80
8080
4100
ENDCHAR
STARTCHAR uni2484
ENCODING 9348
SWIDTH 960 0
DWIDTH 10 0
BBX 9 9 0 -1
BITMAP
4100
8080
AE80
A280
A480
A480
A480
8080
4100
ENDCHAR
STARTCHAR uni2485
ENCODING 9349
SWIDTH 960 0
DWIDTH 10 0
BBX 9 9 0 -1
BITMAP
4100
8080
AE80
AA80
AE80
AA80
AE80
8080
4100
ENDCHAR
STARTCHAR uni2486
ENCODING 9350
SWIDTH 960 0
DWIDTH 10 0
BBX 9 9 0 -1
BITMAP
4100
8080
AE80
AA80
AE80
A280
AE80
8080
4100
ENDCHAR
STARTCHAR uni2487
ENCODING 9351
SWIDTH 960 0
DWIDTH 10 0
BBX 9 9 0 -1
BITMAP
4100
8080
B480
8A80
9A80
AA80
B480
8080
4100
ENDCHAR
STARTCHAR uni2488
ENCODING 9352
SWIDTH 960 0
DWIDTH 10 0
BBX 5 7 3 0
BITMAP
40
C0
40
40
40
40
E8
ENDCHAR
STARTCHAR uni2489
ENCODING 9353
SWIDTH 960 0
DWIDTH 10 0
BBX 6 7 2 0
BITMAP
60
90
10
20
40
80
F4
ENDCHAR
STARTCHAR uni248A
ENCODING 9354
SWIDTH 960 0
DWIDTH 10 0
BBX 6 7 2 0
BITMAP
60
90
10
20
10
90
64
ENDCHAR
STARTCHAR uni248B
ENCODING 9355
SWIDTH 960 0
DWIDTH 10 0
BBX 6 7 2 0
BITMAP
30
50
50
90
90
F0
14
ENDCHAR
STARTCHAR uni248C
ENCODING 9356
SWIDTH 960 0
DWIDTH 10 0
BBX 6 7 2 0
BITMAP
F0
80
80
E0
10
10
E4
ENDCHAR
STARTCHAR uni248D
ENCODING 9357
SWIDTH 960 0
DWIDTH 10 0
BBX 6 7 2 0
BITMAP
60
90
80
E0
90
90
64
ENDCHAR
STARTCHAR uni248E
ENCODING 9358
SWIDTH 960 0
DWIDTH 10 0
BBX 6 7 2 0
BITMAP
F0
10
10
20
20
20
24
ENDCHAR
STARTCHAR uni248F
ENCODING 9359
SWIDTH 960 0
DWIDTH 10 0
BBX 6 7 2 0
BITMAP
60
90
90
60
90
90
64
ENDCHAR
STARTCHAR uni2490
ENCODING 9360
SWIDTH 960 0
DWIDTH 10 0
BBX 6 7 2 0
BITMAP
60
90
90
70
10
90
64
ENDCHAR
STARTCHAR uni2491
ENCODING 9361
SWIDTH 960 0
DWIDTH 10 0
BBX 9 7 0 0
BITMAP
4C00
D200
5200
5200
5200
5200
EC80
ENDCHAR
STARTCHAR uni2492
ENCODING 9362
SWIDTH 960 0
DWIDTH 10 0
BBX 9 7 0 0
BITMAP
4400
CC00
4400
4400
4400
4400
EE80
ENDCHAR
STARTCHAR uni2493
ENCODING 9363
SWIDTH 960 0
DWIDTH 10 0
BBX 9 7 0 0
BITMAP
4C00
D200
4200
4400
4800
5000
5E80
ENDCHAR
STARTCHAR uni2494
ENCODING 9364
SWIDTH 960 0
DWIDTH 10 0
BBX 9 7 0 0
BITMAP
4C00
D200
4200
4400
4200
5200
EC80
ENDCHAR
STARTCHAR uni2495
ENCODING 9365
SWIDTH 960 0
DWIDTH 10 0
BBX 9 7 0 0
BITMAP
4600
CA00
4A00
5200
5200
5E00
E280
ENDCHAR
STARTCHAR uni2496
ENCODING 9366
SWIDTH 960 0
DWIDTH 10 0
BBX 9 7 0 0
BITMAP
5E00
D000
5000
5C00
4200
4200
5C80
ENDCHAR
STARTCHAR uni2497
ENCODING 9367
SWIDTH 960 0
DWIDTH 10 0
BBX 9 7 0 0
BITMAP
4C00
D200
5000
5C00
5200
5200
EC80
ENDCHAR
STARTCHAR uni2498
ENCODING 9368
SWIDTH 960 0
DWIDTH 10 0
BBX 9 7 0 0
BITMAP
5E00
C200
4200
4400
4400
4400
E480
ENDCHAR
STARTCHAR uni2499
ENCODING 9369
SWIDTH 960 0
DWIDTH 10 0
BBX 9 7 0 0
BITMAP
4C00
D200
5200
4C00
5200
5200
EC80
ENDCHAR
STARTCHAR uni249A
ENCODING 9370
SWIDTH 960 0
DWIDTH 10 0
BBX 9 7 0 0
BITMAP
4C00
D200
5200
4E00
4200
5200
EC80
ENDCHAR
STARTCHAR uni249B
ENCODING 9371
SWIDTH 960 0
DWIDTH 10 0
BBX 9 7 0 0
BITMAP
4400
AA00
2A00
4A00
4A00
8A00
E480
ENDCHAR
STARTCHAR uni249C
ENCODING 9372
SWIDTH 960 0
DWIDTH 10 0
BBX 9 9 0 -1
BITMAP
4100
8080
9880
8480
9C80
A480
9C80
8080
4100
ENDCHAR
STARTCHAR uni249D
ENCODING 9373
SWIDTH 960 0
DWIDTH 10 0
BBX 9 9 0 -1
BITMAP
4100
8080
9080
9C80
9280
9280
9C80
8080
4100
ENDCHAR
STARTCHAR uni249E
ENCODING 9374
SWIDTH 960 0
DWIDTH 10 0
BBX 9 9 0 -1
BITMAP
4100
8080
8080
9C80
A080
A080
9C80
8080
4100
ENDCHAR
STARTCHAR uni249F
ENCODING 9375
SWIDTH 960 0
DWIDTH 10 0
BBX 9 9 0 -1
BITMAP
4100
8080
8480
9C80
A480
A480
9C80
8080
4100
ENDCHAR
STARTCHAR uni24A0
ENCODING 9376
SWIDTH 960 0
DWIDTH 10 0
BBX 9 9 0 -1
BITMAP
4100
8080
9880
A480
BC80
A080
9880
8080
4100
ENDCHAR
STARTCHAR uni24A1
ENCODING 9377
SWIDTH 960 0
DWIDTH 10 0
BBX 9 9 0 -1
BITMAP
4100
8080
8C80
9080
BC80
9080
9080
8080
4100
ENDCHAR
STARTCHAR uni24A2
ENCODING 9378
SWIDTH 960 0
DWIDTH 10 0
BBX 9 9 0 -1
BITMAP
4100
8080
9C80
A480
A480
9C80
8480
9880
4100
ENDCHAR
STARTCHAR uni24A3
ENCODING 9379
SWIDTH 960 0
DWIDTH 10 0
BBX 9 9 0 -1
BITMAP
4100
8080
9080
9C80
9280
9280
9280
8080
4100
ENDCHAR
STARTCHAR uni24A4
ENCODING 9380
SWIDTH 960 0
DWIDTH 10 0
BBX 9 9 0 -1
BITMAP
4100
8080
8880
8080
9880
8880
9C80
8080
4100
ENDCHAR
STARTCHAR uni24A5
ENCODING 9381
SWIDTH 960 0
DWIDTH 10 0
BBX 9 9 0 -1
BITMAP
4100
8480
8080
9C80
8480
8480
8480
9880
4100
ENDCHAR
STARTCHAR uni24A6
ENCODING 9382
SWIDTH 960 0
DWIDTH 10 0
BBX 9 9 0 -1
BITMAP
4100
8080
9080
9680
9880
9480
9280
8080
4100
ENDCHAR
STARTCHAR uni24A7
ENCODING 9383
SWIDTH 960 0
DWIDTH 10 0
BBX 9 9 0 -1
BITMAP
4100
8080
9880
8880
8880
8880
8C80
8080
4100
ENDCHAR
STARTCHAR uni24A8
ENCODING 9384
SWIDTH 960 0
DWIDTH 10 0
BBX 9 9 0 -1
BITMAP
4100
8080
8080
B480
AA80
AA80
AA80
8080
4100
ENDCHAR
STARTCHAR uni24A9
ENCODING 9385
SWIDTH 960 0
DWIDTH 10 0
BBX 9 9 0 -1
BITMAP
4100
8080
8080
9C80
9280
9280
9280
8080
4100
ENDCHAR
STARTCHAR uni24AA
ENCODING 9386
SWIDTH 960 0
DWIDTH 10 0
BBX 9 9 0 -1
BITMAP
4100
8080
8080
8C80
9280
9280
8C80
8080
4100
ENDCHAR
STARTCHAR uni24AB
ENCODING 9387
SWIDTH 960 0
DWIDTH 10 0
BBX 9 9 0 -1
BITMAP
4100
8080
8080
9C80
9280
9280
9C80
9080
4100
ENDCHAR
STARTCHAR uni24AC
ENCODING 9388
SWIDTH 960 0
DWIDTH 10 0
BBX 9 9 0 -1
BITMAP
4100
8080
8080
9C80
A480
A480
9C80
8480
4100
ENDCHAR
STARTCHAR uni24AD
ENCODING 9389
SWIDTH 960 0
DWIDTH 10 0
BBX 9 9 0 -1
BITMAP
4100
8080
8080
9480
9880
9080
9080
8080
4100
ENDCHAR
STARTCHAR uni24AE
ENCODING 9390
SWIDTH 960 0
DWIDTH 10 0
BBX 9 9 0 -1
BITMAP
4100
8080
8080
8E80
9880
8680
9C80
8080
4100
ENDCHAR
STARTCHAR uni24AF
ENCODING 9391
SWIDTH 960 0
DWIDTH 10 0
BBX 9 9 0 -1
BITMAP
4100
8080
9080
BC80
9080
9080
8C80
8080
4100
ENDCHAR
STARTCHAR uni24B0
ENCODING 9392
SWIDTH 960 0
DWIDTH 10 0
BBX 9 9 0 -1
BITMAP
4100
8080
8080
A480
A480
A480
9C80
8080
4100
ENDCHAR
STARTCHAR uni24B1
ENCODING 9393
SWIDTH 960 0
DWIDTH 10 0
BBX 9 9 0 -1
BITMAP
4100
8080
8080
9280
9280
9480
9880
8080
4100
ENDCHAR
STARTCHAR uni24B2
ENCODING 9394
SWIDTH 960 0
DWIDTH 10 0
BBX 9 9 0 -1
BITMAP
4100
8080
8080
8080
AA80
AA80
9480
8080
4100
ENDCHAR
STARTCHAR uni24B3
ENCODING 9395
SWIDTH 960 0
DWIDTH 10 0
BBX 9 9 0 -1
BITMAP
4100
8080
8080
A280
9480
8880
B680
8080
4100
ENDCHAR
STARTCHAR uni24B4
ENCODING 9396
SWIDTH 960 0
DWIDTH 10 0
BBX 9 9 0 -1
BITMAP
4100
8080
8080
9280
9280
8A80
8480
9880
4100
ENDCHAR
STARTCHAR uni24B5
ENCODING 9397
SWIDTH 960 0
DWIDTH 10 0
BBX 9 9 0 -1
BITMAP
4100
8080
8080
9E80
8480
8880
9E80
8080
4100
ENDCHAR
STARTCHAR uni24B6
ENCODING 9398
SWIDTH 960 0
DWIDTH 10 0
BBX 9 9 0 -1
BITMAP
3E00
4100
8880
9480
9480
BE80
A280
4100
3E00
ENDCHAR
STARTCHAR uni24B7
ENCODING 9399
SWIDTH 960 0
DWIDTH 10 0
BBX 9 9 0 -1
BITMAP
3E00
4100
BC80
A280
BC80
A280
BC80
4100
3E00
ENDCHAR
STARTCHAR uni24B8
ENCODING 9400
SWIDTH 960 0
DWIDTH 10 0
BBX 9 9 0 -1
BITMAP
3E00
4100
9C80
A280
A080
A280
9C80
4100
3E00
ENDCHAR
STARTCHAR uni24B9
ENCODING 9401
SWIDTH 960 0
DWIDTH 10 0
BBX 9 9 0 -1
BITMAP
3E00
4100
BC80
A280
A280
A280
BC80
4100
3E00
ENDCHAR
STARTCHAR uni24BA
ENCODING 9402
SWIDTH 960 0
DWIDTH 10 0
BBX 9 9 0 -1
BITMAP
3E00
4100
BE80
A080
BC80
A080
BE80
4100
3E00
ENDCHAR
STARTCHAR uni24BB
ENCODING 9403
SWIDTH 960 0
DWIDTH 10 0
BBX 9 9 0 -1
BITMAP
3E00
4100
BE80
A080
BC80
A080
A080
4100
3E00
ENDCHAR
STARTCHAR uni24BC
ENCODING 9404
SWIDTH 960 0
DWIDTH 10 0
BBX 9 9 0 -1
BITMAP
3E00
4100
9E80
A080
A680
A280
9E80
4100
3E00
ENDCHAR
STARTCHAR uni24BD
ENCODING 9405
SWIDTH 960 0
DWIDTH 10 0
BBX 9 9 0 -1
BITMAP
3E00
4100
A280
A280
BE80
A280
A280
4100
3E00
ENDCHAR
STARTCHAR uni24BE
ENCODING 9406
SWIDTH 960 0
DWIDTH 10 0
BBX 9 9 0 -1
BITMAP
3E00
4100
9C80
8880
8880
8880
9C80
4100
3E00
ENDCHAR
STARTCHAR uni24BF
ENCODING 9407
SWIDTH 960 0
DWIDTH 10 0
BBX 9 9 0 -1
BITMAP
3E00
4100
8280
8280
8280
A280
9C80
4100
3E00
ENDCHAR
STARTCHAR uni24C0
ENCODING 9408
SWIDTH 960 0
DWIDTH 10 0
BBX 9 9 0 -1
BITMAP
3E00
4100
A280
AC80
B080
AC80
A280
4100
3E00
ENDCHAR
STARTCHAR uni24C1
ENCODING 9409
SWIDTH 960 0
DWIDTH 10 0
BBX 9 9 0 -1
BITMAP
3E00
4100
A080
A080
A080
A080
BE80
4100
3E00
ENDCHAR
STARTCHAR uni24C2
ENCODING 9410
SWIDTH 960 0
DWIDTH 10 0
BBX 9 9 0 -1
BITMAP
3E00
4100
A280
B680
AA80
A280
A280
4100
3E00
ENDCHAR
STARTCHAR uni24C3
ENCODING 9411
SWIDTH 960 0
DWIDTH 10 0
BBX 9 9 0 -1
BITMAP
3E00
4100
A280
B280
AA80
A680
A280
4100
3E00
ENDCHAR
STARTCHAR uni24C4
ENCODING 9412
SWIDTH 960 0
DWIDTH 10 0
BBX 9 9 0 -1
BITMAP
3E00
4100
9C80
A280
A280
A280
9C80
4100
3E00
ENDCHAR
STARTCHAR uni24C5
ENCODING 9413
SWIDTH 960 0
DWIDTH 10 0
BBX 9 9 0 -1
BITMAP
3E00
4100
BC80
A280
A280
BC80
A080
4100
3E00
ENDCHAR
STARTCHAR uni24C6
ENCODING 9414
SWIDTH 960 0
DWIDTH 10 0
BBX 9 9 0 -1
BITMAP
3E00
4100
9C80
A280
A280
A480
9A80
4100
3E00
ENDCHAR
STARTCHAR uni24C7
ENCODING 9415
SWIDTH 960 0
DWIDTH 10 0
BBX 9 9 0 -1
BITMAP
3E00
4100
BC80
A280
BC80
A480
A280
4100
3E00
ENDCHAR
STARTCHAR uni24C8
ENCODING 9416
SWIDTH 960 0
DWIDTH 10 0
BBX 9 9 0 -1
BITMAP
3E00
4100
9E80
A080
9C80
8280
BC80
4100
3E00
ENDCHAR
STARTCHAR uni24C9
ENCODING 9417
SWIDTH 960 0
DWIDTH 10 0
BBX 9 9 0 -1
BITMAP
3E00
4100
BE80
8880
8880
8880
8880
4100
3E00
ENDCHAR
STARTCHAR uni24CA
ENCODING 9418
SWIDTH 960 0
DWIDTH 10 0
BBX 9 9 0 -1
BITMAP
3E00
4100
A280
A280
A280
A280
9C80
4100
3E00
ENDCHAR
STARTCHAR uni24CB
ENCODING 9419
SWIDTH 960 0
DWIDTH 10 0
BBX 9 9 0 -1
BITMAP
3E00
4100
A280
A280
9480
9480
8880
4100
3E00
ENDCHAR
STARTCHAR uni24CC
ENCODING 9420
SWIDTH 960 0
DWIDTH 10 0
BBX 9 9 0 -1
BITMAP
3E00
4100
AA80
AA80
AA80
9480
9480
4100
3E00
ENDCHAR
STARTCHAR uni24CD
ENCODING 9421
SWIDTH 960 0
DWIDTH 10 0
BBX 9 9 0 -1
BITMAP
3E00
4100
A280
9480
8880
9480
A280
4100
3E00
ENDCHAR
STARTCHAR uni24CE
ENCODING 9422
SWIDTH 960 0
DWIDTH 10 0
BBX 9 9 0 -1
BITMAP
3E00
4100
A280
9480
8880
8880
8880
4100
3E00
ENDCHAR
STARTCHAR uni24CF
ENCODING 9423
SWIDTH 960 0
DWIDTH 10 0
BBX 9 9 0 -1
BITMAP
3E00
4100
BE80
8480
8880
9080
BE80
4100
3E00
ENDCHAR
STARTCHAR uni24D0
ENCODING 9424
SWIDTH 960 0
DWIDTH 10 0
BBX 9 9 0 -1
BITMAP
3E00
4100
9880
8480
9C80
A480
9C80
4100
3E00
ENDCHAR
STARTCHAR uni24D1
ENCODING 9425
SWIDTH 960 0
DWIDTH 10 0
BBX 9 9 0 -1
BITMAP
3E00
4100
9080
9C80
9280
9280
9C80
4100
3E00
ENDCHAR
STARTCHAR uni24D2
ENCODING 9426
SWIDTH 960 0
DWIDTH 10 0
BBX 9 9 0 -1
BITMAP
3E00
4100
8080
9C80
A080
A080
9C80
4100
3E00
ENDCHAR
STARTCHAR uni24D3
ENCODING 9427
SWIDTH 960 0
DWIDTH 10 0
BBX 9 9 0 -1
BITMAP
3E00
4100
8480
9C80
A480
A480
9C80
4100
3E00
ENDCHAR
STARTCHAR uni24D4
ENCODING 9428
SWIDTH 960 0
DWIDTH 10 0
BBX 9 9 0 -1
BITMAP
3E00
4100
9880
A480
BC80
A080
9880
4100
3E00
ENDCHAR
STARTCHAR uni24D5
ENCODING 9429
SWIDTH 960 0
DWIDTH 10 0
BBX 9 9 0 -1
BITMAP
3E00
4100
8C80
9080
BC80
9080
9080
4100
3E00
ENDCHAR
STARTCHAR uni24D6
ENCODING 9430
SWIDTH 960 0
DWIDTH 10 0
BBX 9 9 0 -1
BITMAP
3E00
4100
9C80
A480
A480
9C80
8480
5900
3E00
ENDCHAR
STARTCHAR uni24D7
ENCODING 9431
SWIDTH 960 0
DWIDTH 10 0
BBX 9 9 0 -1
BITMAP
3E00
4100
9080
9C80
9280
9280
9280
4100
3E00
ENDCHAR
STARTCHAR uni24D8
ENCODING 9432
SWIDTH 960 0
DWIDTH 10 0
BBX 9 9 0 -1
BITMAP
3E00
4100
8880
8080
9880
8880
9C80
4100
3E00
ENDCHAR
STARTCHAR uni24D9
ENCODING 9433
SWIDTH 960 0
DWIDTH 10 0
BBX 9 9 0 -1
BITMAP
3E00
4500
8080
9C80
8480
8480
8480
5900
3E00
ENDCHAR
STARTCHAR uni24DA
ENCODING 9434
SWIDTH 960 0
DWIDTH 10 0
BBX 9 9 0 -1
BITMAP
3E00
4100
9080
9680
9880
9480
9280
4100
3E00
ENDCHAR
STARTCHAR uni24DB
ENCODING 9435
SWIDTH 960 0
DWIDTH 10 0
BBX 9 9 0 -1
BITMAP
3E00
4100
9880
8880
8880
8880
8C80
4100
3E00
ENDCHAR
STARTCHAR uni24DC
ENCODING 9436
SWIDTH 960 0
DWIDTH 10 0
BBX 9 9 0 -1
BITMAP
3E00
4100
8080
B480
AA80
AA80
AA80
4100
3E00
ENDCHAR
STARTCHAR uni24DD
ENCODING 9437
SWIDTH 960 0
DWIDTH 10 0
BBX 9 9 0 -1
BITMAP
3E00
4100
8080
9C80
9280
9280
9280
4100
3E00
ENDCHAR
STARTCHAR uni24DE
ENCODING 9438
SWIDTH 960 0
DWIDTH 10 0
BBX 9 9 0 -1
BITMAP
3E00
4100
8080
8C80
9280
9280
8C80
4100
3E00
ENDCHAR
STARTCHAR uni24DF
ENCODING 9439
SWIDTH 960 0
DWIDTH 10 0
BBX 9 9 0 -1
BITMAP
3E00
4100
8080
9C80
9280
9280
9C80
5100
3E00
ENDCHAR
STARTCHAR uni24E0
ENCODING 9440
SWIDTH 960 0
DWIDTH 10 0
BBX 9 9 0 -1
BITMAP
3E00
4100
8080
9C80
A480
A480
9C80
4500
3E00
ENDCHAR
STARTCHAR uni24E1
ENCODING 9441
SWIDTH 960 0
DWIDTH 10 0
BBX 9 9 0 -1
BITMAP
3E00
4100
8080
9480
9880
9080
9080
4100
3E00
ENDCHAR
STARTCHAR uni24E2
ENCODING 9442
SWIDTH 960 0
DWIDTH 10 0
BBX 9 9 0 -1
BITMAP
3E00
4100
8080
8E80
9880
8680
9C80
4100
3E00
ENDCHAR
STARTCHAR uni24E3
ENCODING 9443
SWIDTH 960 0
DWIDTH 10 0
BBX 9 9 0 -1
BITMAP
3E00
4100
9080
BC80
9080
9080
8C80
4100
3E00
ENDCHAR
STARTCHAR uni24E4
ENCODING 9444
SWIDTH 960 0
DWIDTH 10 0
BBX 9 9 0 -1
BITMAP
3E00
4100
8080
A480
A480
A480
9C80
4100
3E00
ENDCHAR
STARTCHAR uni24E5
ENCODING 9445
SWIDTH 960 0
DWIDTH 10 0
BBX 9 9 0 -1
BITMAP
3E00
4100
8080
9280
9280
9480
9880
4100
3E00
ENDCHAR
STARTCHAR uni24E6
ENCODING 9446
SWIDTH 960 0
DWIDTH 10 0
BBX 9 9 0 -1
BITMAP
3E00
4100
8080
8080
AA80
AA80
9480
4100
3E00
ENDCHAR
STARTCHAR uni24E7
ENCODING 9447
SWIDTH 960 0
DWIDTH 10 0
BBX 9 9 0 -1
BITMAP
3E00
4100
8080
A280
9480
8880
B680
4100
3E00
ENDCHAR
STARTCHAR uni24E8
ENCODING 9448
SWIDTH 960 0
DWIDTH 10 0
BBX 9 9 0 -1
BITMAP
3E00
4100
8080
9280
9280
8A80
8480
5900
3E00
ENDCHAR
STARTCHAR uni24E9
ENCODING 9449
SWIDTH 960 0
DWIDTH 10 0
BBX 9 9 0 -1
BITMAP
3E00
4100
8080
9E80
8480
8880
9E80
4100
3E00
ENDCHAR
STARTCHAR uni24EA
ENCODING 9450
SWIDTH 960 0
DWIDTH 10 0
BBX 9 9 0 -1
BITMAP
3E00
4100
9C80
9480
9480
9480
9C80
4100
3E00
ENDCHAR
STARTCHAR uni24EB
ENCODING 9451
SWIDTH 960 0
DWIDTH 10 0
BBX 9 9 0 -1
BITMAP
3E00
7F00
ED80
C980
ED80
ED80
ED80
7F00
3E00
ENDCHAR
STARTCHAR uni24EC
ENCODING 9452
SWIDTH 960 0
DWIDTH 10 0
BBX 9 9 0 -1
BITMAP
3E00
7F00
D180
DD80
D180
D780
D180
7F00
3E00
ENDCHAR
STARTCHAR uni24ED
ENCODING 9453
SWIDTH 960 0
DWIDTH 10 0
BBX 9 9 0 -1
BITMAP
3E00
7F00
D180
DD80
D180
DD80
D180
7F00
3E00
ENDCHAR
STARTCHAR uni24EE
ENCODING 9454
SWIDTH 960 0
DWIDTH 10 0
BBX 9 9 0 -1
BITMAP
3E00
7F00
D980
D580
D580
D180
DD80
7F00
3E00
ENDCHAR
STARTCHAR uni24EF
ENCODING 9455
SWIDTH 960 0
DWIDTH 10 0
BBX 9 9 0 -1
BITMAP
3E00
7F00
D180
D780
D180
DD80
D180
7F00
3E00
ENDCHAR
STARTCHAR uni24F0
ENCODING 9456
SWIDTH 960 0
DWIDTH 10 0
BBX 9 9 0 -1
BITMAP
3E00
7F00
D180
D780
D180
D580
D180
7F00
3E00
ENDCHAR
STARTCHAR uni24F1
ENCODING 9457
SWIDTH 960 0
DWIDTH 10 0
BBX 9 9 0 -1
BITMAP
3E00
7F00
D180
DD80
DB80
DB80
DB80
7F00
3E00
ENDCHAR
STARTCHAR uni24F2
ENCODING 9458
SWIDTH 960 0
DWIDTH 10 0
BBX 9 9 0 -1
BITMAP
3E00
7F00
D180
D580
D180
D580
D180
7F00
3E00
ENDCHAR
STARTCHAR uni24F3
ENCODING 9459
SWIDTH 960 0
DWIDTH 10 0
BBX 9 9 0 -1
BITMAP
3E00
7F00
D180
D580
D180
DD80
D180
7F00
3E00
ENDCHAR
STARTCHAR uni24F4
ENCODING 9460
SWIDTH 960 0
DWIDTH 10 0
BBX 9 9 0 -1
BITMAP
3E00
7F00
CB80
F580
E580
D580
CB80
7F00
3E00
ENDCHAR
STARTCHAR uni24F5
ENCODING 9461
SWIDTH 960 0
DWIDTH 10 0
BBX 9 9 0 -1
BITMAP
BE80
4100
8880
9880
8880
8880
9C80
4100
BE80
ENDCHAR
STARTCHAR uni24F6
ENCODING 9462
SWIDTH 960 0
DWIDTH 10 0
BBX 9 9 0 -1
BITMAP
BE80
4100
9C80
8480
9C80
9080
9C80
4100
BE80
ENDCHAR
STARTCHAR uni24F7
ENCODING 9463
SWIDTH 960 0
DWIDTH 10 0
BBX 9 9 0 -1
BITMAP
BE80
4100
9C80
8480
9C80
8480
9C80
4100
BE80
ENDCHAR
STARTCHAR uni24F8
ENCODING 9464
SWIDTH 960 0
DWIDTH 10 0
BBX 9 9 0 -1
BITMAP
BE80
4100
8C80
9480
9480
9C80
8480
4100
BE80
ENDCHAR
STARTCHAR uni24F9
ENCODING 9465
SWIDTH 960 0
DWIDTH 10 0
BBX 9 9 0 -1
BITMAP
BE80
4100
9C80
9080
9C80
8480
9C80
4100
BE80
ENDCHAR
STARTCHAR uni24FA
ENCODING 9466
SWIDTH 960 0
DWIDTH 10 0
BBX 9 9 0 -1
BITMAP
BE80
4100
9C80
9080
9C80
9480
9C80
4100
BE80
ENDCHAR
STARTCHAR uni24FB
ENCODING 9467
SWIDTH 960 0
DWIDTH 10 0
BBX 9 9 0 -1
BITMAP
BE80
4100
9C80
8480
8880
8880
8880
4100
BE80
ENDCHAR
STARTCHAR uni24FC
ENCODING 9468
SWIDTH 960 0
DWIDTH 10 0
BBX 9 9 0 -1
BITMAP
BE80
4100
9C80
9480
9C80
9480
9C80
4100
BE80
ENDCHAR
STARTCHAR uni24FD
ENCODING 9469
SWIDTH 960 0
DWIDTH 10 0
BBX 9 9 0 -1
BITMAP
BE80
4100
9C80
9480
9C80
8480
9C80
4100
BE80
ENDCHAR
STARTCHAR uni24FE
ENCODING 9470
SWIDTH 960 0
DWIDTH 10 0
BBX 9 9 0 -1
BITMAP
BE80
4100
AE80
AA80
AA80
AA80
AE80
4100
BE80
ENDCHAR
STARTCHAR uni24FF
ENCODING 9471
SWIDTH 960 0
DWIDTH 10 0
BBX 9 9 0 -1
BITMAP
3E00
7F00
E380
EB80
EB80
EB80
E380
7F00
3E00
ENDCHAR
STARTCHAR uni2500
ENCODING 9472
SWIDTH 960 0
DWIDTH 10 0
BBX 10 1 0 3
BITMAP
FFC0
ENDCHAR
STARTCHAR uni2501
ENCODING 9473
SWIDTH 960 0
DWIDTH 10 0
BBX 10 3 0 2
BITMAP
FFC0
FFC0
FFC0
ENDCHAR
STARTCHAR uni2502
ENCODING 9474
SWIDTH 960 0
DWIDTH 10 0
BBX 1 10 4 -1
BITMAP
80
80
80
80
80
80
80
80
80
80
ENDCHAR
STARTCHAR uni2503
ENCODING 9475
SWIDTH 960 0
DWIDTH 10 0
BBX 3 10 3 -1
BITMAP
E0
E0
E0
E0
E0
E0
E0
E0
E0
E0
ENDCHAR
STARTCHAR uni2504
ENCODING 9476
SWIDTH 960 0
DWIDTH 10 0
BBX 9 1 0 3
BITMAP
DD80
ENDCHAR
STARTCHAR uni2505
ENCODING 9477
SWIDTH 960 0
DWIDTH 10 0
BBX 9 3 0 2
BITMAP
DD80
DD80
DD80
ENDCHAR
STARTCHAR uni2506
ENCODING 9478
SWIDTH 960 0
DWIDTH 10 0
BBX 1 9 4 -1
BITMAP
80
80
00
80
80
80
00
80
80
ENDCHAR
STARTCHAR uni2507
ENCODING 9479
SWIDTH 960 0
DWIDTH 10 0
BBX 3 9 3 -1
BITMAP
E0
E0
00
E0
E0
E0
00
E0
E0
ENDCHAR
STARTCHAR uni2508
ENCODING 9480
SWIDTH 960 0
DWIDTH 10 0
BBX 9 1 0 3
BITMAP
D680
ENDCHAR
STARTCHAR uni2509
ENCODING 9481
SWIDTH 960 0
DWIDTH 10 0
BBX 9 3 0 2
BITMAP
D680
D680
D680
ENDCHAR
STARTCHAR uni250A
ENCODING 9482
SWIDTH 960 0
DWIDTH 10 0
BBX 1 9 4 -1
BITMAP
80
00
80
80
00
80
00
80
80
ENDCHAR
STARTCHAR uni250B
ENCODING 9483
SWIDTH 960 0
DWIDTH 10 0
BBX 3 9 3 -1
BITMAP
E0
00
E0
E0
00
E0
00
E0
E0
ENDCHAR
STARTCHAR uni250C
ENCODING 9484
SWIDTH 960 0
DWIDTH 10 0
BBX 6 5 4 -1
BITMAP
FC
80
80
80
80
ENDCHAR
STARTCHAR uni250D
ENCODING 9485
SWIDTH 960 0
DWIDTH 10 0
BBX 6 6 4 -1
BITMAP
FC
FC
FC
80
80
80
ENDCHAR
STARTCHAR uni250E
ENCODING 9486
SWIDTH 960 0
DWIDTH 10 0
BBX 7 5 3 -1
BITMAP
FE
E0
E0
E0
E0
ENDCHAR
STARTCHAR uni250F
ENCODING 9487
SWIDTH 960 0
DWIDTH 10 0
BBX 7 6 3 -1
BITMAP
FE
FE
FE
E0
E0
E0
ENDCHAR
STARTCHAR uni2510
ENCODING 9488
SWIDTH 960 0
DWIDTH 10 0
BBX 5 5 0 -1
BITMAP
F8
08
08
08
08
ENDCHAR
STARTCHAR uni2511
ENCODING 9489
SWIDTH 960 0
DWIDTH 10 0
BBX 5 6 0 -1
BITMAP
F8
F8
F8
08
08
08
ENDCHAR
STARTCHAR uni2512
ENCODING 9490
SWIDTH 960 0
DWIDTH 10 0
BBX 6 5 0 -1
BITMAP
FC
1C
1C
1C
1C
ENDCHAR
STARTCHAR uni2513
ENCODING 9491
SWIDTH 960 0
DWIDTH 10 0
BBX 6 6 0 -1
BITMAP
FC
FC
FC
1C
1C
1C
ENDCHAR
STARTCHAR uni2514
ENCODING 9492
SWIDTH 960 0
DWIDTH 10 0
BBX 6 6 4 3
BITMAP
80
80
80
80
80
FC
ENDCHAR
STARTCHAR uni2515
ENCODING 9493
SWIDTH 960 0
DWIDTH 10 0
BBX 6 7 4 2
BITMAP
80
80
80
80
FC
FC
FC
ENDCHAR
STARTCHAR uni2516
ENCODING 9494
SWIDTH 960 0
DWIDTH 10 0
BBX 7 6 3 3
BITMAP
E0
E0
E0
E0
E0
FE
ENDCHAR
STARTCHAR uni2517
ENCODING 9495
SWIDTH 960 0
DWIDTH 10 0
BBX 7 7 3 2
BITMAP
E0
E0
E0
E0
FE
FE
FE
ENDCHAR
STARTCHAR uni2518
ENCODING 9496
SWIDTH 960 0
DWIDTH 10 0
BBX 5 6 0 3
BITMAP
08
08
08
08
08
F8
ENDCHAR
STARTCHAR uni2519
ENCODING 9497
SWIDTH 960 0
DWIDTH 10 0
BBX 5 7 0 2
BITMAP
08
08
08
08
F8
F8
F8
ENDCHAR
STARTCHAR uni251A
ENCODING 9498
SWIDTH 960 0
DWIDTH 10 0
BBX 6 6 0 3
BITMAP
1C
1C
1C
1C
1C
FC
ENDCHAR
STARTCHAR uni251B
ENCODING 9499
SWIDTH 960 0
DWIDTH 10 0
BBX 6 7 0 2
BITMAP
1C
1C
1C
1C
FC
FC
FC
ENDCHAR
STARTCHAR uni251C
ENCODING 9500
SWIDTH 960 0
DWIDTH 10 0
BBX 6 10 4 -1
BITMAP
80
80
80
80
80
FC
80
80
80
80
ENDCHAR
STARTCHAR uni251D
ENCODING 9501
SWIDTH 960 0
DWIDTH 10 0
BBX 6 10 4 -1
BITMAP
80
80
80
80
FC
FC
FC
80
80
80
ENDCHAR
STARTCHAR uni251E
ENCODING 9502
SWIDTH 960 0
DWIDTH 10 0
BBX 7 10 3 -1
BITMAP
E0
E0
E0
E0
E0
FE
40
40
40
40
ENDCHAR
STARTCHAR uni251F
ENCODING 9503
SWIDTH 960 0
DWIDTH 10 0
BBX 7 10 3 -1
BITMAP
40
40
40
40
40
FE
E0
E0
E0
E0
ENDCHAR
STARTCHAR uni2520
ENCODING 9504
SWIDTH 960 0
DWIDTH 10 0
BBX 7 10 3 -1
BITMAP
E0
E0
E0
E0
E0
FE
E0
E0
E0
E0
ENDCHAR
STARTCHAR uni2521
ENCODING 9505
SWIDTH 960 0
DWIDTH 10 0
BBX 7 10 3 -1
BITMAP
E0
E0
E0
E0
FE
FE
FE
40
40
40
ENDCHAR
STARTCHAR uni2522
ENCODING 9506
SWIDTH 960 0
DWIDTH 10 0
BBX 7 10 3 -1
BITMAP
40
40
40
40
FE
FE
FE
E0
E0
E0
ENDCHAR
STARTCHAR uni2523
ENCODING 9507
SWIDTH 960 0
DWIDTH 10 0
BBX 7 10 3 -1
BITMAP
E0
E0
E0
E0
FE
FE
FE
E0
E0
E0
ENDCHAR
STARTCHAR uni2524
ENCODING 9508
SWIDTH 960 0
DWIDTH 10 0
BBX 5 10 0 -1
BITMAP
08
08
08
08
08
F8
08
08
08
08
ENDCHAR
STARTCHAR uni2525
ENCODING 9509
SWIDTH 960 0
DWIDTH 10 0
BBX 5 10 0 -1
BITMAP
08
08
08
08
F8
F8
F8
08
08
08
ENDCHAR
STARTCHAR uni2526
ENCODING 9510
SWIDTH 960 0
DWIDTH 10 0
BBX 6 10 0 -1
BITMAP
1C
1C
1C
1C
1C
FC
08
08
08
08
ENDCHAR
STARTCHAR uni2527
ENCODING 9511
SWIDTH 960 0
DWIDTH 10 0
BBX 6 10 0 -1
BITMAP
08
08
08
08
08
FC
1C
1C
1C
1C
ENDCHAR
STARTCHAR uni2528
ENCODING 9512
SWIDTH 960 0
DWIDTH 10 0
BBX 6 10 0 -1
BITMAP
1C
1C
1C
1C
1C
FC
1C
1C
1C
1C
ENDCHAR
STARTCHAR uni2529
ENCODING 9513
SWIDTH 960 0
DWIDTH 10 0
BBX 6 10 0 -1
BITMAP
1C
1C
1C
1C
FC
FC
FC
08
08
08
ENDCHAR
STARTCHAR uni252A
ENCODING 9514
SWIDTH 960 0
DWIDTH 10 0
BBX 6 10 0 -1
BITMAP
08
08
08
08
FC
FC
FC
1C
1C
1C
ENDCHAR
STARTCHAR uni252B
ENCODING 9515
SWIDTH 960 0
DWIDTH 10 0
BBX 6 10 0 -1
BITMAP
1C
1C
1C
1C
FC
FC
FC
1C
1C
1C
ENDCHAR
STARTCHAR uni252C
ENCODING 9516
SWIDTH 960 0
DWIDTH 10 0
BBX 10 5 0 -1
BITMAP
FFC0
0800
0800
0800
0800
ENDCHAR
STARTCHAR uni252D
ENCODING 9517
SWIDTH 960 0
DWIDTH 10 0
BBX 10 6 0 -1
BITMAP
F800
FFC0
F800
0800
0800
0800
ENDCHAR
STARTCHAR uni252E
ENCODING 9518
SWIDTH 960 0
DWIDTH 10 0
BBX 10 6 0 -1
BITMAP
0FC0
FFC0
0FC0
0800
0800
0800
ENDCHAR
STARTCHAR uni252F
ENCODING 9519
SWIDTH 960 0
DWIDTH 10 0
BBX 10 6 0 -1
BITMAP
FFC0
FFC0
FFC0
0800
0800
0800
ENDCHAR
STARTCHAR uni2530
ENCODING 9520
SWIDTH 960 0
DWIDTH 10 0
BBX 10 5 0 -1
BITMAP
FFC0
1C00
1C00
1C00
1C00
ENDCHAR
STARTCHAR uni2531
ENCODING 9521
SWIDTH 960 0
DWIDTH 10 0
BBX 10 6 0 -1
BITMAP
FC00
FFC0
FC00
1C00
1C00
1C00
ENDCHAR
STARTCHAR uni2532
ENCODING 9522
SWIDTH 960 0
DWIDTH 10 0
BBX 10 6 0 -1
BITMAP
1FC0
FFC0
1C00
1C00
1C00
1C00
ENDCHAR
STARTCHAR uni2533
ENCODING 9523
SWIDTH 960 0
DWIDTH 10 0
BBX 10 6 0 -1
BITMAP
FFC0
FFC0
FFC0
1C00
1C00
1C00
ENDCHAR
STARTCHAR uni2534
ENCODING 9524
SWIDTH 960 0
DWIDTH 10 0
BBX 10 6 0 3
BITMAP
0800
0800
0800
0800
0800
FFC0
ENDCHAR
STARTCHAR uni2535
ENCODING 9525
SWIDTH 960 0
DWIDTH 10 0
BBX 10 7 0 2
BITMAP
0800
0800
0800
0800
F800
FFC0
F800
ENDCHAR
STARTCHAR uni2536
ENCODING 9526
SWIDTH 960 0
DWIDTH 10 0
BBX 10 7 0 2
BITMAP
0800
0800
0800
0800
0FC0
FFC0
0FC0
ENDCHAR
STARTCHAR uni2537
ENCODING 9527
SWIDTH 960 0
DWIDTH 10 0
BBX 10 7 0 2
BITMAP
0800
0800
0800
0800
FFC0
FFC0
FFC0
ENDCHAR
STARTCHAR uni2538
ENCODING 9528
SWIDTH 960 0
DWIDTH 10 0
BBX 10 6 0 3
BITMAP
1C00
1C00
1C00
1C00
1C00
FFC0
ENDCHAR
STARTCHAR uni2539
ENCODING 9529
SWIDTH 960 0
DWIDTH 10 0
BBX 10 7 0 2
BITMAP
1C00
1C00
1C00
1C00
FC00
FFC0
FC00
ENDCHAR
STARTCHAR uni253A
ENCODING 9530
SWIDTH 960 0
DWIDTH 10 0
BBX 10 7 0 2
BITMAP
1C00
1C00
1C00
1C00
1FC0
FFC0
1FC0
ENDCHAR
STARTCHAR uni253B
ENCODING 9531
SWIDTH 960 0
DWIDTH 10 0
BBX 10 7 0 2
BITMAP
1C00
1C00
1C00
1C00
FFC0
FFC0
FFC0
ENDCHAR
STARTCHAR uni253C
ENCODING 9532
SWIDTH 960 0
DWIDTH 10 0
BBX 10 10 0 -1
BITMAP
0800
0800
0800
0800
0800
FFC0
0800
0800
0800
0800
ENDCHAR
STARTCHAR uni253D
ENCODING 9533
SWIDTH 960 0
DWIDTH 10 0
BBX 10 10 0 -1
BITMAP
0800
0800
0800
0800
F800
FFC0
F800
0800
0800
0800
ENDCHAR
STARTCHAR uni253E
ENCODING 9534
SWIDTH 960 0
DWIDTH 10 0
BBX 10 10 0 -1
BITMAP
0800
0800
0800
0800
0FC0
FFC0
0FC0
0800
0800
0800
ENDCHAR
STARTCHAR uni253F
ENCODING 9535
SWIDTH 960 0
DWIDTH 10 0
BBX 10 10 0 -1
BITMAP
0800
0800
0800
0800
FFC0
FFC0
FFC0
0800
0800
0800
ENDCHAR
STARTCHAR uni2540
ENCODING 9536
SWIDTH 960 0
DWIDTH 10 0
BBX 10 10 0 -1
BITMAP
1C00
1C00
1C00
1C00
1C00
FFC0
0800
0800
0800
0800
ENDCHAR
STARTCHAR uni2541
ENCODING 9537
SWIDTH 960 0
DWIDTH 10 0
BBX 10 10 0 -1
BITMAP
0800
0800
0800
0800
0800
FFC0
1C00
1C00
1C00
1C00
ENDCHAR
STARTCHAR uni2542
ENCODING 9538
SWIDTH 960 0
DWIDTH 10 0
BBX 10 10 0 -1
BITMAP
1C00
1C00
1C00
1C00
1C00
FFC0
1C00
1C00
1C00
1C00
ENDCHAR
STARTCHAR uni2543
ENCODING 9539
SWIDTH 960 0
DWIDTH 10 0
BBX 10 10 0 -1
BITMAP
1C00
1C00
1C00
1C00
FC00
FFC0
FC00
0800
0800
0800
ENDCHAR
STARTCHAR uni2544
ENCODING 9540
SWIDTH 960 0
DWIDTH 10 0
BBX 10 10 0 -1
BITMAP
1C00
1C00
1C00
1C00
1FC0
FFC0
1FC0
0800
0800
0800
ENDCHAR
STARTCHAR uni2545
ENCODING 9541
SWIDTH 960 0
DWIDTH 10 0
BBX 10 10 0 -1
BITMAP
0800
0800
0800
0800
FC00
FFC0
FC00
1C00
1C00
1C00
ENDCHAR
STARTCHAR uni2546
ENCODING 9542
SWIDTH 960 0
DWIDTH 10 0
BBX 10 10 0 -1
BITMAP
0800
0800
0800
0800
1FC0
FFC0
1FC0
1C00
1C00
1C00
ENDCHAR
STARTCHAR uni2547
ENCODING 9543
SWIDTH 960 0
DWIDTH 10 0
BBX 10 10 0 -1
BITMAP
1C00
1C00
1C00
1C00
FFC0
FFC0
FFC0
0800
0800
0800
ENDCHAR
STARTCHAR uni2548
ENCODING 9544
SWIDTH 960 0
DWIDTH 10 0
BBX 10 10 0 -1
BITMAP
0800
0800
0800
0800
FFC0
FFC0
FFC0
1C00
1C00
1C00
ENDCHAR
STARTCHAR uni2549
ENCODING 9545
SWIDTH 960 0
DWIDTH 10 0
BBX 10 10 0 -1
BITMAP
1C00
1C00
1C00
1C00
FC00
FFC0
FC00
1C00
1C00
1C00
ENDCHAR
STARTCHAR uni254A
ENCODING 9546
SWIDTH 960 0
DWIDTH 10 0
BBX 10 10 0 -1
BITMAP
1C00
1C00
1C00
1C00
1FC0
FFC0
1FC0
1C00
1C00
1C00
ENDCHAR
STARTCHAR uni254B
ENCODING 9547
SWIDTH 960 0
DWIDTH 10 0
BBX 10 10 0 -1
BITMAP
1C00
1C00
1C00
1C00
FFC0
FFC0
FFC0
1C00
1C00
1C00
ENDCHAR
STARTCHAR uni254C
ENCODING 9548
SWIDTH 960 0
DWIDTH 10 0
BBX 9 1 0 3
BITMAP
F780
ENDCHAR
STARTCHAR uni254D
ENCODING 9549
SWIDTH 960 0
DWIDTH 10 0
BBX 9 3 0 2
BITMAP
F780
F780
F780
ENDCHAR
STARTCHAR uni254E
ENCODING 9550
SWIDTH 960 0
DWIDTH 10 0
BBX 1 9 4 -1
BITMAP
80
80
80
80
00
80
80
80
80
ENDCHAR
STARTCHAR uni254F
ENCODING 9551
SWIDTH 960 0
DWIDTH 10 0
BBX 3 9 3 -1
BITMAP
E0
E0
E0
E0
00
E0
E0
E0
E0
ENDCHAR
STARTCHAR uni2550
ENCODING 9552
SWIDTH 960 0
DWIDTH 10 0
BBX 10 3 0 2
BITMAP
FFC0
0000
FFC0
ENDCHAR
STARTCHAR uni2551
ENCODING 9553
SWIDTH 960 0
DWIDTH 10 0
BBX 3 10 3 -1
BITMAP
A0
A0
A0
A0
A0
A0
A0
A0
A0
A0
ENDCHAR
STARTCHAR uni2552
ENCODING 9554
SWIDTH 960 0
DWIDTH 10 0
BBX 6 6 4 -1
BITMAP
FC
80
FC
80
80
80
ENDCHAR
STARTCHAR uni2553
ENCODING 9555
SWIDTH 960 0
DWIDTH 10 0
BBX 7 5 3 -1
BITMAP
FE
A0
A0
A0
A0
ENDCHAR
STARTCHAR uni2554
ENCODING 9556
SWIDTH 960 0
DWIDTH 10 0
BBX 7 6 3 -1
BITMAP
FE
80
BE
A0
A0
A0
ENDCHAR
STARTCHAR uni2555
ENCODING 9557
SWIDTH 960 0
DWIDTH 10 0
BBX 5 6 0 -1
BITMAP
F8
08
F8
08
08
08
ENDCHAR
STARTCHAR uni2556
ENCODING 9558
SWIDTH 960 0
DWIDTH 10 0
BBX 6 5 0 -1
BITMAP
FC
14
14
14
14
ENDCHAR
STARTCHAR uni2557
ENCODING 9559
SWIDTH 960 0
DWIDTH 10 0
BBX 6 6 0 -1
BITMAP
FC
04
F4
14
14
14
ENDCHAR
STARTCHAR uni2558
ENCODING 9560
SWIDTH 960 0
DWIDTH 10 0
BBX 6 7 4 2
BITMAP
80
80
80
80
FC
80
FC
ENDCHAR
STARTCHAR uni2559
ENCODING 9561
SWIDTH 960 0
DWIDTH 10 0
BBX 7 6 3 3
BITMAP
A0
A0
A0
A0
A0
FE
ENDCHAR
STARTCHAR uni255A
ENCODING 9562
SWIDTH 960 0
DWIDTH 10 0
BBX 7 7 3 2
BITMAP
A0
A0
A0
A0
BE
80
FE
ENDCHAR
STARTCHAR uni255B
ENCODING 9563
SWIDTH 960 0
DWIDTH 10 0
BBX 5 7 0 2
BITMAP
08
08
08
08
F8
08
F8
ENDCHAR
STARTCHAR uni255C
ENCODING 9564
SWIDTH 960 0
DWIDTH 10 0
BBX 6 6 0 3
BITMAP
14
14
14
14
14
FC
ENDCHAR
STARTCHAR uni255D
ENCODING 9565
SWIDTH 960 0
DWIDTH 10 0
BBX 6 7 0 2
BITMAP
14
14
14
14
F4
04
FC
ENDCHAR
STARTCHAR uni255E
ENCODING 9566
SWIDTH 960 0
DWIDTH 10 0
BBX 6 10 4 -1
BITMAP
80
80
80
80
FC
80
FC
80
80
80
ENDCHAR
STARTCHAR uni255F
ENCODING 9567
SWIDTH 960 0
DWIDTH 10 0
BBX 7 10 3 -1
BITMAP
A0
A0
A0
A0
A0
BE
A0
A0
A0
A0
ENDCHAR
STARTCHAR uni2560
ENCODING 9568
SWIDTH 960 0
DWIDTH 10 0
BBX 7 10 3 -1
BITMAP
A0
A0
A0
A0
BE
80
BE
A0
A0
A0
ENDCHAR
STARTCHAR uni2561
ENCODING 9569
SWIDTH 960 0
DWIDTH 10 0
BBX 5 10 0 -1
BITMAP
08
08
08
08
F8
08
F8
08
08
08
ENDCHAR
STARTCHAR uni2562
ENCODING 9570
SWIDTH 960 0
DWIDTH 10 0
BBX 6 10 0 -1
BITMAP
14
14
14
14
14
F4
14
14
14
14
ENDCHAR
STARTCHAR uni2563
ENCODING 9571
SWIDTH 960 0
DWIDTH 10 0
BBX 6 10 0 -1
BITMAP
14
14
14
14
F4
04
F4
14
14
14
ENDCHAR
STARTCHAR uni2564
ENCODING 9572
SWIDTH 960 0
DWIDTH 10 0
BBX 10 6 0 -1
BITMAP
FFC0
0000
FFC0
0800
0800
0800
ENDCHAR
STARTCHAR uni2565
ENCODING 9573
SWIDTH 960 0
DWIDTH 10 0
BBX 10 5 0 -1
BITMAP
FFC0
1400
1400
1400
1400
ENDCHAR
STARTCHAR uni2566
ENCODING 9574
SWIDTH 960 0
DWIDTH 10 0
BBX 10 6 0 -1
BITMAP
FFC0
0000
F7C0
1400
1400
1400
ENDCHAR
STARTCHAR uni2567
ENCODING 9575
SWIDTH 960 0
DWIDTH 10 0
BBX 10 7 0 2
BITMAP
0800
0800
0800
0800
FFC0
0000
FFC0
ENDCHAR
STARTCHAR uni2568
ENCODING 9576
SWIDTH 960 0
DWIDTH 10 0
BBX 10 6 0 3
BITMAP
1400
1400
1400
1400
1400
FFC0
ENDCHAR
STARTCHAR uni2569
ENCODING 9577
SWIDTH 960 0
DWIDTH 10 0
BBX 10 7 0 2
BITMAP
1400
1400
1400
1400
F7C0
0000
FFC0
ENDCHAR
STARTCHAR uni256A
ENCODING 9578
SWIDTH 960 0
DWIDTH 10 0
BBX 10 10 0 -1
BITMAP
0800
0800
0800
0800
FFC0
0800
FFC0
0800
0800
0800
ENDCHAR
STARTCHAR uni256B
ENCODING 9579
SWIDTH 960 0
DWIDTH 10 0
BBX 10 10 0 -1
BITMAP
1400
1400
1400
1400
1400
FFC0
1400
1400
1400
1400
ENDCHAR
STARTCHAR uni256C
ENCODING 9580
SWIDTH 960 0
DWIDTH 10 0
BBX 10 10 0 -1
BITMAP
1400
1400
1400
1400
F7C0
0000
F7C0
1400
1400
1400
ENDCHAR
STARTCHAR uni256D
ENCODING 9581
SWIDTH 960 0
DWIDTH 10 0
BBX 6 5 4 -1
BITMAP
1C
20
40
80
80
ENDCHAR
STARTCHAR uni256E
ENCODING 9582
SWIDTH 960 0
DWIDTH 10 0
BBX 5 5 0 -1
BITMAP
C0
20
10
08
08
ENDCHAR
STARTCHAR uni256F
ENCODING 9583
SWIDTH 960 0
DWIDTH 10 0
BBX 5 6 0 3
BITMAP
08
08
08
10
20
C0
ENDCHAR
STARTCHAR uni2570
ENCODING 9584
SWIDTH 960 0
DWIDTH 10 0
BBX 6 6 4 3
BITMAP
80
80
80
40
20
1C
ENDCHAR
STARTCHAR uni2571
ENCODING 9585
SWIDTH 960 0
DWIDTH 10 0
BBX 10 10 0 -1
BITMAP
0040
0080
0100
0200
0400
0800
1000
2000
4000
8000
ENDCHAR
STARTCHAR uni2572
ENCODING 9586
SWIDTH 960 0
DWIDTH 10 0
BBX 10 10 0 -1
BITMAP
8000
4000
2000
1000
0800
0400
0200
0100
0080
0040
ENDCHAR
STARTCHAR uni2573
ENCODING 9587
SWIDTH 960 0
DWIDTH 10 0
BBX 10 10 0 -1
BITMAP
8040
4080
2100
1200
0C00
0C00
1200
2100
4080
8040
ENDCHAR
STARTCHAR uni2574
ENCODING 9588
SWIDTH 960 0
DWIDTH 10 0
BBX 5 1 0 3
BITMAP
F8
ENDCHAR
STARTCHAR uni2575
ENCODING 9589
SWIDTH 960 0
DWIDTH 10 0
BBX 1 6 4 3
BITMAP
80
80
80
80
80
80
ENDCHAR
STARTCHAR uni2576
ENCODING 9590
SWIDTH 960 0
DWIDTH 10 0
BBX 6 1 4 3
BITMAP
FC
ENDCHAR
STARTCHAR uni2577
ENCODING 9591
SWIDTH 960 0
DWIDTH 10 0
BBX 1 5 4 -1
BITMAP
80
80
80
80
80
ENDCHAR
STARTCHAR uni2578
ENCODING 9592
SWIDTH 960 0
DWIDTH 10 0
BBX 5 3 0 2
BITMAP
F8
F8
F8
ENDCHAR
STARTCHAR uni2579
ENCODING 9593
SWIDTH 960 0
DWIDTH 10 0
BBX 3 6 3 3
BITMAP
E0
E0
E0
E0
E0
E0
ENDCHAR
STARTCHAR uni257A
ENCODING 9594
SWIDTH 960 0
DWIDTH 10 0
BBX 6 3 4 2
BITMAP
FC
FC
FC
ENDCHAR
STARTCHAR uni257B
ENCODING 9595
SWIDTH 960 0
DWIDTH 10 0
BBX 3 5 3 -1
BITMAP
E0
E0
E0
E0
E0
ENDCHAR
STARTCHAR uni257C
ENCODING 9596
SWIDTH 960 0
DWIDTH 10 0
BBX 10 3 0 2
BITMAP
0FC0
FFC0
0FC0
ENDCHAR
STARTCHAR uni257D
ENCODING 9597
SWIDTH 960 0
DWIDTH 10 0
BBX 3 10 3 -1
BITMAP
40
40
40
40
40
E0
E0
E0
E0
E0
ENDCHAR
STARTCHAR uni257E
ENCODING 9598
SWIDTH 960 0
DWIDTH 10 0
BBX 10 3 0 2
BITMAP
F800
FFC0
F800
ENDCHAR
STARTCHAR uni257F
ENCODING 9599
SWIDTH 960 0
DWIDTH 10 0
BBX 3 10 3 -1
BITMAP
E0
E0
E0
E0
E0
E0
40
40
40
40
ENDCHAR
STARTCHAR uni2580
ENCODING 9600
SWIDTH 960 0
DWIDTH 10 0
BBX 10 5 0 4
BITMAP
FFC0
FFC0
FFC0
FFC0
FFC0
ENDCHAR
STARTCHAR uni2581
ENCODING 9601
SWIDTH 960 0
DWIDTH 10 0
BBX 10 1 0 -1
BITMAP
FFC0
ENDCHAR
STARTCHAR uni2582
ENCODING 9602
SWIDTH 960 0
DWIDTH 10 0
BBX 10 2 0 -1
BITMAP
FFC0
FFC0
ENDCHAR
STARTCHAR uni2583
ENCODING 9603
SWIDTH 960 0
DWIDTH 10 0
BBX 10 4 0 -1
BITMAP
FFC0
FFC0
FFC0
FFC0
ENDCHAR
STARTCHAR uni2584
ENCODING 9604
SWIDTH 960 0
DWIDTH 10 0
BBX 10 5 0 -1
BITMAP
FFC0
FFC0
FFC0
FFC0
FFC0
ENDCHAR
STARTCHAR uni2585
ENCODING 9605
SWIDTH 960 0
DWIDTH 10 0
BBX 10 6 0 -1
BITMAP
FFC0
FFC0
FFC0
FFC0
FFC0
FFC0
ENDCHAR
STARTCHAR uni2586
ENCODING 9606
SWIDTH 960 0
DWIDTH 10 0
BBX 10 8 0 -1
BITMAP
FFC0
FFC0
FFC0
FFC0
FFC0
FFC0
FFC0
FFC0
ENDCHAR
STARTCHAR uni2587
ENCODING 9607
SWIDTH 960 0
DWIDTH 10 0
BBX 10 9 0 -1
BITMAP
FFC0
FFC0
FFC0
FFC0
FFC0
FFC0
FFC0
FFC0
FFC0
ENDCHAR
STARTCHAR uni2588
ENCODING 9608
SWIDTH 960 0
DWIDTH 10 0
BBX 10 10 0 -1
BITMAP
FFC0
FFC0
FFC0
FFC0
FFC0
FFC0
FFC0
FFC0
FFC0
FFC0
ENDCHAR
STARTCHAR uni2589
ENCODING 9609
SWIDTH 960 0
DWIDTH 10 0
BBX 9 10 0 -1
BITMAP
FF80
FF80
FF80
FF80
FF80
FF80
FF80
FF80
FF80
FF80
ENDCHAR
STARTCHAR uni258A
ENCODING 9610
SWIDTH 960 0
DWIDTH 10 0
BBX 8 10 0 -1
BITMAP
FF
FF
FF
FF
FF
FF
FF
FF
FF
FF
ENDCHAR
STARTCHAR uni258B
ENCODING 9611
SWIDTH 960 0
DWIDTH 10 0
BBX 6 10 0 -1
BITMAP
FC
FC
FC
FC
FC
FC
FC
FC
FC
FC
ENDCHAR
STARTCHAR uni258C
ENCODING 9612
SWIDTH 960 0
DWIDTH 10 0
BBX 5 10 0 -1
BITMAP
F8
F8
F8
F8
F8
F8
F8
F8
F8
F8
ENDCHAR
STARTCHAR uni258D
ENCODING 9613
SWIDTH 960 0
DWIDTH 10 0
BBX 4 10 0 -1
BITMAP
F0
F0
F0
F0
F0
F0
F0
F0
F0
F0
ENDCHAR
STARTCHAR uni258E
ENCODING 9614
SWIDTH 960 0
DWIDTH 10 0
BBX 2 10 0 -1
BITMAP
C0
C0
C0
C0
C0
C0
C0
C0
C0
C0
ENDCHAR
STARTCHAR uni258F
ENCODING 9615
SWIDTH 960 0
DWIDTH 10 0
BBX 1 10 0 -1
BITMAP
80
80
80
80
80
80
80
80
80
80
ENDCHAR
STARTCHAR uni2590
ENCODING 9616
SWIDTH 960 0
DWIDTH 10 0
BBX 5 10 5 -1
BITMAP
F8
F8
F8
F8
F8
F8
F8
F8
F8
F8
ENDCHAR
STARTCHAR uni2591
ENCODING 9617
SWIDTH 960 0
DWIDTH 10 0
BBX 9 9 0 0
BITMAP
AA80
0000
AA80
0000
AA80
0000
AA80
0000
AA80
ENDCHAR
STARTCHAR uni2592
ENCODING 9618
SWIDTH 960 0
DWIDTH 10 0
BBX 10 10 0 -1
BITMAP
AA80
5540
AA80
5540
AA80
5540
AA80
5540
AA80
5540
ENDCHAR
STARTCHAR uni2593
ENCODING 9619
SWIDTH 960 0
DWIDTH 10 0
BBX 10 10 0 -1
BITMAP
FFC0
AA80
FFC0
AA80
FFC0
AA80
FFC0
AA80
FFC0
AA80
ENDCHAR
STARTCHAR uni2594
ENCODING 9620
SWIDTH 960 0
DWIDTH 10 0
BBX 10 1 0 8
BITMAP
FFC0
ENDCHAR
STARTCHAR uni2595
ENCODING 9621
SWIDTH 960 0
DWIDTH 10 0
BBX 1 10 9 -1
BITMAP
80
80
80
80
80
80
80
80
80
80
ENDCHAR
STARTCHAR uni2596
ENCODING 9622
SWIDTH 960 0
DWIDTH 10 0
BBX 5 5 0 -1
BITMAP
F8
F8
F8
F8
F8
ENDCHAR
STARTCHAR uni2597
ENCODING 9623
SWIDTH 960 0
DWIDTH 10 0
BBX 5 5 5 -1
BITMAP
F8
F8
F8
F8
F8
ENDCHAR
STARTCHAR uni2598
ENCODING 9624
SWIDTH 960 0
DWIDTH 10 0
BBX 5 5 0 4
BITMAP
F8
F8
F8
F8
F8
ENDCHAR
STARTCHAR uni2599
ENCODING 9625
SWIDTH 960 0
DWIDTH 10 0
BBX 10 10 0 -1
BITMAP
F800
F800
F800
F800
F800
FFC0
FFC0
FFC0
FFC0
FFC0
ENDCHAR
STARTCHAR uni259A
ENCODING 9626
SWIDTH 960 0
DWIDTH 10 0
BBX 10 10 0 -1
BITMAP
F800
F800
F800
F800
F800
07C0
07C0
07C0
07C0
07C0
ENDCHAR
STARTCHAR uni259B
ENCODING 9627
SWIDTH 960 0
DWIDTH 10 0
BBX 10 10 0 -1
BITMAP
FFC0
FFC0
FFC0
FFC0
FFC0
F800
F800
F800
F800
F800
ENDCHAR
STARTCHAR uni259C
ENCODING 9628
SWIDTH 960 0
DWIDTH 10 0
BBX 10 10 0 -1
BITMAP
FFC0
FFC0
FFC0
FFC0
FFC0
07C0
07C0
07C0
07C0
07C0
ENDCHAR
STARTCHAR uni259D
ENCODING 9629
SWIDTH 960 0
DWIDTH 10 0
BBX 5 5 5 4
BITMAP
F8
F8
F8
F8
F8
ENDCHAR
STARTCHAR uni259E
ENCODING 9630
SWIDTH 960 0
DWIDTH 10 0
BBX 10 10 0 -1
BITMAP
07C0
07C0
07C0
07C0
07C0
F800
F800
F800
F800
F800
ENDCHAR
STARTCHAR uni259F
ENCODING 9631
SWIDTH 960 0
DWIDTH 10 0
BBX 10 10 0 -1
BITMAP
07C0
07C0
07C0
07C0
07C0
FFC0
FFC0
FFC0
FFC0
FFC0
ENDCHAR
STARTCHAR uni25A0
ENCODING 9632
SWIDTH 960 0
DWIDTH 10 0
BBX 9 9 0 -1
BITMAP
FF80
FF80
FF80
FF80
FF80
FF80
FF80
FF80
FF80
ENDCHAR
STARTCHAR uni25A1
ENCODING 9633
SWIDTH 960 0
DWIDTH 10 0
BBX 9 9 0 -1
BITMAP
FF80
8080
8080
8080
8080
8080
8080
8080
FF80
ENDCHAR
STARTCHAR uni25A2
ENCODING 9634
SWIDTH 960 0
DWIDTH 10 0
BBX 9 9 0 -1
BITMAP
7F00
8080
8080
8080
8080
8080
8080
8080
7F00
ENDCHAR
STARTCHAR uni25A3
ENCODING 9635
SWIDTH 960 0
DWIDTH 10 0
BBX 9 9 0 -1
BITMAP
FF80
8080
8080
9C80
9C80
9C80
8080
8080
FF80
ENDCHAR
STARTCHAR uni25A4
ENCODING 9636
SWIDTH 960 0
DWIDTH 10 0
BBX 9 9 0 -1
BITMAP
FF80
8080
FF80
8080
FF80
8080
FF80
8080
FF80
ENDCHAR
STARTCHAR uni25A5
ENCODING 9637
SWIDTH 960 0
DWIDTH 10 0
BBX 9 9 0 -1
BITMAP
FF80
AA80
AA80
AA80
AA80
AA80
AA80
AA80
FF80
ENDCHAR
STARTCHAR uni25A6
ENCODING 9638
SWIDTH 960 0
DWIDTH 10 0
BBX 9 9 0 -1
BITMAP
FF80
AA80
FF80
AA80
FF80
AA80
FF80
AA80
FF80
ENDCHAR
STARTCHAR uni25A7
ENCODING 9639
SWIDTH 960 0
DWIDTH 10 0
BBX 9 9 0 -1
BITMAP
FF80
C980
A480
9280
C980
A480
9280
C980
FF80
ENDCHAR
STARTCHAR uni25A8
ENCODING 9640
SWIDTH 960 0
DWIDTH 10 0
BBX 9 9 0 -1
BITMAP
FF80
C980
9280
A480
C980
9280
A480
C980
FF80
ENDCHAR
STARTCHAR uni25A9
ENCODING 9641
SWIDTH 960 0
DWIDTH 10 0
BBX 9 9 0 -1
BITMAP
FF80
D580
AA80
D580
AA80
D580
AA80
D580
FF80
ENDCHAR
STARTCHAR uni25AA
ENCODING 9642
SWIDTH 960 0
DWIDTH 10 0
BBX 3 3 3 2
BITMAP
E0
E0
E0
ENDCHAR
STARTCHAR uni25AB
ENCODING 9643
SWIDTH 960 0
DWIDTH 10 0
BBX 3 3 3 2
BITMAP
E0
A0
E0
ENDCHAR
STARTCHAR uni25AC
ENCODING 9644
SWIDTH 960 0
DWIDTH 10 0
BBX 9 5 0 1
BITMAP
FF80
FF80
FF80
FF80
FF80
ENDCHAR
STARTCHAR uni25AD
ENCODING 9645
SWIDTH 960 0
DWIDTH 10 0
BBX 9 5 0 1
BITMAP
FF80
8080
8080
8080
FF80
ENDCHAR
STARTCHAR uni25AE
ENCODING 9646
SWIDTH 960 0
DWIDTH 10 0
BBX 5 9 2 -1
BITMAP
F8
F8
F8
F8
F8
F8
F8
F8
F8
ENDCHAR
STARTCHAR uni25AF
ENCODING 9647
SWIDTH 960 0
DWIDTH 10 0
BBX 5 9 2 -1
BITMAP
F8
88
88
88
88
88
88
88
F8
ENDCHAR
STARTCHAR uni25B0
ENCODING 9648
SWIDTH 960 0
DWIDTH 10 0
BBX 9 5 0 1
BITMAP
3F80
3F00
7F00
7E00
FE00
ENDCHAR
STARTCHAR uni25B1
ENCODING 9649
SWIDTH 960 0
DWIDTH 10 0
BBX 9 5 0 1
BITMAP
3F80
2100
4100
4200
FE00
ENDCHAR
STARTCHAR uni25B2
ENCODING 9650
SWIDTH 960 0
DWIDTH 10 0
BBX 9 9 0 -1
BITMAP
0800
1C00
1C00
3E00
3E00
7F00
7F00
FF80
FF80
ENDCHAR
STARTCHAR uni25B3
ENCODING 9651
SWIDTH 960 0
DWIDTH 10 0
BBX 9 9 0 -1
BITMAP
0800
1400
1400
2200
2200
4100
4100
8080
FF80
ENDCHAR
STARTCHAR uni25B4
ENCODING 9652
SWIDTH 960 0
DWIDTH 10 0
BBX 5 5 2 1
BITMAP
20
70
70
F8
F8
ENDCHAR
STARTCHAR uni25B5
ENCODING 9653
SWIDTH 960 0
DWIDTH 10 0
BBX 5 5 2 1
BITMAP
20
50
50
88
F8
ENDCHAR
STARTCHAR uni25B6
ENCODING 9654
SWIDTH 960 0
DWIDTH 10 0
BBX 9 9 0 -1
BITMAP
C000
F000
FC00
FF00
FF80
FF00
FC00
F000
C000
ENDCHAR
STARTCHAR uni25B7
ENCODING 9655
SWIDTH 960 0
DWIDTH 10 0
BBX 9 9 0 -1
BITMAP
C000
B000
8C00
8300
8080
8300
8C00
B000
C000
ENDCHAR
STARTCHAR uni25B8
ENCODING 9656
SWIDTH 960 0
DWIDTH 10 0
BBX 5 5 2 1
BITMAP
C0
F0
F8
F0
C0
ENDCHAR
STARTCHAR uni25B9
ENCODING 9657
SWIDTH 960 0
DWIDTH 10 0
BBX 5 5 2 1
BITMAP
C0
B0
88
B0
C0
ENDCHAR
STARTCHAR uni25BA
ENCODING 9658
SWIDTH 960 0
DWIDTH 10 0
BBX 9 5 0 1
BITMAP
E000
FC00
FF80
FC00
E000
ENDCHAR
STARTCHAR uni25BB
ENCODING 9659
SWIDTH 960 0
DWIDTH 10 0
BBX 9 5 0 1
BITMAP
E000
9C00
8380
9C00
E000
ENDCHAR
STARTCHAR uni25BC
ENCODING 9660
SWIDTH 960 0
DWIDTH 10 0
BBX 9 9 0 -1
BITMAP
FF80
FF80
7F00
7F00
3E00
3E00
1C00
1C00
0800
ENDCHAR
STARTCHAR uni25BD
ENCODING 9661
SWIDTH 960 0
DWIDTH 10 0
BBX 9 9 0 -1
BITMAP
FF80
8080
4100
4100
2200
2200
1400
1400
0800
ENDCHAR
STARTCHAR uni25BE
ENCODING 9662
SWIDTH 960 0
DWIDTH 10 0
BBX 5 5 2 1
BITMAP
F8
F8
70
70
20
ENDCHAR
STARTCHAR uni25BF
ENCODING 9663
SWIDTH 960 0
DWIDTH 10 0
BBX 5 5 2 1
BITMAP
F8
88
50
50
20
ENDCHAR
STARTCHAR uni25C0
ENCODING 9664
SWIDTH 960 0
DWIDTH 10 0
BBX 9 9 0 -1
BITMAP
0180
0780
1F80
7F80
FF80
7F80
1F80
0780
0180
ENDCHAR
STARTCHAR uni25C1
ENCODING 9665
SWIDTH 960 0
DWIDTH 10 0
BBX 9 9 0 -1
BITMAP
0180
0680
1880
6080
8080
6080
1880
0680
0180
ENDCHAR
STARTCHAR uni25C2
ENCODING 9666
SWIDTH 960 0
DWIDTH 10 0
BBX 5 5 2 1
BITMAP
18
78
F8
78
18
ENDCHAR
STARTCHAR uni25C3
ENCODING 9667
SWIDTH 960 0
DWIDTH 10 0
BBX 5 5 2 1
BITMAP
18
68
88
68
18
ENDCHAR
STARTCHAR uni25C4
ENCODING 9668
SWIDTH 960 0
DWIDTH 10 0
BBX 9 5 0 1
BITMAP
0380
1F80
FF80
1F80
0380
ENDCHAR
STARTCHAR uni25C5
ENCODING 9669
SWIDTH 960 0
DWIDTH 10 0
BBX 9 5 0 1
BITMAP
0380
1C80
E080
1C80
0380
ENDCHAR
STARTCHAR uni25C6
ENCODING 9670
SWIDTH 960 0
DWIDTH 10 0
BBX 9 9 0 -1
BITMAP
0800
1C00
3E00
7F00
FF80
7F00
3E00
1C00
0800
ENDCHAR
STARTCHAR uni25C7
ENCODING 9671
SWIDTH 960 0
DWIDTH 10 0
BBX 9 9 0 -1
BITMAP
0800
1400
2200
4100
8080
4100
2200
1400
0800
ENDCHAR
STARTCHAR uni25C8
ENCODING 9672
SWIDTH 960 0
DWIDTH 10 0
BBX 9 9 0 -1
BITMAP
0800
1400
2200
4900
9C80
4900
2200
1400
0800
ENDCHAR
STARTCHAR uni25C9
ENCODING 9673
SWIDTH 960 0
DWIDTH 10 0
BBX 9 9 0 -1
BITMAP
3E00
4100
9C80
BE80
BE80
BE80
9C80
4100
3E00
ENDCHAR
STARTCHAR uni25CA
ENCODING 9674
SWIDTH 960 0
DWIDTH 10 0
BBX 7 9 1 -1
BITMAP
10
28
28
44
82
44
28
28
10
ENDCHAR
STARTCHAR uni25CB
ENCODING 9675
SWIDTH 960 0
DWIDTH 10 0
BBX 9 9 0 -1
BITMAP
3E00
4100
8080
8080
8080
8080
8080
4100
3E00
ENDCHAR
STARTCHAR uni25CC
ENCODING 9676
SWIDTH 960 0
DWIDTH 10 0
BBX 9 9 0 -1
BITMAP
1400
4100
0000
8080
0000
8080
0000
4100
1400
ENDCHAR
STARTCHAR uni25CD
ENCODING 9677
SWIDTH 960 0
DWIDTH 10 0
BBX 9 9 0 -1
BITMAP
3E00
6B00
AA80
AA80
AA80
AA80
AA80
6B00
3E00
ENDCHAR
STARTCHAR uni25CE
ENCODING 9678
SWIDTH 960 0
DWIDTH 10 0
BBX 9 9 0 -1
BITMAP
3E00
4100
9C80
A280
A280
A280
9C80
4100
3E00
ENDCHAR
STARTCHAR uni25CF
ENCODING 9679
SWIDTH 960 0
DWIDTH 10 0
BBX 9 9 0 -1
BITMAP
3E00
7F00
FF80
FF80
FF80
FF80
FF80
7F00
3E00
ENDCHAR
STARTCHAR uni25D0
ENCODING 9680
SWIDTH 960 0
DWIDTH 10 0
BBX 9 9 0 -1
BITMAP
3E00
7900
F880
F880
F880
F880
F880
7900
3E00
ENDCHAR
STARTCHAR uni25D1
ENCODING 9681
SWIDTH 960 0
DWIDTH 10 0
BBX 9 9 0 -1
BITMAP
3E00
4F00
8F80
8F80
8F80
8F80
8F80
4F00
3E00
ENDCHAR
STARTCHAR uni25D2
ENCODING 9682
SWIDTH 960 0
DWIDTH 10 0
BBX 9 9 0 -1
BITMAP
3E00
4100
8080
8080
FF80
FF80
FF80
7F00
3E00
ENDCHAR
STARTCHAR uni25D3
ENCODING 9683
SWIDTH 960 0
DWIDTH 10 0
BBX 9 9 0 -1
BITMAP
3E00
7F00
FF80
FF80
FF80
8080
8080
4100
3E00
ENDCHAR
STARTCHAR uni25D4
ENCODING 9684
SWIDTH 960 0
DWIDTH 10 0
BBX 9 9 0 -1
BITMAP
3E00
4F00
8F80
8F80
8F80
8080
8080
4100
3E00
ENDCHAR
STARTCHAR uni25D5
ENCODING 9685
SWIDTH 960 0
DWIDTH 10 0
BBX 9 9 0 -1
BITMAP
3E00
4F00
8F80
8F80
FF80
FF80
FF80
7F00
3E00
ENDCHAR
STARTCHAR uni25D6
ENCODING 9686
SWIDTH 960 0
DWIDTH 10 0
BBX 5 9 0 -1
BITMAP
38
78
F8
F8
F8
F8
F8
78
38
ENDCHAR
STARTCHAR uni25D7
ENCODING 9687
SWIDTH 960 0
DWIDTH 10 0
BBX 5 9 4 -1
BITMAP
E0
F0
F8
F8
F8
F8
F8
F0
E0
ENDCHAR
STARTCHAR uni25D8
ENCODING 9688
SWIDTH 960 0
DWIDTH 10 0
BBX 9 9 0 -1
BITMAP
FF80
FF80
E380
C180
C180
C180
E380
FF80
FF80
ENDCHAR
STARTCHAR uni25D9
ENCODING 9689
SWIDTH 960 0
DWIDTH 10 0
BBX 9 9 0 -1
BITMAP
FF80
E380
DD80
BE80
BE80
BE80
DD80
E380
FF80
ENDCHAR
STARTCHAR uni25DA
ENCODING 9690
SWIDTH 960 0
DWIDTH 10 0
BBX 9 5 0 3
BITMAP
FF80
E380
DD80
BE80
BE80
ENDCHAR
STARTCHAR uni25DB
ENCODING 9691
SWIDTH 960 0
DWIDTH 10 0
BBX 9 5 0 -1
BITMAP
BE80
BE80
DD80
E380
FF80
ENDCHAR
STARTCHAR uni25DC
ENCODING 9692
SWIDTH 960 0
DWIDTH 10 0
BBX 5 5 0 3
BITMAP
38
40
80
80
80
ENDCHAR
STARTCHAR uni25DD
ENCODING 9693
SWIDTH 960 0
DWIDTH 10 0
BBX 5 5 4 3
BITMAP
E0
10
08
08
08
ENDCHAR
STARTCHAR uni25DE
ENCODING 9694
SWIDTH 960 0
DWIDTH 10 0
BBX 5 5 4 -1
BITMAP
08
08
08
10
E0
ENDCHAR
STARTCHAR uni25DF
ENCODING 9695
SWIDTH 960 0
DWIDTH 10 0
BBX 5 5 0 -1
BITMAP
80
80
80
40
38
ENDCHAR
STARTCHAR uni25E0
ENCODING 9696
SWIDTH 960 0
DWIDTH 10 0
BBX 9 5 0 3
BITMAP
3E00
4100
8080
8080
8080
ENDCHAR
STARTCHAR uni25E1
ENCODING 9697
SWIDTH 960 0
DWIDTH 10 0
BBX 9 5 0 -1
BITMAP
8080
8080
8080
4100
3E00
ENDCHAR
STARTCHAR uni25E2
ENCODING 9698
SWIDTH 960 0
DWIDTH 10 0
BBX 9 9 0 -1
BITMAP
0080
0180
0380
0780
0F80
1F80
3F80
7F80
FF80
ENDCHAR
STARTCHAR uni25E3
ENCODING 9699
SWIDTH 960 0
DWIDTH 10 0
BBX 9 9 0 -1
BITMAP
8000
C000
E000
F000
F800
FC00
FE00
FF00
FF80
ENDCHAR
STARTCHAR uni25E4
ENCODING 9700
SWIDTH 960 0
DWIDTH 10 0
BBX 9 9 0 -1
BITMAP
FF80
FF00
FE00
FC00
F800
F000
E000
C000
8000
ENDCHAR
STARTCHAR uni25E5
ENCODING 9701
SWIDTH 960 0
DWIDTH 10 0
BBX 9 9 0 -1
BITMAP
FF80
7F80
3F80
1F80
0F80
0780
0380
0180
0080
ENDCHAR
STARTCHAR uni25E6
ENCODING 9702
SWIDTH 960 0
DWIDTH 10 0
BBX 5 5 2 1
BITMAP
70
88
88
88
70
ENDCHAR
STARTCHAR uni25E7
ENCODING 9703
SWIDTH 960 0
DWIDTH 10 0
BBX 9 9 0 -1
BITMAP
FF80
F880
F880
F880
F880
F880
F880
F880
FF80
ENDCHAR
STARTCHAR uni25E8
ENCODING 9704
SWIDTH 960 0
DWIDTH 10 0
BBX 9 9 0 -1
BITMAP
FF80
8F80
8F80
8F80
8F80
8F80
8F80
8F80
FF80
ENDCHAR
STARTCHAR uni25E9
ENCODING 9705
SWIDTH 960 0
DWIDTH 10 0
BBX 9 9 0 -1
BITMAP
FF80
FF80
FE80
FC80
F880
F080
E080
C080
FF80
ENDCHAR
STARTCHAR uni25EA
ENCODING 9706
SWIDTH 960 0
DWIDTH 10 0
BBX 9 9 0 -1
BITMAP
FF80
8180
8380
8780
8F80
9F80
BF80
FF80
FF80
ENDCHAR
STARTCHAR uni25EB
ENCODING 9707
SWIDTH 960 0
DWIDTH 10 0
BBX 9 9 0 -1
BITMAP
FF80
8880
8880
8880
8880
8880
8880
8880
FF80
ENDCHAR
STARTCHAR uni25EC
ENCODING 9708
SWIDTH 960 0
DWIDTH 10 0
BBX 9 9 0 -1
BITMAP
0800
1400
1400
2200
2200
4900
4100
8080
FF80
ENDCHAR
STARTCHAR uni25ED
ENCODING 9709
SWIDTH 960 0
DWIDTH 10 0
BBX 9 9 0 -1
BITMAP
0800
1C00
1C00
3A00
3A00
7900
7900
F880
FF80
ENDCHAR
STARTCHAR uni25EE
ENCODING 9710
SWIDTH 960 0
DWIDTH 10 0
BBX 9 9 0 -1
BITMAP
0800
1C00
1C00
2E00
2E00
4F00
4F00
8F80
FF80
ENDCHAR
STARTCHAR uni25EF
ENCODING 9711
SWIDTH 960 0
DWIDTH 10 0
BBX 10 10 0 -1
BITMAP
1E00
2100
4080
8040
8040
8040
8040
4080
2100
1E00
ENDCHAR
STARTCHAR uni25F0
ENCODING 9712
SWIDTH 960 0
DWIDTH 10 0
BBX 9 9 0 -1
BITMAP
FF80
8880
8880
8880
F880
8080
8080
8080
FF80
ENDCHAR
STARTCHAR uni25F1
ENCODING 9713
SWIDTH 960 0
DWIDTH 10 0
BBX 9 9 0 -1
BITMAP
FF80
8080
8080
8080
F880
8880
8880
8880
FF80
ENDCHAR
STARTCHAR uni25F2
ENCODING 9714
SWIDTH 960 0
DWIDTH 10 0
BBX 9 9 0 -1
BITMAP
FF80
8080
8080
8080
8F80
8880
8880
8880
FF80
ENDCHAR
STARTCHAR uni25F3
ENCODING 9715
SWIDTH 960 0
DWIDTH 10 0
BBX 9 9 0 -1
BITMAP
FF80
8880
8880
8880
8F80
8080
8080
8080
FF80
ENDCHAR
STARTCHAR uni25F4
ENCODING 9716
SWIDTH 960 0
DWIDTH 10 0
BBX 9 9 0 -1
BITMAP
3E00
4900
8880
8880
F880
8080
8080
4100
3E00
ENDCHAR
STARTCHAR uni25F5
ENCODING 9717
SWIDTH 960 0
DWIDTH 10 0
BBX 9 9 0 -1
BITMAP
3E00
4100
8080
8080
F880
8880
8880
4900
3E00
ENDCHAR
STARTCHAR uni25F6
ENCODING 9718
SWIDTH 960 0
DWIDTH 10 0
BBX 9 9 0 -1
BITMAP
3E00
4100
8080
8080
8F80
8880
8880
4900
3E00
ENDCHAR
STARTCHAR uni25F7
ENCODING 9719
SWIDTH 960 0
DWIDTH 10 0
BBX 9 9 0 -1
BITMAP
3E00
4900
8880
8880
8F80
8080
8080
4100
3E00
ENDCHAR
STARTCHAR uni25F8
ENCODING 9720
SWIDTH 960 0
DWIDTH 10 0
BBX 9 9 0 -1
BITMAP
FF80
8100
8200
8400
8800
9000
A000
C000
8000
ENDCHAR
STARTCHAR uni25F9
ENCODING 9721
SWIDTH 960 0
DWIDTH 10 0
BBX 9 9 0 -1
BITMAP
FF80
4080
2080
1080
0880
0480
0280
0180
0080
ENDCHAR
STARTCHAR uni25FA
ENCODING 9722
SWIDTH 960 0
DWIDTH 10 0
BBX 9 9 0 -1
BITMAP
8000
C000
A000
9000
8800
8400
8200
8100
FF80
ENDCHAR
STARTCHAR uni25FB
ENCODING 9723
SWIDTH 960 0
DWIDTH 10 0
BBX 7 7 1 0
BITMAP
FE
82
82
82
82
82
FE
ENDCHAR
STARTCHAR uni25FC
ENCODING 9724
SWIDTH 960 0
DWIDTH 10 0
BBX 7 7 1 0
BITMAP
FE
FE
FE
FE
FE
FE
FE
ENDCHAR
STARTCHAR uni25FD
ENCODING 9725
SWIDTH 960 0
DWIDTH 10 0
BBX 5 5 2 1
BITMAP
F8
88
88
88
F8
ENDCHAR
STARTCHAR uni25FE
ENCODING 9726
SWIDTH 960 0
DWIDTH 10 0
BBX 5 5 2 1
BITMAP
F8
F8
F8
F8
F8
ENDCHAR
STARTCHAR uni25FF
ENCODING 9727
SWIDTH 960 0
DWIDTH 10 0
BBX 9 9 0 -1
BITMAP
0080
0180
0280
0480
0880
1080
2080
4080
FF80
ENDCHAR
STARTCHAR uni2600
ENCODING 9728
SWIDTH 960 0
DWIDTH 10 0
BBX 9 9 0 -1
BITMAP
0800
4100
1C00
3E00
BE80
3E00
1C00
4100
0800
ENDCHAR
STARTCHAR uni2601
ENCODING 9729
SWIDTH 960 0
DWIDTH 10 0
BBX 9 8 0 0
BITMAP
1C00
2200
6300
8080
8080
8480
4900
3600
ENDCHAR
STARTCHAR uni2602
ENCODING 9730
SWIDTH 960 0
DWIDTH 10 0
BBX 9 9 0 -1
BITMAP
0800
3E00
7F00
FF80
0800
0800
0800
2800
1000
ENDCHAR
STARTCHAR uni2603
ENCODING 9731
SWIDTH 960 0
DWIDTH 10 0
BBX 9 9 0 -1
BITMAP
BE80
3E00
7F00
2200
BE80
5100
5100
4100
3E00
ENDCHAR
STARTCHAR uni2604
ENCODING 9732
SWIDTH 960 0
DWIDTH 10 0
BBX 9 9 0 -1
BITMAP
0880
1100
1200
2400
0880
6300
9400
9000
6000
ENDCHAR
STARTCHAR uni2605
ENCODING 9733
SWIDTH 960 0
DWIDTH 10 0
BBX 9 9 0 -1
BITMAP
0800
0800
1C00
FF80
3E00
1C00
3600
2200
4100
ENDCHAR
STARTCHAR uni2606
ENCODING 9734
SWIDTH 960 0
DWIDTH 10 0
BBX 9 9 0 -1
BITMAP
0800
0800
1400
F780
4100
2A00
3600
2200
4100
ENDCHAR
STARTCHAR uni2607
ENCODING 9735
SWIDTH 960 0
DWIDTH 10 0
BBX 5 9 2 -1
BITMAP
08
10
20
40
80
48
28
18
78
ENDCHAR
STARTCHAR uni2608
ENCODING 9736
SWIDTH 960 0
DWIDTH 10 0
BBX 7 9 1 -1
BITMAP
FE
84
88
90
A0
92
8A
86
9E
ENDCHAR
STARTCHAR uni2609
ENCODING 9737
SWIDTH 960 0
DWIDTH 10 0
BBX 7 7 1 0
BITMAP
38
44
82
92
82
44
38
ENDCHAR
STARTCHAR uni260A
ENCODING 9738
SWIDTH 960 0
DWIDTH 10 0
BBX 9 9 0 -1
BITMAP
3E00
4100
8080
8080
8080
4100
E380
A280
E380
ENDCHAR
STARTCHAR uni260B
ENCODING 9739
SWIDTH 960 0
DWIDTH 10 0
BBX 9 9 0 -1
BITMAP
E380
A280
E380
4100
8080
8080
8080
4100
3E00
ENDCHAR
STARTCHAR uni260C
ENCODING 9740
SWIDTH 960 0
DWIDTH 10 0
BBX 9 9 0 -1
BITMAP
0080
0100
0200
3400
4800
8400
8400
4800
3000
ENDCHAR
STARTCHAR uni260D
ENCODING 9741
SWIDTH 960 0
DWIDTH 10 0
BBX 9 9 0 -1
BITMAP
0300
0480
0480
0700
0800
7000
9000
9000
6000
ENDCHAR
STARTCHAR uni260E
ENCODING 9742
SWIDTH 960 0
DWIDTH 10 0
BBX 9 9 0 -1
BITMAP
3E00
FF80
FF80
DD80
3E00
7F00
E380
E380
FF80
ENDCHAR
STARTCHAR uni260F
ENCODING 9743
SWIDTH 960 0
DWIDTH 10 0
BBX 9 9 0 -1
BITMAP
3E00
C180
9C80
E380
2200
4100
9C80
9480
FF80
ENDCHAR
STARTCHAR uni2610
ENCODING 9744
SWIDTH 960 0
DWIDTH 10 0
BBX 7 7 1 0
BITMAP
FE
82
82
82
82
82
FE
ENDCHAR
STARTCHAR uni2611
ENCODING 9745
SWIDTH 960 0
DWIDTH 10 0
BBX 7 7 1 0
BITMAP
FE
82
86
8A
D2
A2
FE
ENDCHAR
STARTCHAR uni2612
ENCODING 9746
SWIDTH 960 0
DWIDTH 10 0
BBX 7 7 1 0
BITMAP
FE
C6
AA
92
AA
C6
FE
ENDCHAR
STARTCHAR uni2613
ENCODING 9747
SWIDTH 960 0
DWIDTH 10 0
BBX 7 7 1 0
BITMAP
82
44
28
10
28
44
82
ENDCHAR
STARTCHAR uni2614
ENCODING 9748
SWIDTH 960 0
DWIDTH 10 0
BBX 9 9 0 -1
BITMAP
2200
8880
3E00
7F00
FF80
0800
0800
2800
1000
ENDCHAR
STARTCHAR uni2616
ENCODING 9750
SWIDTH 960 0
DWIDTH 10 0
BBX 7 9 1 -1
BITMAP
10
28
44
82
82
82
82
82
FE
ENDCHAR
STARTCHAR uni2617
ENCODING 9751
SWIDTH 960 0
DWIDTH 10 0
BBX 7 9 1 -1
BITMAP
10
38
7C
FE
FE
FE
FE
FE
FE
ENDCHAR
STARTCHAR uni261C
ENCODING 9756
SWIDTH 960 0
DWIDTH 10 0
BBX 9 8 0 0
BITMAP
1800
1400
FA00
8380
6280
2280
1280
0F80
ENDCHAR
STARTCHAR uni261D
ENCODING 9757
SWIDTH 960 0
DWIDTH 10 0
BBX 8 9 1 -1
BITMAP
0C
14
34
47
85
82
FC
88
F8
ENDCHAR
STARTCHAR uni261E
ENCODING 9758
SWIDTH 960 0
DWIDTH 10 0
BBX 9 8 0 0
BITMAP
0C00
1400
2F80
E080
A300
A200
A400
F800
ENDCHAR
STARTCHAR uni261F
ENCODING 9759
SWIDTH 960 0
DWIDTH 10 0
BBX 8 9 1 -1
BITMAP
F8
88
FC
82
85
47
34
14
0C
ENDCHAR
STARTCHAR uni2620
ENCODING 9760
SWIDTH 960 0
DWIDTH 10 0
BBX 9 9 0 -1
BITMAP
3E00
7F00
7F00
4900
4900
7F00
B680
7F00
AA80
ENDCHAR
STARTCHAR uni262A
ENCODING 9770
SWIDTH 960 0
DWIDTH 10 0
BBX 9 9 0 -1
BITMAP
3E00
7100
E000
E100
E380
E100
E000
7100
3E00
ENDCHAR
STARTCHAR uni262B
ENCODING 9771
SWIDTH 960 0
DWIDTH 10 0
BBX 9 9 0 -1
BITMAP
2A00
3600
4900
9C80
AA80
AA80
AA80
5D00
0800
ENDCHAR
STARTCHAR uni262C
ENCODING 9772
SWIDTH 960 0
DWIDTH 10 0
BBX 9 9 0 -1
BITMAP
2A00
4900
9C80
AA80
AA80
9C80
C980
9C80
2A00
ENDCHAR
STARTCHAR uni262D
ENCODING 9773
SWIDTH 960 0
DWIDTH 10 0
BBX 9 9 0 -1
BITMAP
3E00
4100
0880
1080
2880
0500
2200
5D00
8080
ENDCHAR
STARTCHAR uni262E
ENCODING 9774
SWIDTH 960 0
DWIDTH 10 0
BBX 9 9 0 -1
BITMAP
3E00
4900
8880
8880
8880
9C80
AA80
4900
3E00
ENDCHAR
STARTCHAR uni262F
ENCODING 9775
SWIDTH 960 0
DWIDTH 10 0
BBX 9 9 0 -1
BITMAP
3E00
7D00
EC80
FC80
F880
F080
E480
6100
3E00
ENDCHAR
STARTCHAR uni2630
ENCODING 9776
SWIDTH 960 0
DWIDTH 10 0
BBX 9 7 0 0
BITMAP
FF80
0000
0000
FF80
0000
0000
FF80
ENDCHAR
STARTCHAR uni2631
ENCODING 9777
SWIDTH 960 0
DWIDTH 10 0
BBX 9 7 0 0
BITMAP
F780
0000
0000
FF80
0000
0000
FF80
ENDCHAR
STARTCHAR uni2632
ENCODING 9778
SWIDTH 960 0
DWIDTH 10 0
BBX 9 7 0 0
BITMAP
FF80
0000
0000
F780
0000
0000
FF80
ENDCHAR
STARTCHAR uni2633
ENCODING 9779
SWIDTH 960 0
DWIDTH 10 0
BBX 9 7 0 0
BITMAP
F780
0000
0000
F780
0000
0000
FF80
ENDCHAR
STARTCHAR uni2634
ENCODING 9780
SWIDTH 960 0
DWIDTH 10 0
BBX 9 7 0 0
BITMAP
FF80
0000
0000
FF80
0000
0000
F780
ENDCHAR
STARTCHAR uni2635
ENCODING 9781
SWIDTH 960 0
DWIDTH 10 0
BBX 9 7 0 0
BITMAP
F780
0000
0000
FF80
0000
0000
F780
ENDCHAR
STARTCHAR uni2636
ENCODING 9782
SWIDTH 960 0
DWIDTH 10 0
BBX 9 7 0 0
BITMAP
FF80
0000
0000
F780
0000
0000
F780
ENDCHAR
STARTCHAR uni2637
ENCODING 9783
SWIDTH 960 0
DWIDTH 10 0
BBX 9 7 0 0
BITMAP
F780
0000
0000
F780
0000
0000
F780
ENDCHAR
STARTCHAR uni2638
ENCODING 9784
SWIDTH 960 0
DWIDTH 10 0
BBX 9 9 0 -1
BITMAP
0800
5D00
2A00
5D00
F780
5D00
2A00
5D00
0800
ENDCHAR
STARTCHAR uni2639
ENCODING 9785
SWIDTH 960 0
DWIDTH 10 0
BBX 9 9 0 -1
BITMAP
3E00
4100
9480
9480
8080
9C80
A280
4100
3E00
ENDCHAR
STARTCHAR uni263A
ENCODING 9786
SWIDTH 960 0
DWIDTH 10 0
BBX 9 9 0 -1
BITMAP
3E00
4100
9480
9480
8080
A280
9C80
4100
3E00
ENDCHAR
STARTCHAR uni263B
ENCODING 9787
SWIDTH 960 0
DWIDTH 10 0
BBX 9 9 0 -1
BITMAP
3E00
7F00
EB80
EB80
FF80
DD80
E380
7F00
3E00
ENDCHAR
STARTCHAR uni263C
ENCODING 9788
SWIDTH 960 0
DWIDTH 10 0
BBX 9 9 0 -1
BITMAP
0800
4100
1C00
2200
A280
2200
1C00
4100
0800
ENDCHAR
STARTCHAR uni263D
ENCODING 9789
SWIDTH 960 0
DWIDTH 10 0
BBX 7 9 1 -1
BITMAP
F8
24
12
12
12
12
12
24
F8
ENDCHAR
STARTCHAR uni263E
ENCODING 9790
SWIDTH 960 0
DWIDTH 10 0
BBX 7 9 1 -1
BITMAP
3E
48
90
90
90
90
90
48
3E
ENDCHAR
STARTCHAR uni2640
ENCODING 9792
SWIDTH 960 0
DWIDTH 10 0
BBX 7 9 1 -1
BITMAP
38
44
44
44
38
10
FE
10
10
ENDCHAR
STARTCHAR uni2641
ENCODING 9793
SWIDTH 960 0
DWIDTH 10 0
BBX 7 9 1 -1
BITMAP
10
10
FE
10
38
44
44
44
38
ENDCHAR
STARTCHAR uni2642
ENCODING 9794
SWIDTH 960 0
DWIDTH 10 0
BBX 9 9 0 -1
BITMAP
0F80
0180
0280
0480
7880
8800
8800
8800
7000
ENDCHAR
STARTCHAR uni2648
ENCODING 9800
SWIDTH 960 0
DWIDTH 10 0
BBX 9 9 0 -1
BITMAP
6300
9480
9480
1400
1400
0800
0800
0800
0800
ENDCHAR
STARTCHAR uni2649
ENCODING 9801
SWIDTH 960 0
DWIDTH 10 0
BBX 9 7 0 0
BITMAP
C180
2200
1C00
2200
2200
2200
1C00
ENDCHAR
STARTCHAR uni264A
ENCODING 9802
SWIDTH 960 0
DWIDTH 10 0
BBX 7 9 1 -1
BITMAP
82
7C
28
28
28
28
28
7C
82
ENDCHAR
STARTCHAR uni264B
ENCODING 9803
SWIDTH 960 0
DWIDTH 10 0
BBX 9 9 0 -1
BITMAP
7C00
8B00
8880
7000
0000
0700
8880
6880
1F00
ENDCHAR
STARTCHAR uni264C
ENCODING 9804
SWIDTH 960 0
DWIDTH 10 0
BBX 9 9 0 -1
BITMAP
1E00
2100
2100
1100
7200
9200
9200
6280
0100
ENDCHAR
STARTCHAR uni264D
ENCODING 9805
SWIDTH 960 0
DWIDTH 10 0
BBX 7 9 1 -1
BITMAP
50
A8
AC
AA
AA
AA
AA
04
3A
ENDCHAR
STARTCHAR uni264E
ENCODING 9806
SWIDTH 960 0
DWIDTH 10 0
BBX 9 9 0 -1
BITMAP
1C00
2200
4100
4100
4100
2200
E380
0000
FF80
ENDCHAR
STARTCHAR uni264F
ENCODING 9807
SWIDTH 960 0
DWIDTH 10 0
BBX 8 9 1 -1
BITMAP
50
A8
A8
A8
A8
A8
A9
09
07
ENDCHAR
STARTCHAR uni2650
ENCODING 9808
SWIDTH 960 0
DWIDTH 10 0
BBX 9 9 0 -1
BITMAP
0F80
0180
8280
4480
2880
1000
2800
4400
8200
ENDCHAR
STARTCHAR uni2651
ENCODING 9809
SWIDTH 960 0
DWIDTH 10 0
BBX 9 9 0 -1
BITMAP
D800
2400
2400
2400
2700
2480
0480
0700
0800
ENDCHAR
STARTCHAR uni2652
ENCODING 9810
SWIDTH 960 0
DWIDTH 10 0
BBX 9 7 0 0
BITMAP
8600
4900
3080
0000
8600
4900
3080
ENDCHAR
STARTCHAR uni2653
ENCODING 9811
SWIDTH 960 0
DWIDTH 10 0
BBX 9 9 0 -1
BITMAP
8080
4100
2200
2200
FF80
2200
2200
4100
8080
ENDCHAR
STARTCHAR uni2654
ENCODING 9812
SWIDTH 960 0
DWIDTH 10 0
BBX 9 9 0 -1
BITMAP
0800
1C00
6B00
9480
8880
8880
7F00
4100
7F00
ENDCHAR
STARTCHAR uni2655
ENCODING 9813
SWIDTH 960 0
DWIDTH 10 0
BBX 9 9 0 -1
BITMAP
0800
4900
2A00
9480
6300
2200
3E00
2200
3E00
ENDCHAR
STARTCHAR uni2656
ENCODING 9814
SWIDTH 960 0
DWIDTH 10 0
BBX 9 9 0 -1
BITMAP
4900
7F00
4100
2200
2200
2200
7F00
8080
FF80
ENDCHAR
STARTCHAR uni2657
ENCODING 9815
SWIDTH 960 0
DWIDTH 10 0
BBX 7 9 1 -1
BITMAP
10
28
54
BA
92
44
7C
82
FE
ENDCHAR
STARTCHAR uni2658
ENCODING 9816
SWIDTH 960 0
DWIDTH 10 0
BBX 7 9 1 -1
BITMAP
0C
32
4A
82
BA
D2
3C
42
7E
ENDCHAR
STARTCHAR uni2659
ENCODING 9817
SWIDTH 960 0
DWIDTH 10 0
BBX 7 9 1 -1
BITMAP
38
44
44
44
38
44
44
82
FE
ENDCHAR
STARTCHAR uni265A
ENCODING 9818
SWIDTH 960 0
DWIDTH 10 0
BBX 9 9 0 -1
BITMAP
0800
1C00
6B00
F780
FF80
F780
7700
4100
7F00
ENDCHAR
STARTCHAR uni265B
ENCODING 9819
SWIDTH 960 0
DWIDTH 10 0
BBX 9 9 0 -1
BITMAP
0800
4900
2A00
9C80
7F00
3E00
3E00
2200
3E00
ENDCHAR
STARTCHAR uni265C
ENCODING 9820
SWIDTH 960 0
DWIDTH 10 0
BBX 9 9 0 -1
BITMAP
4900
7F00
7F00
3E00
3E00
3E00
7F00
8080
FF80
ENDCHAR
STARTCHAR uni265D
ENCODING 9821
SWIDTH 960 0
DWIDTH 10 0
BBX 7 9 1 -1
BITMAP
10
38
6C
C6
EE
7C
7C
82
FE
ENDCHAR
STARTCHAR uni265E
ENCODING 9822
SWIDTH 960 0
DWIDTH 10 0
BBX 7 9 1 -1
BITMAP
0C
3E
76
FE
CE
1E
3C
42
7E
ENDCHAR
STARTCHAR uni265F
ENCODING 9823
SWIDTH 960 0
DWIDTH 10 0
BBX 7 9 1 -1
BITMAP
38
7C
7C
7C
38
44
7C
7C
FE
ENDCHAR
STARTCHAR uni2660
ENCODING 9824
SWIDTH 960 0
DWIDTH 10 0
BBX 9 9 0 -1
BITMAP
0800
1C00
3E00
7F00
FF80
FF80
6B00
0800
3E00
ENDCHAR
STARTCHAR uni2661
ENCODING 9825
SWIDTH 960 0
DWIDTH 10 0
BBX 9 9 0 -1
BITMAP
6300
9480
8880
8080
8080
4100
2200
1400
0800
ENDCHAR
STARTCHAR uni2662
ENCODING 9826
SWIDTH 960 0
DWIDTH 10 0
BBX 9 9 0 -1
BITMAP
0800
1400
2200
4100
8080
4100
2200
1400
0800
ENDCHAR
STARTCHAR uni2663
ENCODING 9827
SWIDTH 960 0
DWIDTH 10 0
BBX 9 9 0 -1
BITMAP
1C00
3E00
1C00
6B00
FF80
FF80
6B00
0800
3E00
ENDCHAR
STARTCHAR uni2664
ENCODING 9828
SWIDTH 960 0
DWIDTH 10 0
BBX 9 9 0 -1
BITMAP
0800
1400
2200
4100
8080
9480
6B00
0800
3E00
ENDCHAR
STARTCHAR uni2665
ENCODING 9829
SWIDTH 960 0
DWIDTH 10 0
BBX 9 9 0 -1
BITMAP
6300
F780
FF80
FF80
FF80
7F00
3E00
1C00
0800
ENDCHAR
STARTCHAR uni2666
ENCODING 9830
SWIDTH 960 0
DWIDTH 10 0
BBX 9 9 0 -1
BITMAP
0800
1C00
3E00
7F00
FF80
7F00
3E00
1C00
0800
ENDCHAR
STARTCHAR uni2667
ENCODING 9831
SWIDTH 960 0
DWIDTH 10 0
BBX 9 9 0 -1
BITMAP
1C00
2200
2200
7700
8080
9C80
6B00
0800
3E00
ENDCHAR
STARTCHAR uni2668
ENCODING 9832
SWIDTH 960 0
DWIDTH 10 0
BBX 9 9 0 -1
BITMAP
2480
4900
4900
4900
2480
2480
4900
8080
7F00
ENDCHAR
STARTCHAR uni2669
ENCODING 9833
SWIDTH 960 0
DWIDTH 10 0
BBX 3 9 2 -1
BITMAP
20
20
20
20
20
20
60
E0
C0
ENDCHAR
STARTCHAR uni266A
ENCODING 9834
SWIDTH 960 0
DWIDTH 10 0
BBX 5 9 2 -1
BITMAP
20
30
28
28
28
20
60
E0
C0
ENDCHAR
STARTCHAR uni266B
ENCODING 9835
SWIDTH 960 0
DWIDTH 10 0
BBX 9 9 0 -1
BITMAP
0780
3880
2080
2080
2080
2180
6380
E300
C000
ENDCHAR
STARTCHAR uni266C
ENCODING 9836
SWIDTH 960 0
DWIDTH 10 0
BBX 9 9 0 -1
BITMAP
0780
3880
2780
3880
2080
2180
6380
E300
C000
ENDCHAR
STARTCHAR uni266D
ENCODING 9837
SWIDTH 960 0
DWIDTH 10 0
BBX 5 9 2 -1
BITMAP
80
80
80
B0
C8
88
90
A0
C0
ENDCHAR
STARTCHAR uni266E
ENCODING 9838
SWIDTH 960 0
DWIDTH 10 0
BBX 4 9 3 -1
BITMAP
80
80
B0
D0
90
90
B0
D0
10
ENDCHAR
STARTCHAR uni266F
ENCODING 9839
SWIDTH 960 0
DWIDTH 10 0
BBX 8 9 1 -1
BITMAP
04
27
3C
E4
24
27
3C
E4
20
ENDCHAR
STARTCHAR uni2680
ENCODING 9856
SWIDTH 960 0
DWIDTH 10 0
BBX 9 9 0 -1
BITMAP
7F00
8080
8080
8080
8880
8080
8080
8080
7F00
ENDCHAR
STARTCHAR uni2681
ENCODING 9857
SWIDTH 960 0
DWIDTH 10 0
BBX 9 9 0 -1
BITMAP
7F00
8080
A080
8080
8080
8080
8280
8080
7F00
ENDCHAR
STARTCHAR uni2682
ENCODING 9858
SWIDTH 960 0
DWIDTH 10 0
BBX 9 9 0 -1
BITMAP
7F00
8080
A080
8080
8880
8080
8280
8080
7F00
ENDCHAR
STARTCHAR uni2683
ENCODING 9859
SWIDTH 960 0
DWIDTH 10 0
BBX 9 9 0 -1
BITMAP
7F00
8080
A280
8080
8080
8080
A280
8080
7F00
ENDCHAR
STARTCHAR uni2684
ENCODING 9860
SWIDTH 960 0
DWIDTH 10 0
BBX 9 9 0 -1
BITMAP
7F00
8080
A280
8080
8880
8080
A280
8080
7F00
ENDCHAR
STARTCHAR uni2685
ENCODING 9861
SWIDTH 960 0
DWIDTH 10 0
BBX 9 9 0 -1
BITMAP
7F00
8080
A280
8080
A280
8080
A280
8080
7F00
ENDCHAR
STARTCHAR uni2686
ENCODING 9862
SWIDTH 960 0
DWIDTH 10 0
BBX 9 9 0 -1
BITMAP
3E00
4100
8080
8080
8280
8080
8080
4100
3E00
ENDCHAR
STARTCHAR uni2687
ENCODING 9863
SWIDTH 960 0
DWIDTH 10 0
BBX 9 9 0 -1
BITMAP
3E00
4100
8080
8080
A280
8080
8080
4100
3E00
ENDCHAR
STARTCHAR uni2688
ENCODING 9864
SWIDTH 960 0
DWIDTH 10 0
BBX 9 9 0 -1
BITMAP
3E00
7F00
FF80
FF80
FD80
FF80
FF80
7F00
3E00
ENDCHAR
STARTCHAR uni2689
ENCODING 9865
SWIDTH 960 0
DWIDTH 10 0
BBX 9 9 0 -1
BITMAP
3E00
7F00
FF80
FF80
DD80
FF80
FF80
7F00
3E00
ENDCHAR
STARTCHAR uni268A
ENCODING 9866
SWIDTH 960 0
DWIDTH 10 0
BBX 9 1 0 3
BITMAP
FF80
ENDCHAR
STARTCHAR uni268B
ENCODING 9867
SWIDTH 960 0
DWIDTH 10 0
BBX 9 1 0 3
BITMAP
F780
ENDCHAR
STARTCHAR uni268C
ENCODING 9868
SWIDTH 960 0
DWIDTH 10 0
BBX 9 4 0 2
BITMAP
FF80
0000
0000
FF80
ENDCHAR
STARTCHAR uni268D
ENCODING 9869
SWIDTH 960 0
DWIDTH 10 0
BBX 9 4 0 2
BITMAP
F780
0000
0000
FF80
ENDCHAR
STARTCHAR uni268E
ENCODING 9870
SWIDTH 960 0
DWIDTH 10 0
BBX 9 4 0 2
BITMAP
FF80
0000
0000
F780
ENDCHAR
STARTCHAR uni268F
ENCODING 9871
SWIDTH 960 0
DWIDTH 10 0
BBX 9 4 0 2
BITMAP
F780
0000
0000
F780
ENDCHAR
STARTCHAR uni2690
ENCODING 9872
SWIDTH 960 0
DWIDTH 10 0
BBX 7 9 1 -1
BITMAP
E0
9E
82
82
E2
9E
80
80
80
ENDCHAR
STARTCHAR uni2691
ENCODING 9873
SWIDTH 960 0
DWIDTH 10 0
BBX 7 9 1 -1
BITMAP
E0
FE
FE
FE
FE
9E
80
80
80
ENDCHAR
STARTCHAR uni2693
ENCODING 9875
SWIDTH 960 0
DWIDTH 10 0
BBX 9 9 0 -1
BITMAP
0800
1400
0800
3E00
0800
0800
9C80
7F00
1C00
ENDCHAR
STARTCHAR uni2694
ENCODING 9876
SWIDTH 960 0
DWIDTH 10 0
BBX 9 9 0 -1
BITMAP
8080
4100
2200
1400
0800
9480
E380
6300
B680
ENDCHAR
STARTCHAR uni2695
ENCODING 9877
SWIDTH 960 0
DWIDTH 10 0
BBX 7 9 1 -1
BITMAP
10
7E
90
7C
12
3C
50
38
10
ENDCHAR
STARTCHAR uni2698
ENCODING 9880
SWIDTH 960 0
DWIDTH 10 0
BBX 9 9 0 -1
BITMAP
1C00
2200
2200
1C00
0800
C980
6B00
1C00
0800
ENDCHAR
STARTCHAR uni2699
ENCODING 9881
SWIDTH 960 0
DWIDTH 10 0
BBX 9 9 0 -1
BITMAP
8880
5D00
2200
4100
C980
4100
2200
5D00
8880
ENDCHAR
STARTCHAR uni269A
ENCODING 9882
SWIDTH 960 0
DWIDTH 10 0
BBX 9 9 0 -1
BITMAP
0800
1400
C980
7700
3E00
1C00
0800
0800
0800
ENDCHAR
STARTCHAR uni26AA
ENCODING 9898
SWIDTH 960 0
DWIDTH 10 0
BBX 9 9 0 -1
BITMAP
3E00
4100
8080
8080
8080
8080
8080
4100
3E00
ENDCHAR
STARTCHAR uni26AB
ENCODING 9899
SWIDTH 960 0
DWIDTH 10 0
BBX 9 9 0 -1
BITMAP
3E00
7F00
FF80
FF80
FF80
FF80
FF80
7F00
3E00
ENDCHAR
STARTCHAR uni26AC
ENCODING 9900
SWIDTH 960 0
DWIDTH 10 0
BBX 5 5 2 1
BITMAP
70
88
88
88
70
ENDCHAR
STARTCHAR uni26C4
ENCODING 9924
SWIDTH 960 0
DWIDTH 10 0
BBX 9 9 0 -1
BITMAP
3E00
3E00
7F00
2200
BE80
5100
5100
4100
3E00
ENDCHAR
STARTCHAR uni26C5
ENCODING 9925
SWIDTH 960 0
DWIDTH 10 0
BBX 9 9 0 -1
BITMAP
0800
4100
1C00
2300
AC80
7080
8080
8880
7700
ENDCHAR
STARTCHAR uni26C6
ENCODING 9926
SWIDTH 960 0
DWIDTH 10 0
BBX 9 9 0 -1
BITMAP
0E00
1F00
7F80
FF80
FF80
7F00
0000
4900
9200
ENDCHAR
STARTCHAR uni26C7
ENCODING 9927
SWIDTH 960 0
DWIDTH 10 0
BBX 9 9 0 -1
BITMAP
BE80
3E00
7F00
3E00
BE80
4100
6F00
6F00
3E00
ENDCHAR
STARTCHAR uni26C8
ENCODING 9928
SWIDTH 960 0
DWIDTH 10 0
BBX 9 9 0 -1
BITMAP
0E00
1B00
7780
E180
FB80
7700
0000
4900
9200
ENDCHAR
STARTCHAR uni26C9
ENCODING 9929
SWIDTH 960 0
DWIDTH 10 0
BBX 7 9 1 -1
BITMAP
FE
82
82
82
82
82
44
28
10
ENDCHAR
STARTCHAR uni26CA
ENCODING 9930
SWIDTH 960 0
DWIDTH 10 0
BBX 7 9 1 -1
BITMAP
FE
FE
FE
FE
FE
FE
7C
38
10
ENDCHAR
STARTCHAR uni26CB
ENCODING 9931
SWIDTH 960 0
DWIDTH 10 0
BBX 9 9 0 -1
BITMAP
FF80
8880
9480
A280
C180
A280
9480
8880
FF80
ENDCHAR
STARTCHAR uni26D3
ENCODING 9939
SWIDTH 960 0
DWIDTH 10 0
BBX 7 9 1 -1
BITMAP
A4
EE
4A
4A
EE
A4
A4
EE
4A
ENDCHAR
STARTCHAR uni26E2
ENCODING 9954
SWIDTH 960 0
DWIDTH 10 0
BBX 5 9 2 -1
BITMAP
20
70
A8
20
70
88
A8
88
70
ENDCHAR
STARTCHAR uni26E8
ENCODING 9960
SWIDTH 960 0
DWIDTH 10 0
BBX 7 9 1 -1
BITMAP
FE
82
92
BA
92
92
82
44
38
ENDCHAR
STARTCHAR uni26E9
ENCODING 9961
SWIDTH 960 0
DWIDTH 10 0
BBX 9 9 0 -1
BITMAP
8080
FF80
7F00
4900
FF80
4100
4100
4100
4100
ENDCHAR
STARTCHAR uni26EA
ENCODING 9962
SWIDTH 960 0
DWIDTH 10 0
BBX 9 9 0 -1
BITMAP
0800
1C00
0800
1400
2200
6B00
AA80
AA80
FF80
ENDCHAR
STARTCHAR uni26EB
ENCODING 9963
SWIDTH 960 0
DWIDTH 10 0
BBX 9 9 0 -1
BITMAP
DD80
B680
8080
A280
A280
8080
9C80
9C80
FF80
ENDCHAR
STARTCHAR uni26EC
ENCODING 9964
SWIDTH 960 0
DWIDTH 10 0
BBX 8 7 1 0
BITMAP
18
18
00
00
00
C3
C3
ENDCHAR
STARTCHAR uni26F1
ENCODING 9969
SWIDTH 960 0
DWIDTH 10 0
BBX 9 9 0 -1
BITMAP
3000
1D00
0E00
0700
0B00
1180
2080
4000
FF00
ENDCHAR
STARTCHAR uni26F2
ENCODING 9970
SWIDTH 960 0
DWIDTH 10 0
BBX 9 9 0 -1
BITMAP
6300
9480
5500
0000
9C80
3E00
1C00
1C00
7F00
ENDCHAR
STARTCHAR uni26F5
ENCODING 9973
SWIDTH 960 0
DWIDTH 10 0
BBX 9 9 0 -1
BITMAP
0600
3500
5500
9480
F780
0400
FF80
7F80
3F00
ENDCHAR
STARTCHAR uni26F6
ENCODING 9974
SWIDTH 960 0
DWIDTH 10 0
BBX 9 9 0 -1
BITMAP
6300
8080
8080
0000
0000
0000
8080
8080
6300
ENDCHAR
STARTCHAR uni26FC
ENCODING 9980
SWIDTH 960 0
DWIDTH 10 0
BBX 9 7 0 0
BITMAP
0800
0800
3E00
0000
4100
4100
F780
ENDCHAR
STARTCHAR uni26FD
ENCODING 9981
SWIDTH 960 0
DWIDTH 10 0
BBX 9 9 0 -1
BITMAP
3800
7C00
4600
4500
7C80
7E80
7D00
7C00
FE00
ENDCHAR
STARTCHAR uni26FF
ENCODING 9983
SWIDTH 960 0
DWIDTH 10 0
BBX 9 9 0 -1
BITMAP
FF80
8080
FF80
FF80
8080
FF80
8000
8000
8000
ENDCHAR
STARTCHAR uni2708
ENCODING 9992
SWIDTH 960 0
DWIDTH 10 0
BBX 9 9 0 -1
BITMAP
1000
1C00
9800
CC00
FF80
CC00
9800
1C00
1000
ENDCHAR
STARTCHAR uni2709
ENCODING 9993
SWIDTH 960 0
DWIDTH 10 0
BBX 9 7 0 0
BITMAP
FF80
C180
A280
9480
8880
8080
FF80
ENDCHAR
STARTCHAR uni2776
ENCODING 10102
SWIDTH 960 0
DWIDTH 10 0
BBX 9 9 0 -1
BITMAP
3E00
7F00
F780
E780
F780
F780
E380
7F00
3E00
ENDCHAR
STARTCHAR uni2777
ENCODING 10103
SWIDTH 960 0
DWIDTH 10 0
BBX 9 9 0 -1
BITMAP
3E00
7F00
E380
FB80
E380
EF80
E380
7F00
3E00
ENDCHAR
STARTCHAR uni2778
ENCODING 10104
SWIDTH 960 0
DWIDTH 10 0
BBX 9 9 0 -1
BITMAP
3E00
7F00
E380
FB80
E380
FB80
E380
7F00
3E00
ENDCHAR
STARTCHAR uni2779
ENCODING 10105
SWIDTH 960 0
DWIDTH 10 0
BBX 9 9 0 -1
BITMAP
3E00
7F00
F380
EB80
EB80
E380
FB80
7F00
3E00
ENDCHAR
STARTCHAR uni277A
ENCODING 10106
SWIDTH 960 0
DWIDTH 10 0
BBX 9 9 0 -1
BITMAP
3E00
7F00
E380
EF80
E380
FB80
E380
7F00
3E00
ENDCHAR
STARTCHAR uni277B
ENCODING 10107
SWIDTH 960 0
DWIDTH 10 0
BBX 9 9 0 -1
BITMAP
3E00
7F00
E380
EF80
E380
EB80
E380
7F00
3E00
ENDCHAR
STARTCHAR uni277C
ENCODING 10108
SWIDTH 960 0
DWIDTH 10 0
BBX 9 9 0 -1
BITMAP
3E00
7F00
E380
FB80
F780
F780
F780
7F00
3E00
ENDCHAR
STARTCHAR uni277D
ENCODING 10109
SWIDTH 960 0
DWIDTH 10 0
BBX 9 9 0 -1
BITMAP
3E00
7F00
E380
EB80
E380
EB80
E380
7F00
3E00
ENDCHAR
STARTCHAR uni277E
ENCODING 10110
SWIDTH 960 0
DWIDTH 10 0
BBX 9 9 0 -1
BITMAP
3E00
7F00
E380
EB80
E380
FB80
E380
7F00
3E00
ENDCHAR
STARTCHAR uni277F
ENCODING 10111
SWIDTH 960 0
DWIDTH 10 0
BBX 9 9 0 -1
BITMAP
3E00
7F00
D180
D580
D580
D580
D180
7F00
3E00
ENDCHAR
STARTCHAR uni2780
ENCODING 10112
SWIDTH 960 0
DWIDTH 10 0
BBX 9 9 0 -1
BITMAP
3E00
4100
8880
9880
8880
8880
9C80
4100
3E00
ENDCHAR
STARTCHAR uni2781
ENCODING 10113
SWIDTH 960 0
DWIDTH 10 0
BBX 9 9 0 -1
BITMAP
3E00
4100
9C80
8480
9C80
9080
9C80
4100
3E00
ENDCHAR
STARTCHAR uni2782
ENCODING 10114
SWIDTH 960 0
DWIDTH 10 0
BBX 9 9 0 -1
BITMAP
3E00
4100
9C80
8480
9C80
8480
9C80
4100
3E00
ENDCHAR
STARTCHAR uni2783
ENCODING 10115
SWIDTH 960 0
DWIDTH 10 0
BBX 9 9 0 -1
BITMAP
3E00
4100
8C80
9480
9480
9C80
8480
4100
3E00
ENDCHAR
STARTCHAR uni2784
ENCODING 10116
SWIDTH 960 0
DWIDTH 10 0
BBX 9 9 0 -1
BITMAP
3E00
4100
9C80
9080
9C80
8480
9C80
4100
3E00
ENDCHAR
STARTCHAR uni2785
ENCODING 10117
SWIDTH 960 0
DWIDTH 10 0
BBX 9 9 0 -1
BITMAP
3E00
4100
9C80
9080
9C80
9480
9C80
4100
3E00
ENDCHAR
STARTCHAR uni2786
ENCODING 10118
SWIDTH 960 0
DWIDTH 10 0
BBX 9 9 0 -1
BITMAP
3E00
4100
9C80
8480
8880
8880
8880
4100
3E00
ENDCHAR
STARTCHAR uni2787
ENCODING 10119
SWIDTH 960 0
DWIDTH 10 0
BBX 9 9 0 -1
BITMAP
3E00
4100
9C80
9480
9C80
9480
9C80
4100
3E00
ENDCHAR
STARTCHAR uni2788
ENCODING 10120
SWIDTH 960 0
DWIDTH 10 0
BBX 9 9 0 -1
BITMAP
3E00
4100
9C80
9480
9C80
8480
9C80
4100
3E00
ENDCHAR
STARTCHAR uni2789
ENCODING 10121
SWIDTH 960 0
DWIDTH 10 0
BBX 9 9 0 -1
BITMAP
3E00
4100
AE80
AA80
AA80
AA80
AE80
4100
3E00
ENDCHAR
STARTCHAR uni278A
ENCODING 10122
SWIDTH 960 0
DWIDTH 10 0
BBX 9 9 0 -1
BITMAP
3E00
7F00
F780
E780
F780
F780
E380
7F00
3E00
ENDCHAR
STARTCHAR uni278B
ENCODING 10123
SWIDTH 960 0
DWIDTH 10 0
BBX 9 9 0 -1
BITMAP
3E00
7F00
E380
FB80
E380
EF80
E380
7F00
3E00
ENDCHAR
STARTCHAR uni278C
ENCODING 10124
SWIDTH 960 0
DWIDTH 10 0
BBX 9 9 0 -1
BITMAP
3E00
7F00
E380
FB80
E380
FB80
E380
7F00
3E00
ENDCHAR
STARTCHAR uni278D
ENCODING 10125
SWIDTH 960 0
DWIDTH 10 0
BBX 9 9 0 -1
BITMAP
3E00
7F00
F380
EB80
EB80
E380
FB80
7F00
3E00
ENDCHAR
STARTCHAR uni278E
ENCODING 10126
SWIDTH 960 0
DWIDTH 10 0
BBX 9 9 0 -1
BITMAP
3E00
7F00
E380
EF80
E380
FB80
E380
7F00
3E00
ENDCHAR
STARTCHAR uni278F
ENCODING 10127
SWIDTH 960 0
DWIDTH 10 0
BBX 9 9 0 -1
BITMAP
3E00
7F00
E380
EF80
E380
EB80
E380
7F00
3E00
ENDCHAR
STARTCHAR uni2790
ENCODING 10128
SWIDTH 960 0
DWIDTH 10 0
BBX 9 9 0 -1
BITMAP
3E00
7F00
E380
FB80
F780
F780
F780
7F00
3E00
ENDCHAR
STARTCHAR uni2791
ENCODING 10129
SWIDTH 960 0
DWIDTH 10 0
BBX 9 9 0 -1
BITMAP
3E00
7F00
E380
EB80
E380
EB80
E380
7F00
3E00
ENDCHAR
STARTCHAR uni2792
ENCODING 10130
SWIDTH 960 0
DWIDTH 10 0
BBX 9 9 0 -1
BITMAP
3E00
7F00
E380
EB80
E380
FB80
E380
7F00
3E00
ENDCHAR
STARTCHAR uni2793
ENCODING 10131
SWIDTH 960 0
DWIDTH 10 0
BBX 9 9 0 -1
BITMAP
3E00
7F00
D180
D580
D580
D580
D180
7F00
3E00
ENDCHAR
STARTCHAR uni3000
ENCODING 12288
SWIDTH 960 0
DWIDTH 10 0
BBX 0 0 10 -1
BITMAP
ENDCHAR
STARTCHAR uni3001
ENCODING 12289
SWIDTH 960 0
DWIDTH 10 0
BBX 2 3 1 -1
BITMAP
80
40
40
ENDCHAR
STARTCHAR uni3002
ENCODING 12290
SWIDTH 960 0
DWIDTH 10 0
BBX 4 4 0 -1
BITMAP
60
90
90
60
ENDCHAR
STARTCHAR uni3003
ENCODING 12291
SWIDTH 960 0
DWIDTH 10 0
BBX 5 5 2 1
BITMAP
48
48
48
90
90
ENDCHAR
STARTCHAR uni3004
ENCODING 12292
SWIDTH 960 0
DWIDTH 10 0
BBX 9 9 0 -1
BITMAP
3A00
4300
8A80
8C80
8880
9880
A880
6100
2E00
ENDCHAR
STARTCHAR uni3005
ENCODING 12293
SWIDTH 960 0
DWIDTH 10 0
BBX 7 7 1 0
BITMAP
20
3E
42
84
28
10
08
ENDCHAR
STARTCHAR uni3006
ENCODING 12294
SWIDTH 960 0
DWIDTH 10 0
BBX 7 7 1 0
BITMAP
02
34
48
94
A2
C0
80
ENDCHAR
STARTCHAR uni3007
ENCODING 12295
SWIDTH 960 0
DWIDTH 10 0
BBX 9 9 0 -1
BITMAP
3E00
4100
8080
8080
8080
8080
8080
4100
3E00
ENDCHAR
STARTCHAR uni3008
ENCODING 12296
SWIDTH 960 0
DWIDTH 10 0
BBX 3 9 5 -1
BITMAP
20
20
40
40
80
40
40
20
20
ENDCHAR
STARTCHAR uni3009
ENCODING 12297
SWIDTH 960 0
DWIDTH 10 0
BBX 3 9 1 -1
BITMAP
80
80
40
40
20
40
40
80
80
ENDCHAR
STARTCHAR uni300A
ENCODING 12298
SWIDTH 960 0
DWIDTH 10 0
BBX 6 9 2 -1
BITMAP
24
24
48
48
90
48
48
24
24
ENDCHAR
STARTCHAR uni300B
ENCODING 12299
SWIDTH 960 0
DWIDTH 10 0
BBX 6 9 1 -1
BITMAP
90
90
48
48
24
48
48
90
90
ENDCHAR
STARTCHAR uni300C
ENCODING 12300
SWIDTH 960 0
DWIDTH 10 0
BBX 3 7 5 1
BITMAP
E0
80
80
80
80
80
80
ENDCHAR
STARTCHAR uni300D
ENCODING 12301
SWIDTH 960 0
DWIDTH 10 0
BBX 3 7 1 -1
BITMAP
20
20
20
20
20
20
E0
ENDCHAR
STARTCHAR uni300E
ENCODING 12302
SWIDTH 960 0
DWIDTH 10 0
BBX 5 7 3 1
BITMAP
F8
88
B8
A0
A0
A0
E0
ENDCHAR
STARTCHAR uni300F
ENCODING 12303
SWIDTH 960 0
DWIDTH 10 0
BBX 5 7 1 -1
BITMAP
38
28
28
28
E8
88
F8
ENDCHAR
STARTCHAR uni3010
ENCODING 12304
SWIDTH 960 0
DWIDTH 10 0
BBX 4 9 4 -1
BITMAP
F0
E0
C0
C0
C0
C0
C0
E0
F0
ENDCHAR
STARTCHAR uni3011
ENCODING 12305
SWIDTH 960 0
DWIDTH 10 0
BBX 4 9 1 -1
BITMAP
F0
70
30
30
30
30
30
70
F0
ENDCHAR
STARTCHAR uni3012
ENCODING 12306
SWIDTH 960 0
DWIDTH 10 0
BBX 7 7 1 0
BITMAP
FE
00
00
FE
10
10
10
ENDCHAR
STARTCHAR uni3013
ENCODING 12307
SWIDTH 960 0
DWIDTH 10 0
BBX 7 6 1 1
BITMAP
FE
FE
00
00
FE
FE
ENDCHAR
STARTCHAR uni3014
ENCODING 12308
SWIDTH 960 0
DWIDTH 10 0
BBX 3 9 5 -1
BITMAP
20
40
80
80
80
80
80
40
20
ENDCHAR
STARTCHAR uni3015
ENCODING 12309
SWIDTH 960 0
DWIDTH 10 0
BBX 3 9 1 -1
BITMAP
80
40
20
20
20
20
20
40
80
ENDCHAR
STARTCHAR uni3016
ENCODING 12310
SWIDTH 960 0
DWIDTH 10 0
BBX 5 9 3 -1
BITMAP
F8
90
A0
A0
A0
A0
A0
90
F8
ENDCHAR
STARTCHAR uni3017
ENCODING 12311
SWIDTH 960 0
DWIDTH 10 0
BBX 5 9 1 -1
BITMAP
F8
48
28
28
28
28
28
48
F8
ENDCHAR
STARTCHAR uni3018
ENCODING 12312
SWIDTH 960 0
DWIDTH 10 0
BBX 4 9 4 -1
BITMAP
30
50
A0
A0
A0
A0
A0
50
30
ENDCHAR
STARTCHAR uni3019
ENCODING 12313
SWIDTH 960 0
DWIDTH 10 0
BBX 4 9 1 -1
BITMAP
C0
A0
50
50
50
50
50
A0
C0
ENDCHAR
STARTCHAR uni301A
ENCODING 12314
SWIDTH 960 0
DWIDTH 10 0
BBX 4 9 4 -1
BITMAP
F0
A0
A0
A0
A0
A0
A0
A0
F0
ENDCHAR
STARTCHAR uni301B
ENCODING 12315
SWIDTH 960 0
DWIDTH 10 0
BBX 4 9 1 -1
BITMAP
F0
50
50
50
50
50
50
50
F0
ENDCHAR
STARTCHAR uni301C
ENCODING 12316
SWIDTH 960 0
DWIDTH 10 0
BBX 9 3 0 2
BITMAP
7000
8880
0700
ENDCHAR
STARTCHAR uni301D
ENCODING 12317
SWIDTH 960 0
DWIDTH 10 0
BBX 4 3 4 5
BITMAP
A0
A0
50
ENDCHAR
STARTCHAR uni301E
ENCODING 12318
SWIDTH 960 0
DWIDTH 10 0
BBX 4 3 1 5
BITMAP
50
50
A0
ENDCHAR
STARTCHAR uni301F
ENCODING 12319
SWIDTH 960 0
DWIDTH 10 0
BBX 4 3 1 -1
BITMAP
A0
50
50
ENDCHAR
STARTCHAR uni3020
ENCODING 12320
SWIDTH 960 0
DWIDTH 10 0
BBX 7 8 1 0
BITMAP
FE
00
FE
10
54
10
82
7C
ENDCHAR
STARTCHAR uni3021
ENCODING 12321
SWIDTH 960 0
DWIDTH 10 0
BBX 1 9 4 -1
BITMAP
80
80
80
80
80
80
80
80
80
ENDCHAR
STARTCHAR uni3022
ENCODING 12322
SWIDTH 960 0
DWIDTH 10 0
BBX 5 9 2 -1
BITMAP
08
88
88
88
88
88
88
88
08
ENDCHAR
STARTCHAR uni3023
ENCODING 12323
SWIDTH 960 0
DWIDTH 10 0
BBX 7 9 1 -1
BITMAP
02
82
92
92
92
92
92
82
02
ENDCHAR
STARTCHAR uni3024
ENCODING 12324
SWIDTH 960 0
DWIDTH 10 0
BBX 9 9 0 -1
BITMAP
0100
4100
2100
1200
0A00
0400
0A00
3100
C080
ENDCHAR
STARTCHAR uni3025
ENCODING 12325
SWIDTH 960 0
DWIDTH 10 0
BBX 7 9 1 -1
BITMAP
22
44
88
78
24
44
44
44
38
ENDCHAR
STARTCHAR uni3026
ENCODING 12326
SWIDTH 960 0
DWIDTH 10 0
BBX 9 3 0 5
BITMAP
0800
0800
FF80
ENDCHAR
STARTCHAR uni3027
ENCODING 12327
SWIDTH 960 0
DWIDTH 10 0
BBX 9 7 0 1
BITMAP
0800
0800
FF80
0000
0000
0000
7F00
ENDCHAR
STARTCHAR uni3028
ENCODING 12328
SWIDTH 960 0
DWIDTH 10 0
BBX 9 9 0 -1
BITMAP
0800
0800
FF80
0000
0000
7F00
0000
0000
FF80
ENDCHAR
STARTCHAR uni3029
ENCODING 12329
SWIDTH 960 0
DWIDTH 10 0
BBX 9 9 0 -1
BITMAP
2000
3F80
4200
A200
1200
0A00
0400
1A00
E100
ENDCHAR
STARTCHAR uni3036
ENCODING 12342
SWIDTH 960 0
DWIDTH 10 0
BBX 9 9 0 -1
BITMAP
3E00
4100
BE80
8080
BE80
8880
8880
4100
3E00
ENDCHAR
STARTCHAR uni3037
ENCODING 12343
SWIDTH 960 0
DWIDTH 10 0
BBX 9 9 0 -1
BITMAP
8880
8880
5500
5500
2200
5500
5500
8880
8880
ENDCHAR
STARTCHAR uni3038
ENCODING 12344
SWIDTH 960 0
DWIDTH 10 0
BBX 9 9 0 -1
BITMAP
0800
0800
0800
FF80
0800
0800
0800
0800
0800
ENDCHAR
STARTCHAR uni3039
ENCODING 12345
SWIDTH 960 0
DWIDTH 10 0
BBX 9 9 0 -1
BITMAP
2200
2200
2200
FF80
2200
2200
2200
2200
2200
ENDCHAR
STARTCHAR uni303A
ENCODING 12346
SWIDTH 960 0
DWIDTH 10 0
BBX 9 9 0 -1
BITMAP
4900
4900
4900
FF80
4900
4900
4900
4900
8100
ENDCHAR
STARTCHAR uni303C
ENCODING 12348
SWIDTH 960 0
DWIDTH 10 0
BBX 9 9 0 -1
BITMAP
FF80
8180
8280
8480
8880
9080
A080
C080
FF80
ENDCHAR
STARTCHAR uni303E
ENCODING 12350
SWIDTH 960 0
DWIDTH 10 0
BBX 9 9 0 -1
BITMAP
AA80
0000
9A80
2C00
8080
0800
BE80
1000
AA80
ENDCHAR
STARTCHAR uni303F
ENCODING 12351
SWIDTH 960 0
DWIDTH 10 0
BBX 7 9 1 -1
BITMAP
FE
C6
AA
AA
92
AA
AA
C6
FE
ENDCHAR
STARTCHAR uni3041
ENCODING 12353
SWIDTH 960 0
DWIDTH 10 0
BBX 8 8 0 -1
BITMAP
10
7C
10
3E
55
99
91
66
ENDCHAR
STARTCHAR uni3042
ENCODING 12354
SWIDTH 960 0
DWIDTH 10 0
BBX 9 9 0 -1
BITMAP
1000
7F00
1000
3E00
5500
9480
9880
9080
6300
ENDCHAR
STARTCHAR uni3043
ENCODING 12355
SWIDTH 960 0
DWIDTH 10 0
BBX 7 7 1 -1
BITMAP
84
84
82
82
A2
A2
40
ENDCHAR
STARTCHAR uni3044
ENCODING 12356
SWIDTH 960 0
DWIDTH 10 0
BBX 9 8 0 -1
BITMAP
8200
8100
8100
8080
8080
9080
5080
6000
ENDCHAR
STARTCHAR uni3045
ENCODING 12357
SWIDTH 960 0
DWIDTH 10 0
BBX 7 8 1 -1
BITMAP
78
00
7C
82
02
02
0C
70
ENDCHAR
STARTCHAR uni3046
ENCODING 12358
SWIDTH 960 0
DWIDTH 10 0
BBX 8 9 0 -1
BITMAP
3C
00
3E
C1
01
01
01
06
38
ENDCHAR
STARTCHAR uni3047
ENCODING 12359
SWIDTH 960 0
DWIDTH 10 0
BBX 7 8 1 -1
BITMAP
78
00
FC
08
10
28
48
86
ENDCHAR
STARTCHAR uni3048
ENCODING 12360
SWIDTH 960 0
DWIDTH 10 0
BBX 9 9 0 -1
BITMAP
3C00
0000
FE00
0400
0800
1800
2400
4400
8380
ENDCHAR
STARTCHAR uni3049
ENCODING 12361
SWIDTH 960 0
DWIDTH 10 0
BBX 9 8 0 -1
BITMAP
1000
7D00
1080
3E00
5100
9100
9100
6600
ENDCHAR
STARTCHAR uni304A
ENCODING 12362
SWIDTH 960 0
DWIDTH 10 0
BBX 9 9 0 -1
BITMAP
1200
FD00
1080
3E00
5100
9080
9080
9080
6300
ENDCHAR
STARTCHAR uni304B
ENCODING 12363
SWIDTH 960 0
DWIDTH 10 0
BBX 9 9 0 -1
BITMAP
2000
2200
F900
2480
2480
2400
4400
4400
9800
ENDCHAR
STARTCHAR uni304C
ENCODING 12364
SWIDTH 960 0
DWIDTH 10 0
BBX 9 9 0 -1
BITMAP
2280
2280
F900
2480
2480
2400
4400
4400
9800
ENDCHAR
STARTCHAR uni304D
ENCODING 12365
SWIDTH 960 0
DWIDTH 10 0
BBX 9 9 0 -1
BITMAP
0800
7F00
0400
FF80
0200
3F00
4100
4000
3E00
ENDCHAR
STARTCHAR uni304E
ENCODING 12366
SWIDTH 960 0
DWIDTH 10 0
BBX 9 9 0 -1
BITMAP
0A80
7E80
0400
FF80
0200
3F00
4100
4000
3E00
ENDCHAR
STARTCHAR uni304F
ENCODING 12367
SWIDTH 960 0
DWIDTH 10 0
BBX 7 9 1 -1
BITMAP
02
04
18
60
80
60
18
04
02
ENDCHAR
STARTCHAR uni3050
ENCODING 12368
SWIDTH 960 0
DWIDTH 10 0
BBX 9 9 0 -1
BITMAP
0200
0400
1A80
6280
8000
6000
1800
0400
0200
ENDCHAR
STARTCHAR uni3051
ENCODING 12369
SWIDTH 960 0
DWIDTH 10 0
BBX 9 9 0 -1
BITMAP
8200
8200
BF80
8200
8200
8200
8200
8400
1800
ENDCHAR
STARTCHAR uni3052
ENCODING 12370
SWIDTH 960 0
DWIDTH 10 0
BBX 9 9 0 -1
BITMAP
8280
8280
BF00
8200
8200
8200
8200
8400
1800
ENDCHAR
STARTCHAR uni3053
ENCODING 12371
SWIDTH 960 0
DWIDTH 10 0
BBX 8 8 0 -1
BITMAP
7E
00
00
00
40
80
80
7F
ENDCHAR
STARTCHAR uni3054
ENCODING 12372
SWIDTH 960 0
DWIDTH 10 0
BBX 9 9 0 -1
BITMAP
0280
7A80
0000
0000
0000
4000
8000
8000
7F00
ENDCHAR
STARTCHAR uni3055
ENCODING 12373
SWIDTH 960 0
DWIDTH 10 0
BBX 8 9 0 -1
BITMAP
08
FF
04
04
7E
82
80
80
7E
ENDCHAR
STARTCHAR uni3056
ENCODING 12374
SWIDTH 960 0
DWIDTH 10 0
BBX 9 9 0 -1
BITMAP
0A80
FE80
0400
0400
7E00
8200
8000
8000
7E00
ENDCHAR
STARTCHAR uni3057
ENCODING 12375
SWIDTH 960 0
DWIDTH 10 0
BBX 7 9 1 -1
BITMAP
80
80
80
80
80
82
82
84
78
ENDCHAR
STARTCHAR uni3058
ENCODING 12376
SWIDTH 960 0
DWIDTH 10 0
BBX 7 9 1 -1
BITMAP
80
8A
8A
80
80
82
82
84
78
ENDCHAR
STARTCHAR uni3059
ENCODING 12377
SWIDTH 960 0
DWIDTH 10 0
BBX 9 9 0 -1
BITMAP
0400
FF80
0400
1C00
2400
2400
1C00
0400
3800
ENDCHAR
STARTCHAR uni305A
ENCODING 12378
SWIDTH 960 0
DWIDTH 10 0
BBX 9 9 0 -1
BITMAP
0A80
FE80
0800
3800
4800
4800
3800
0800
7000
ENDCHAR
STARTCHAR uni305B
ENCODING 12379
SWIDTH 960 0
DWIDTH 10 0
BBX 9 9 0 -1
BITMAP
4200
4200
FF80
4200
4200
4C00
4000
4000
3F00
ENDCHAR
STARTCHAR uni305C
ENCODING 12380
SWIDTH 960 0
DWIDTH 10 0
BBX 9 9 0 -1
BITMAP
4280
4280
FF80
4200
4200
4C00
4000
4000
3F00
ENDCHAR
STARTCHAR uni305D
ENCODING 12381
SWIDTH 960 0
DWIDTH 10 0
BBX 9 9 0 -1
BITMAP
7E00
0800
1000
FF80
0800
1000
1000
1000
0E00
ENDCHAR
STARTCHAR uni305E
ENCODING 12382
SWIDTH 960 0
DWIDTH 10 0
BBX 9 9 0 -1
BITMAP
7E80
0A80
1000
FF80
0800
1000
1000
1000
0E00
ENDCHAR
STARTCHAR uni305F
ENCODING 12383
SWIDTH 960 0
DWIDTH 10 0
BBX 8 9 0 -1
BITMAP
20
FE
20
2F
40
40
48
90
8F
ENDCHAR
STARTCHAR uni3060
ENCODING 12384
SWIDTH 960 0
DWIDTH 10 0
BBX 9 9 0 -1
BITMAP
2280
FA80
2000
2F00
4000
4000
4800
9000
8F00
ENDCHAR
STARTCHAR uni3061
ENCODING 12385
SWIDTH 960 0
DWIDTH 10 0
BBX 8 9 0 -1
BITMAP
10
FF
20
20
7E
41
01
01
3E
ENDCHAR
STARTCHAR uni3062
ENCODING 12386
SWIDTH 960 0
DWIDTH 10 0
BBX 9 9 0 -1
BITMAP
1280
FE80
2000
2000
7E00
4100
0100
0100
3E00
ENDCHAR
STARTCHAR uni3063
ENCODING 12387
SWIDTH 960 0
DWIDTH 10 0
BBX 8 6 0 0
BITMAP
3E
C1
01
01
02
3C
ENDCHAR
STARTCHAR uni3064
ENCODING 12388
SWIDTH 960 0
DWIDTH 10 0
BBX 9 8 0 -1
BITMAP
3E00
C100
0080
0080
0080
0080
0300
3C00
ENDCHAR
STARTCHAR uni3065
ENCODING 12389
SWIDTH 960 0
DWIDTH 10 0
BBX 9 9 0 -1
BITMAP
0280
3E80
C100
0080
0080
0080
0080
0300
3C00
ENDCHAR
STARTCHAR uni3066
ENCODING 12390
SWIDTH 960 0
DWIDTH 10 0
BBX 9 8 0 -1
BITMAP
FF80
0400
0800
1000
1000
1000
0800
0700
ENDCHAR
STARTCHAR uni3067
ENCODING 12391
SWIDTH 960 0
DWIDTH 10 0
BBX 9 8 0 -1
BITMAP
FF00
0800
1280
2280
2000
2000
1000
0E00
ENDCHAR
STARTCHAR uni3068
ENCODING 12392
SWIDTH 960 0
DWIDTH 10 0
BBX 8 9 0 -1
BITMAP
40
43
2C
30
40
80
80
40
3F
ENDCHAR
STARTCHAR uni3069
ENCODING 12393
SWIDTH 960 0
DWIDTH 10 0
BBX 9 9 0 -1
BITMAP
4280
4280
2C00
3000
4000
8000
8000
4000
3F00
ENDCHAR
STARTCHAR uni306A
ENCODING 12394
SWIDTH 960 0
DWIDTH 10 0
BBX 9 9 0 -1
BITMAP
2000
F700
2080
4200
4200
4E00
9300
9280
0C00
ENDCHAR
STARTCHAR uni306B
ENCODING 12395
SWIDTH 960 0
DWIDTH 10 0
BBX 9 9 0 -1
BITMAP
8000
9F80
8000
8000
8000
8800
9000
9000
8F80
ENDCHAR
STARTCHAR uni306C
ENCODING 12396
SWIDTH 960 0
DWIDTH 10 0
BBX 9 9 0 -1
BITMAP
2400
3E00
6500
A880
A880
9080
9680
A900
4680
ENDCHAR
STARTCHAR uni306D
ENCODING 12397
SWIDTH 960 0
DWIDTH 10 0
BBX 9 9 0 -1
BITMAP
2000
EE00
3100
2080
6080
A080
A680
2900
2680
ENDCHAR
STARTCHAR uni306E
ENCODING 12398
SWIDTH 960 0
DWIDTH 10 0
BBX 9 8 0 -1
BITMAP
3E00
4900
8880
8880
8880
9080
9100
6600
ENDCHAR
STARTCHAR uni306F
ENCODING 12399
SWIDTH 960 0
DWIDTH 10 0
BBX 9 9 0 -1
BITMAP
8200
8200
9F80
8200
8200
8E00
9300
9280
8C00
ENDCHAR
STARTCHAR uni3070
ENCODING 12400
SWIDTH 960 0
DWIDTH 10 0
BBX 9 9 0 -1
BITMAP
8280
8280
9F80
8200
8200
8E00
9300
9280
8C00
ENDCHAR
STARTCHAR uni3071
ENCODING 12401
SWIDTH 960 0
DWIDTH 10 0
BBX 9 9 0 -1
BITMAP
8500
8680
BD00
8400
8400
9C00
A600
A500
9800
ENDCHAR
STARTCHAR uni3072
ENCODING 12402
SWIDTH 960 0
DWIDTH 10 0
BBX 9 9 0 -1
BITMAP
F400
2400
4200
8380
8200
8200
8200
4400
3800
ENDCHAR
STARTCHAR uni3073
ENCODING 12403
SWIDTH 960 0
DWIDTH 10 0
BBX 9 9 0 -1
BITMAP
F280
2280
4400
8300
8280
8200
8200
4400
3800
ENDCHAR
STARTCHAR uni3074
ENCODING 12404
SWIDTH 960 0
DWIDTH 10 0
BBX 9 9 0 -1
BITMAP
F100
2280
4500
8300
8280
8200
8200
4400
3800
ENDCHAR
STARTCHAR uni3075
ENCODING 12405
SWIDTH 960 0
DWIDTH 10 0
BBX 9 9 0 -1
BITMAP
3C00
0800
1000
1000
4900
4500
8480
8480
3800
ENDCHAR
STARTCHAR uni3076
ENCODING 12406
SWIDTH 960 0
DWIDTH 10 0
BBX 9 9 0 -1
BITMAP
3C00
0A80
1280
1000
4900
4500
8480
8480
3800
ENDCHAR
STARTCHAR uni3077
ENCODING 12407
SWIDTH 960 0
DWIDTH 10 0
BBX 9 9 0 -1
BITMAP
3D00
0A80
1100
1000
4900
4500
8480
8480
3800
ENDCHAR
STARTCHAR uni3078
ENCODING 12408
SWIDTH 960 0
DWIDTH 10 0
BBX 9 7 0 0
BITMAP
1000
2800
4400
4400
8200
8100
0080
ENDCHAR
STARTCHAR uni3079
ENCODING 12409
SWIDTH 960 0
DWIDTH 10 0
BBX 9 8 0 0
BITMAP
0280
1280
2800
4400
4400
8200
8100
0080
ENDCHAR
STARTCHAR uni307A
ENCODING 12410
SWIDTH 960 0
DWIDTH 10 0
BBX 9 8 0 0
BITMAP
0100
1280
2900
4400
4400
8200
8100
0080
ENDCHAR
STARTCHAR uni307B
ENCODING 12411
SWIDTH 960 0
DWIDTH 10 0
BBX 9 9 0 -1
BITMAP
9F80
8200
9F80
8200
8200
8E00
9300
9280
8C00
ENDCHAR
STARTCHAR uni307C
ENCODING 12412
SWIDTH 960 0
DWIDTH 10 0
BBX 9 9 0 -1
BITMAP
BE80
8480
BF00
8400
8400
9C00
A600
A500
9800
ENDCHAR
STARTCHAR uni307D
ENCODING 12413
SWIDTH 960 0
DWIDTH 10 0
BBX 9 9 0 -1
BITMAP
BD00
8680
BD00
8400
8400
9C00
A600
A500
9800
ENDCHAR
STARTCHAR uni307E
ENCODING 12414
SWIDTH 960 0
DWIDTH 10 0
BBX 9 9 0 -1
BITMAP
0400
7F00
0400
FF80
0400
3C00
4600
4500
3800
ENDCHAR
STARTCHAR uni307F
ENCODING 12415
SWIDTH 960 0
DWIDTH 10 0
BBX 9 9 0 -1
BITMAP
7800
0800
0900
3D00
4B00
9180
9100
6200
0400
ENDCHAR
STARTCHAR uni3080
ENCODING 12416
SWIDTH 960 0
DWIDTH 10 0
BBX 9 9 0 -1
BITMAP
2000
2100
F880
2000
6000
A100
A100
6100
3E00
ENDCHAR
STARTCHAR uni3081
ENCODING 12417
SWIDTH 960 0
DWIDTH 10 0
BBX 9 9 0 -1
BITMAP
2400
3E00
6500
A480
A880
9880
9080
6100
0600
ENDCHAR
STARTCHAR uni3082
ENCODING 12418
SWIDTH 960 0
DWIDTH 10 0
BBX 8 9 0 -1
BITMAP
20
FC
20
20
FC
21
21
21
1E
ENDCHAR
STARTCHAR uni3083
ENCODING 12419
SWIDTH 960 0
DWIDTH 10 0
BBX 8 8 0 -1
BITMAP
48
5E
E1
21
21
16
10
10
ENDCHAR
STARTCHAR uni3084
ENCODING 12420
SWIDTH 960 0
DWIDTH 10 0
BBX 9 9 0 -1
BITMAP
4800
4B00
3C80
E080
2080
2700
1000
1000
1000
ENDCHAR
STARTCHAR uni3085
ENCODING 12421
SWIDTH 960 0
DWIDTH 10 0
BBX 8 8 0 -1
BITMAP
88
BE
C9
89
89
BE
08
30
ENDCHAR
STARTCHAR uni3086
ENCODING 12422
SWIDTH 960 0
DWIDTH 10 0
BBX 9 9 0 -1
BITMAP
0400
9F00
A480
C480
8480
A480
9F00
0400
1800
ENDCHAR
STARTCHAR uni3087
ENCODING 12423
SWIDTH 960 0
DWIDTH 10 0
BBX 8 8 0 -1
BITMAP
08
08
0F
08
78
8C
8A
71
ENDCHAR
STARTCHAR uni3088
ENCODING 12424
SWIDTH 960 0
DWIDTH 10 0
BBX 8 9 0 -1
BITMAP
08
08
0F
08
08
78
8C
8A
71
ENDCHAR
STARTCHAR uni3089
ENCODING 12425
SWIDTH 960 0
DWIDTH 10 0
BBX 8 9 0 -1
BITMAP
18
46
40
BC
C2
81
01
02
3C
ENDCHAR
STARTCHAR uni308A
ENCODING 12426
SWIDTH 960 0
DWIDTH 10 0
BBX 7 9 1 -1
BITMAP
98
A4
C2
82
82
82
02
04
38
ENDCHAR
STARTCHAR uni308B
ENCODING 12427
SWIDTH 960 0
DWIDTH 10 0
BBX 9 9 0 -1
BITMAP
7F00
0400
1800
3E00
4100
8080
1880
2500
1E00
ENDCHAR
STARTCHAR uni308C
ENCODING 12428
SWIDTH 960 0
DWIDTH 10 0
BBX 9 9 0 -1
BITMAP
2000
2C00
F200
2200
6200
6200
A200
A280
2100
ENDCHAR
STARTCHAR uni308D
ENCODING 12429
SWIDTH 960 0
DWIDTH 10 0
BBX 9 9 0 -1
BITMAP
7E00
0800
1000
3E00
4100
8080
0080
0100
3E00
ENDCHAR
STARTCHAR uni308E
ENCODING 12430
SWIDTH 960 0
DWIDTH 10 0
BBX 8 8 0 -1
BITMAP
20
2E
F1
21
61
A1
A2
24
ENDCHAR
STARTCHAR uni308F
ENCODING 12431
SWIDTH 960 0
DWIDTH 10 0
BBX 9 9 0 -1
BITMAP
2000
2E00
F100
2080
6080
6080
A080
A100
2600
ENDCHAR
STARTCHAR uni3090
ENCODING 12432
SWIDTH 960 0
DWIDTH 10 0
BBX 9 9 0 -1
BITMAP
7800
0800
3E00
4900
9080
9080
A380
A480
4300
ENDCHAR
STARTCHAR uni3091
ENCODING 12433
SWIDTH 960 0
DWIDTH 10 0
BBX 9 9 0 -1
BITMAP
7E00
0400
1E00
6900
1500
1E00
2000
7700
8880
ENDCHAR
STARTCHAR uni3092
ENCODING 12434
SWIDTH 960 0
DWIDTH 10 0
BBX 9 9 0 -1
BITMAP
0800
7F00
1000
3D80
4600
9A00
2200
2000
1F80
ENDCHAR
STARTCHAR uni3093
ENCODING 12435
SWIDTH 960 0
DWIDTH 10 0
BBX 9 9 0 -1
BITMAP
1000
1000
2000
2000
5000
6880
4880
8900
8600
ENDCHAR
STARTCHAR uni3094
ENCODING 12436
SWIDTH 960 0
DWIDTH 10 0
BBX 9 9 0 -1
BITMAP
3A80
0280
3E00
C100
0100
0100
0100
0600
3800
ENDCHAR
STARTCHAR uni3095
ENCODING 12437
SWIDTH 960 0
DWIDTH 10 0
BBX 8 8 0 -1
BITMAP
20
22
F9
25
24
44
44
98
ENDCHAR
STARTCHAR uni3096
ENCODING 12438
SWIDTH 960 0
DWIDTH 10 0
BBX 8 8 0 -1
BITMAP
84
84
BF
84
84
84
84
18
ENDCHAR
STARTCHAR uni3099
ENCODING 12441
SWIDTH 960 0
DWIDTH 10 0
BBX 3 2 6 6
BITMAP
A0
A0
ENDCHAR
STARTCHAR uni309A
ENCODING 12442
SWIDTH 960 0
DWIDTH 10 0
BBX 3 3 6 5
BITMAP
40
A0
40
ENDCHAR
STARTCHAR uni309B
ENCODING 12443
SWIDTH 960 0
DWIDTH 10 0
BBX 3 2 0 6
BITMAP
A0
A0
ENDCHAR
STARTCHAR uni309C
ENCODING 12444
SWIDTH 960 0
DWIDTH 10 0
BBX 3 3 0 5
BITMAP
40
A0
40
ENDCHAR
STARTCHAR uni309D
ENCODING 12445
SWIDTH 960 0
DWIDTH 10 0
BBX 4 6 2 0
BITMAP
80
40
20
10
20
C0
ENDCHAR
STARTCHAR uni309E
ENCODING 12446
SWIDTH 960 0
DWIDTH 10 0
BBX 7 7 2 0
BITMAP
0A
8A
40
20
10
20
C0
ENDCHAR
STARTCHAR uni309F
ENCODING 12447
SWIDTH 960 0
DWIDTH 10 0
BBX 9 9 0 -1
BITMAP
1380
1C00
2000
2E00
7100
4080
8080
A100
1E00
ENDCHAR
STARTCHAR uni30A0
ENCODING 12448
SWIDTH 960 0
DWIDTH 10 0
BBX 5 3 2 2
BITMAP
F8
00
F8
ENDCHAR
STARTCHAR uni30A1
ENCODING 12449
SWIDTH 960 0
DWIDTH 10 0
BBX 8 8 0 -1
BITMAP
FF
01
11
12
14
10
20
40
ENDCHAR
STARTCHAR uni30A2
ENCODING 12450
SWIDTH 960 0
DWIDTH 10 0
BBX 8 9 0 -1
BITMAP
FF
01
11
11
12
14
10
20
40
ENDCHAR
STARTCHAR uni30A3
ENCODING 12451
SWIDTH 960 0
DWIDTH 10 0
BBX 7 8 0 -1
BITMAP
02
04
18
E8
08
08
08
08
ENDCHAR
STARTCHAR uni30A4
ENCODING 12452
SWIDTH 960 0
DWIDTH 10 0
BBX 7 9 0 -1
BITMAP
02
04
08
38
C8
08
08
08
08
ENDCHAR
STARTCHAR uni30A5
ENCODING 12453
SWIDTH 960 0
DWIDTH 10 0
BBX 7 8 1 -1
BITMAP
10
FE
82
82
02
04
08
30
ENDCHAR
STARTCHAR uni30A6
ENCODING 12454
SWIDTH 960 0
DWIDTH 10 0
BBX 8 9 0 -1
BITMAP
10
FF
81
81
81
01
02
04
18
ENDCHAR
STARTCHAR uni30A7
ENCODING 12455
SWIDTH 960 0
DWIDTH 10 0
BBX 7 6 1 0
BITMAP
7C
10
10
10
10
FE
ENDCHAR
STARTCHAR uni30A8
ENCODING 12456
SWIDTH 960 0
DWIDTH 10 0
BBX 9 7 0 0
BITMAP
7F00
0800
0800
0800
0800
0800
FF80
ENDCHAR
STARTCHAR uni30A9
ENCODING 12457
SWIDTH 960 0
DWIDTH 10 0
BBX 7 8 1 -1
BITMAP
08
08
FE
18
28
48
88
18
ENDCHAR
STARTCHAR uni30AA
ENCODING 12458
SWIDTH 960 0
DWIDTH 10 0
BBX 9 9 0 -1
BITMAP
0200
0200
FF80
0A00
1200
2200
4200
8200
0C00
ENDCHAR
STARTCHAR uni30AB
ENCODING 12459
SWIDTH 960 0
DWIDTH 10 0
BBX 9 9 0 -1
BITMAP
1000
1000
FF80
1080
1080
2080
2080
4080
8700
ENDCHAR
STARTCHAR uni30AC
ENCODING 12460
SWIDTH 960 0
DWIDTH 10 0
BBX 9 9 0 -1
BITMAP
1280
1280
FF00
1100
1100
2100
2100
4100
8600
ENDCHAR
STARTCHAR uni30AD
ENCODING 12461
SWIDTH 960 0
DWIDTH 10 0
BBX 8 9 0 -1
BITMAP
10
10
FF
08
08
FF
04
04
04
ENDCHAR
STARTCHAR uni30AE
ENCODING 12462
SWIDTH 960 0
DWIDTH 10 0
BBX 9 9 0 -1
BITMAP
1280
1280
FE00
0800
0800
FF00
0400
0400
0400
ENDCHAR
STARTCHAR uni30AF
ENCODING 12463
SWIDTH 960 0
DWIDTH 10 0
BBX 8 9 0 -1
BITMAP
20
3F
21
41
81
02
02
0C
70
ENDCHAR
STARTCHAR uni30B0
ENCODING 12464
SWIDTH 960 0
DWIDTH 10 0
BBX 9 9 0 -1
BITMAP
2280
3E80
2100
4100
8100
0200
0200
0C00
7000
ENDCHAR
STARTCHAR uni30B1
ENCODING 12465
SWIDTH 960 0
DWIDTH 10 0
BBX 9 9 0 -1
BITMAP
2000
2000
3F80
4200
8200
0200
0400
0800
3000
ENDCHAR
STARTCHAR uni30B2
ENCODING 12466
SWIDTH 960 0
DWIDTH 10 0
BBX 9 9 0 -1
BITMAP
2280
2280
3F80
4200
8200
0200
0400
0800
3000
ENDCHAR
STARTCHAR uni30B3
ENCODING 12467
SWIDTH 960 0
DWIDTH 10 0
BBX 8 8 0 -1
BITMAP
FF
01
01
01
01
01
01
FF
ENDCHAR
STARTCHAR uni30B4
ENCODING 12468
SWIDTH 960 0
DWIDTH 10 0
BBX 9 9 0 -1
BITMAP
0280
FE80
0200
0200
0200
0200
0200
0200
FE00
ENDCHAR
STARTCHAR uni30B5
ENCODING 12469
SWIDTH 960 0
DWIDTH 10 0
BBX 9 9 0 -1
BITMAP
2200
2200
FF80
2200
2200
2200
0200
0400
3800
ENDCHAR
STARTCHAR uni30B6
ENCODING 12470
SWIDTH 960 0
DWIDTH 10 0
BBX 9 9 0 -1
BITMAP
2280
2280
FF80
2200
2200
2200
0200
0400
3800
ENDCHAR
STARTCHAR uni30B7
ENCODING 12471
SWIDTH 960 0
DWIDTH 10 0
BBX 8 9 0 -1
BITMAP
60
10
00
C1
21
02
02
0C
F0
ENDCHAR
STARTCHAR uni30B8
ENCODING 12472
SWIDTH 960 0
DWIDTH 10 0
BBX 9 9 0 -1
BITMAP
6280
1280
0000
C080
2080
0100
0200
0C00
7000
ENDCHAR
STARTCHAR uni30B9
ENCODING 12473
SWIDTH 960 0
DWIDTH 10 0
BBX 9 9 0 -1
BITMAP
FE00
0200
0200
0200
0400
0C00
1200
2100
C080
ENDCHAR
STARTCHAR uni30BA
ENCODING 12474
SWIDTH 960 0
DWIDTH 10 0
BBX 9 9 0 -1
BITMAP
FE80
0280
0200
0400
0400
0C00
1200
2100
C080
ENDCHAR
STARTCHAR uni30BB
ENCODING 12475
SWIDTH 960 0
DWIDTH 10 0
BBX 9 9 0 -1
BITMAP
2000
2000
2F80
F080
2100
2200
2000
2000
1F00
ENDCHAR
STARTCHAR uni30BC
ENCODING 12476
SWIDTH 960 0
DWIDTH 10 0
BBX 9 9 0 -1
BITMAP
2280
2280
2F80
F080
2100
2200
2000
2000
1F00
ENDCHAR
STARTCHAR uni30BD
ENCODING 12477
SWIDTH 960 0
DWIDTH 10 0
BBX 9 9 0 -1
BITMAP
8080
4080
4080
0100
0100
0200
0400
0800
3000
ENDCHAR
STARTCHAR uni30BE
ENCODING 12478
SWIDTH 960 0
DWIDTH 10 0
BBX 9 9 0 -1
BITMAP
0280
8280
4100
4100
0200
0200
0400
0800
3000
ENDCHAR
STARTCHAR uni30BF
ENCODING 12479
SWIDTH 960 0
DWIDTH 10 0
BBX 9 9 0 -1
BITMAP
2000
3F80
4080
A080
1100
0900
0600
0C00
7000
ENDCHAR
STARTCHAR uni30C0
ENCODING 12480
SWIDTH 960 0
DWIDTH 10 0
BBX 9 9 0 -1
BITMAP
2280
3E80
4100
A100
1100
0A00
0600
0C00
7000
ENDCHAR
STARTCHAR uni30C1
ENCODING 12481
SWIDTH 960 0
DWIDTH 10 0
BBX 9 9 0 -1
BITMAP
0100
7E00
0800
0800
FF80
0800
0800
1000
6000
ENDCHAR
STARTCHAR uni30C2
ENCODING 12482
SWIDTH 960 0
DWIDTH 10 0
BBX 9 9 0 -1
BITMAP
0280
7E80
0800
0800
FF80
0800
0800
1000
6000
ENDCHAR
STARTCHAR uni30C3
ENCODING 12483
SWIDTH 960 0
DWIDTH 10 0
BBX 8 7 0 -1
BITMAP
91
49
49
02
02
0C
30
ENDCHAR
STARTCHAR uni30C4
ENCODING 12484
SWIDTH 960 0
DWIDTH 10 0
BBX 9 8 0 -1
BITMAP
9080
4880
4880
0100
0100
0200
0C00
3000
ENDCHAR
STARTCHAR uni30C5
ENCODING 12485
SWIDTH 960 0
DWIDTH 10 0
BBX 9 9 0 -1
BITMAP
0280
9280
4800
4880
0080
0100
0200
0C00
3000
ENDCHAR
STARTCHAR uni30C6
ENCODING 12486
SWIDTH 960 0
DWIDTH 10 0
BBX 9 9 0 -1
BITMAP
7F00
0000
0000
FF80
0400
0400
0400
0800
3000
ENDCHAR
STARTCHAR uni30C7
ENCODING 12487
SWIDTH 960 0
DWIDTH 10 0
BBX 9 9 0 -1
BITMAP
7E80
0280
0000
FF80
0400
0400
0400
0800
3000
ENDCHAR
STARTCHAR uni30C8
ENCODING 12488
SWIDTH 960 0
DWIDTH 10 0
BBX 6 9 2 -1
BITMAP
80
80
80
E0
98
84
80
80
80
ENDCHAR
STARTCHAR uni30C9
ENCODING 12489
SWIDTH 960 0
DWIDTH 10 0
BBX 7 9 2 -1
BITMAP
8A
8A
80
E0
98
84
80
80
80
ENDCHAR
STARTCHAR uni30CA
ENCODING 12490
SWIDTH 960 0
DWIDTH 10 0
BBX 9 9 0 -1
BITMAP
0800
0800
FF80
0800
0800
0800
0800
1000
6000
ENDCHAR
STARTCHAR uni30CB
ENCODING 12491
SWIDTH 960 0
DWIDTH 10 0
BBX 8 7 0 0
BITMAP
7E
00
00
00
00
00
FF
ENDCHAR
STARTCHAR uni30CC
ENCODING 12492
SWIDTH 960 0
DWIDTH 10 0
BBX 8 9 0 -1
BITMAP
7F
01
01
32
0A
04
0A
31
C0
ENDCHAR
STARTCHAR uni30CD
ENCODING 12493
SWIDTH 960 0
DWIDTH 10 0
BBX 9 9 0 -1
BITMAP
0800
7F00
0100
0200
0C00
3A00
C980
0800
0800
ENDCHAR
STARTCHAR uni30CE
ENCODING 12494
SWIDTH 960 0
DWIDTH 10 0
BBX 7 9 0 -1
BITMAP
02
02
02
02
04
04
08
30
C0
ENDCHAR
STARTCHAR uni30CF
ENCODING 12495
SWIDTH 960 0
DWIDTH 10 0
BBX 9 9 0 -1
BITMAP
2200
2200
2200
2200
4100
4100
4100
8080
8080
ENDCHAR
STARTCHAR uni30D0
ENCODING 12496
SWIDTH 960 0
DWIDTH 10 0
BBX 9 9 0 -1
BITMAP
2280
2280
2200
2200
4100
4100
4100
8080
8080
ENDCHAR
STARTCHAR uni30D1
ENCODING 12497
SWIDTH 960 0
DWIDTH 10 0
BBX 9 9 0 -1
BITMAP
2300
2280
2300
2200
4100
4100
4100
8080
8080
ENDCHAR
STARTCHAR uni30D2
ENCODING 12498
SWIDTH 960 0
DWIDTH 10 0
BBX 8 9 1 -1
BITMAP
80
80
87
F8
80
80
80
80
7F
ENDCHAR
STARTCHAR uni30D3
ENCODING 12499
SWIDTH 960 0
DWIDTH 10 0
BBX 8 9 1 -1
BITMAP
85
85
86
F8
80
80
80
80
7F
ENDCHAR
STARTCHAR uni30D4
ENCODING 12500
SWIDTH 960 0
DWIDTH 10 0
BBX 8 9 1 -1
BITMAP
82
85
8E
F0
80
80
80
80
7F
ENDCHAR
STARTCHAR uni30D5
ENCODING 12501
SWIDTH 960 0
DWIDTH 10 0
BBX 8 8 0 -1
BITMAP
FF
01
01
01
01
02
04
38
ENDCHAR
STARTCHAR uni30D6
ENCODING 12502
SWIDTH 960 0
DWIDTH 10 0
BBX 9 9 0 -1
BITMAP
0280
FE80
0100
0100
0100
0100
0200
0400
1800
ENDCHAR
STARTCHAR uni30D7
ENCODING 12503
SWIDTH 960 0
DWIDTH 10 0
BBX 9 9 0 -1
BITMAP
0100
FE80
0100
0100
0100
0100
0200
0400
3800
ENDCHAR
STARTCHAR uni30D8
ENCODING 12504
SWIDTH 960 0
DWIDTH 10 0
BBX 9 7 0 0
BITMAP
1000
2800
4400
4400
8200
8100
0080
ENDCHAR
STARTCHAR uni30D9
ENCODING 12505
SWIDTH 960 0
DWIDTH 10 0
BBX 9 8 0 0
BITMAP
0280
1280
2800
4400
4400
8200
8100
0080
ENDCHAR
STARTCHAR uni30DA
ENCODING 12506
SWIDTH 960 0
DWIDTH 10 0
BBX 9 8 0 0
BITMAP
0100
1280
2900
4400
4400
8200
8100
0080
ENDCHAR
STARTCHAR uni30DB
ENCODING 12507
SWIDTH 960 0
DWIDTH 10 0
BBX 9 9 0 -1
BITMAP
0800
0800
FF80
0800
4900
4900
8880
8880
0800
ENDCHAR
STARTCHAR uni30DC
ENCODING 12508
SWIDTH 960 0
DWIDTH 10 0
BBX 9 9 0 -1
BITMAP
0A80
0A80
FF80
0800
4900
4900
8880
8880
0800
ENDCHAR
STARTCHAR uni30DD
ENCODING 12509
SWIDTH 960 0
DWIDTH 10 0
BBX 9 9 0 -1
BITMAP
0900
0A80
FF80
0800
4900
4900
8880
8880
0800
ENDCHAR
STARTCHAR uni30DE
ENCODING 12510
SWIDTH 960 0
DWIDTH 10 0
BBX 9 8 0 -1
BITMAP
FF80
0080
0100
0200
6400
1800
0800
0400
ENDCHAR
STARTCHAR uni30DF
ENCODING 12511
SWIDTH 960 0
DWIDTH 10 0
BBX 8 9 0 -1
BITMAP
70
0E
01
70
0E
01
F0
0E
01
ENDCHAR
STARTCHAR uni30E0
ENCODING 12512
SWIDTH 960 0
DWIDTH 10 0
BBX 9 9 0 -1
BITMAP
1000
1000
1000
2000
2200
2100
4300
FC80
0080
ENDCHAR
STARTCHAR uni30E1
ENCODING 12513
SWIDTH 960 0
DWIDTH 10 0
BBX 8 9 0 -1
BITMAP
02
02
22
14
0C
0C
12
21
C0
ENDCHAR
STARTCHAR uni30E2
ENCODING 12514
SWIDTH 960 0
DWIDTH 10 0
BBX 9 9 0 -1
BITMAP
7F00
1000
1000
FF80
1000
1000
1000
1000
0F00
ENDCHAR
STARTCHAR uni30E3
ENCODING 12515
SWIDTH 960 0
DWIDTH 10 0
BBX 8 8 0 -1
BITMAP
40
2F
F1
21
12
10
08
08
ENDCHAR
STARTCHAR uni30E4
ENCODING 12516
SWIDTH 960 0
DWIDTH 10 0
BBX 9 9 0 -1
BITMAP
4000
2780
3880
E080
1100
1200
1000
0800
0800
ENDCHAR
STARTCHAR uni30E5
ENCODING 12517
SWIDTH 960 0
DWIDTH 10 0
BBX 8 7 0 -1
BITMAP
7E
02
02
02
04
04
FF
ENDCHAR
STARTCHAR uni30E6
ENCODING 12518
SWIDTH 960 0
DWIDTH 10 0
BBX 9 8 0 -1
BITMAP
7F00
0100
0100
0100
0200
0200
0200
FF80
ENDCHAR
STARTCHAR uni30E7
ENCODING 12519
SWIDTH 960 0
DWIDTH 10 0
BBX 6 7 1 -1
BITMAP
FC
04
04
FC
04
04
FC
ENDCHAR
STARTCHAR uni30E8
ENCODING 12520
SWIDTH 960 0
DWIDTH 10 0
BBX 7 9 1 -1
BITMAP
FE
02
02
02
FE
02
02
02
FE
ENDCHAR
STARTCHAR uni30E9
ENCODING 12521
SWIDTH 960 0
DWIDTH 10 0
BBX 8 9 0 -1
BITMAP
7E
00
00
FF
01
02
02
0C
30
ENDCHAR
STARTCHAR uni30EA
ENCODING 12522
SWIDTH 960 0
DWIDTH 10 0
BBX 7 9 1 -1
BITMAP
82
82
82
82
82
02
02
04
38
ENDCHAR
STARTCHAR uni30EB
ENCODING 12523
SWIDTH 960 0
DWIDTH 10 0
BBX 9 9 0 -1
BITMAP
2400
2400
2400
2400
2480
2480
4480
4500
8600
ENDCHAR
STARTCHAR uni30EC
ENCODING 12524
SWIDTH 960 0
DWIDTH 10 0
BBX 7 9 1 -1
BITMAP
80
80
80
80
82
82
84
98
E0
ENDCHAR
STARTCHAR uni30ED
ENCODING 12525
SWIDTH 960 0
DWIDTH 10 0
BBX 8 8 0 0
BITMAP
FF
81
81
81
81
81
81
FF
ENDCHAR
STARTCHAR uni30EE
ENCODING 12526
SWIDTH 960 0
DWIDTH 10 0
BBX 7 8 1 -1
BITMAP
FE
82
82
02
02
04
08
30
ENDCHAR
STARTCHAR uni30EF
ENCODING 12527
SWIDTH 960 0
DWIDTH 10 0
BBX 8 9 0 -1
BITMAP
FF
81
81
81
01
01
02
04
38
ENDCHAR
STARTCHAR uni30F0
ENCODING 12528
SWIDTH 960 0
DWIDTH 10 0
BBX 9 9 0 -1
BITMAP
0200
0200
FF80
2200
2200
2200
FF80
0200
0200
ENDCHAR
STARTCHAR uni30F1
ENCODING 12529
SWIDTH 960 0
DWIDTH 10 0
BBX 9 8 0 -1
BITMAP
FF00
0100
0200
0C00
0800
0800
0800
FF80
ENDCHAR
STARTCHAR uni30F2
ENCODING 12530
SWIDTH 960 0
DWIDTH 10 0
BBX 8 9 0 -1
BITMAP
FF
01
01
FF
01
01
02
04
38
ENDCHAR
STARTCHAR uni30F3
ENCODING 12531
SWIDTH 960 0
DWIDTH 10 0
BBX 9 8 0 -1
BITMAP
C000
2080
0080
0100
0100
0200
0C00
7000
ENDCHAR
STARTCHAR uni30F4
ENCODING 12532
SWIDTH 960 0
DWIDTH 10 0
BBX 9 9 0 -1
BITMAP
1280
FE80
8100
8100
8100
0100
0200
0400
1800
ENDCHAR
STARTCHAR uni30F5
ENCODING 12533
SWIDTH 960 0
DWIDTH 10 0
BBX 7 8 1 -1
BITMAP
20
20
FE
22
22
22
42
8C
ENDCHAR
STARTCHAR uni30F6
ENCODING 12534
SWIDTH 960 0
DWIDTH 10 0
BBX 8 8 0 -1
BITMAP
20
20
3F
44
84
04
08
30
ENDCHAR
STARTCHAR uni30F7
ENCODING 12535
SWIDTH 960 0
DWIDTH 10 0
BBX 9 9 0 -1
BITMAP
0280
FE80
8100
8100
8100
0100
0200
0400
3800
ENDCHAR
STARTCHAR uni30F8
ENCODING 12536
SWIDTH 960 0
DWIDTH 10 0
BBX 9 9 0 -1
BITMAP
0280
0280
FF80
2200
2200
2200
FF80
0200
0200
ENDCHAR
STARTCHAR uni30F9
ENCODING 12537
SWIDTH 960 0
DWIDTH 10 0
BBX 9 9 0 -1
BITMAP
0280
FE80
0100
0200
0C00
0800
0800
0800
FF80
ENDCHAR
STARTCHAR uni30FA
ENCODING 12538
SWIDTH 960 0
DWIDTH 10 0
BBX 9 9 0 -1
BITMAP
FE80
0280
0200
FE00
0200
0200
0400
0800
7000
ENDCHAR
STARTCHAR uni30FB
ENCODING 12539
SWIDTH 960 0
DWIDTH 10 0
BBX 2 2 4 2
BITMAP
C0
C0
ENDCHAR
STARTCHAR uni30FC
ENCODING 12540
SWIDTH 960 0
DWIDTH 10 0
BBX 7 1 1 3
BITMAP
FE
ENDCHAR
STARTCHAR uni30FD
ENCODING 12541
SWIDTH 960 0
DWIDTH 10 0
BBX 4 5 2 1
BITMAP
80
40
20
10
10
ENDCHAR
STARTCHAR uni30FE
ENCODING 12542
SWIDTH 960 0
DWIDTH 10 0
BBX 7 6 2 1
BITMAP
0A
8A
40
20
10
10
ENDCHAR
STARTCHAR uni30FF
ENCODING 12543
SWIDTH 960 0
DWIDTH 10 0
BBX 7 9 1 -1
BITMAP
FE
02
02
02
02
02
02
02
02
ENDCHAR
STARTCHAR uni3105
ENCODING 12549
SWIDTH 960 0
DWIDTH 10 0
BBX 7 9 1 -1
BITMAP
80
80
FE
02
02
02
02
02
1C
ENDCHAR
STARTCHAR uni3106
ENCODING 12550
SWIDTH 960 0
DWIDTH 10 0
BBX 9 9 0 -1
BITMAP
1000
2000
3F00
0100
2100
1200
0C00
3200
C180
ENDCHAR
STARTCHAR uni3107
ENCODING 12551
SWIDTH 960 0
DWIDTH 10 0
BBX 9 9 0 -1
BITMAP
FF80
8080
8080
8080
8080
8080
8080
8080
8080
ENDCHAR
STARTCHAR uni3108
ENCODING 12552
SWIDTH 960 0
DWIDTH 10 0
BBX 9 9 0 -1
BITMAP
FF80
8000
8000
8000
8000
8000
8000
8000
FF80
ENDCHAR
STARTCHAR uni3109
ENCODING 12553
SWIDTH 960 0
DWIDTH 10 0
BBX 8 9 0 -1
BITMAP
40
40
7F
11
11
21
21
41
86
ENDCHAR
STARTCHAR uni310A
ENCODING 12554
SWIDTH 960 0
DWIDTH 10 0
BBX 9 9 0 -1
BITMAP
0800
0800
FF80
1000
1000
2200
2100
4F80
7080
ENDCHAR
STARTCHAR uni310B
ENCODING 12555
SWIDTH 960 0
DWIDTH 10 0
BBX 7 9 1 -1
BITMAP
FC
08
10
3E
02
02
02
02
0C
ENDCHAR
STARTCHAR uni310C
ENCODING 12556
SWIDTH 960 0
DWIDTH 10 0
BBX 8 9 0 -1
BITMAP
48
48
7F
11
11
21
21
41
86
ENDCHAR
STARTCHAR uni310D
ENCODING 12557
SWIDTH 960 0
DWIDTH 10 0
BBX 9 9 0 -1
BITMAP
1100
1100
2200
4400
8800
4400
2200
1100
0880
ENDCHAR
STARTCHAR uni310E
ENCODING 12558
SWIDTH 960 0
DWIDTH 10 0
BBX 9 9 0 -1
BITMAP
FF80
1000
1000
2000
3F00
0100
0100
0100
0E00
ENDCHAR
STARTCHAR uni310F
ENCODING 12559
SWIDTH 960 0
DWIDTH 10 0
BBX 9 9 0 -1
BITMAP
7F80
4000
4000
4000
4000
4000
4000
4000
8000
ENDCHAR
STARTCHAR uni3110
ENCODING 12560
SWIDTH 960 0
DWIDTH 10 0
BBX 6 9 2 -1
BITMAP
04
84
84
84
84
9C
E4
04
04
ENDCHAR
STARTCHAR uni3111
ENCODING 12561
SWIDTH 960 0
DWIDTH 10 0
BBX 5 9 2 -1
BITMAP
10
10
20
40
80
40
20
10
08
ENDCHAR
STARTCHAR uni3112
ENCODING 12562
SWIDTH 960 0
DWIDTH 10 0
BBX 9 9 0 -1
BITMAP
FF80
0800
0800
0800
0800
0800
0800
0800
0800
ENDCHAR
STARTCHAR uni3113
ENCODING 12563
SWIDTH 960 0
DWIDTH 10 0
BBX 9 9 0 -1
BITMAP
0800
4900
4900
4900
4900
7F00
0800
0800
FF80
ENDCHAR
STARTCHAR uni3114
ENCODING 12564
SWIDTH 960 0
DWIDTH 10 0
BBX 7 9 1 -1
BITMAP
04
08
32
C4
08
38
C8
08
08
ENDCHAR
STARTCHAR uni3115
ENCODING 12565
SWIDTH 960 0
DWIDTH 10 0
BBX 9 9 0 -1
BITMAP
3F80
0080
0080
3F80
2000
2000
4000
4000
8000
ENDCHAR
STARTCHAR uni3116
ENCODING 12566
SWIDTH 960 0
DWIDTH 10 0
BBX 7 9 1 -1
BITMAP
FE
82
82
A2
92
8A
82
82
FE
ENDCHAR
STARTCHAR uni3117
ENCODING 12567
SWIDTH 960 0
DWIDTH 10 0
BBX 9 9 0 -1
BITMAP
FF80
1080
1080
1080
1080
1300
1000
1000
1000
ENDCHAR
STARTCHAR uni3118
ENCODING 12568
SWIDTH 960 0
DWIDTH 10 0
BBX 9 9 0 -1
BITMAP
0800
0800
FF80
1000
2000
3F00
0100
0200
0400
ENDCHAR
STARTCHAR uni3119
ENCODING 12569
SWIDTH 960 0
DWIDTH 10 0
BBX 9 9 0 -1
BITMAP
0800
0800
0800
1000
1000
2200
2100
4F80
F080
ENDCHAR
STARTCHAR uni311A
ENCODING 12570
SWIDTH 960 0
DWIDTH 10 0
BBX 7 9 1 -1
BITMAP
82
44
28
10
10
10
10
10
10
ENDCHAR
STARTCHAR uni311B
ENCODING 12571
SWIDTH 960 0
DWIDTH 10 0
BBX 9 9 0 -1
BITMAP
FF80
0800
0800
3800
4000
8000
8080
4100
3E00
ENDCHAR
STARTCHAR uni311C
ENCODING 12572
SWIDTH 960 0
DWIDTH 10 0
BBX 9 9 0 -1
BITMAP
0800
FF80
0800
3800
4000
8000
8080
4100
3E00
ENDCHAR
STARTCHAR uni311D
ENCODING 12573
SWIDTH 960 0
DWIDTH 10 0
BBX 9 9 0 -1
BITMAP
2200
2200
2200
FF80
2200
2200
2000
2000
1F00
ENDCHAR
STARTCHAR uni311E
ENCODING 12574
SWIDTH 960 0
DWIDTH 10 0
BBX 9 9 0 -1
BITMAP
FF80
0800
4800
4800
7F80
1080
2100
4100
8200
ENDCHAR
STARTCHAR uni311F
ENCODING 12575
SWIDTH 960 0
DWIDTH 10 0
BBX 9 9 0 -1
BITMAP
1800
2800
C800
0800
0400
0400
0200
0100
0080
ENDCHAR
STARTCHAR uni3120
ENCODING 12576
SWIDTH 960 0
DWIDTH 10 0
BBX 9 9 0 -1
BITMAP
1000
1000
2200
4400
F800
1200
2100
4F80
F080
ENDCHAR
STARTCHAR uni3121
ENCODING 12577
SWIDTH 960 0
DWIDTH 10 0
BBX 9 9 0 -1
BITMAP
7F80
0080
2100
1100
0A00
0400
0A00
3100
C080
ENDCHAR
STARTCHAR uni3122
ENCODING 12578
SWIDTH 960 0
DWIDTH 10 0
BBX 8 9 0 -1
BITMAP
FE
22
22
44
7F
01
02
02
04
ENDCHAR
STARTCHAR uni3123
ENCODING 12579
SWIDTH 960 0
DWIDTH 10 0
BBX 7 9 1 -1
BITMAP
40
40
40
80
FE
02
04
04
08
ENDCHAR
STARTCHAR uni3124
ENCODING 12580
SWIDTH 960 0
DWIDTH 10 0
BBX 9 9 0 -1
BITMAP
0800
0800
FF80
0800
0C00
1400
1400
2400
C380
ENDCHAR
STARTCHAR uni3125
ENCODING 12581
SWIDTH 960 0
DWIDTH 10 0
BBX 9 9 0 -1
BITMAP
0400
0400
0800
0800
1000
1000
2000
4000
FF80
ENDCHAR
STARTCHAR uni3126
ENCODING 12582
SWIDTH 960 0
DWIDTH 10 0
BBX 9 9 0 -1
BITMAP
2400
2400
2400
2400
2400
2400
4400
4400
8380
ENDCHAR
STARTCHAR uni3127
ENCODING 12583
SWIDTH 960 0
DWIDTH 10 0
BBX 9 1 0 3
BITMAP
FF80
ENDCHAR
STARTCHAR uni3128
ENCODING 12584
SWIDTH 960 0
DWIDTH 10 0
BBX 9 9 0 -1
BITMAP
0080
4080
2100
1100
0A00
0400
0A00
3100
C080
ENDCHAR
STARTCHAR uni3129
ENCODING 12585
SWIDTH 960 0
DWIDTH 10 0
BBX 9 9 0 -1
BITMAP
8080
8080
8080
8080
8080
8080
8080
8080
FF80
ENDCHAR
STARTCHAR uni312A
ENCODING 12586
SWIDTH 960 0
DWIDTH 10 0
BBX 9 9 0 -1
BITMAP
FF80
1000
1000
1F00
1100
2100
2100
4100
8600
ENDCHAR
STARTCHAR uni312B
ENCODING 12587
SWIDTH 960 0
DWIDTH 10 0
BBX 9 9 0 -1
BITMAP
FF80
2400
2400
2400
2400
2400
4400
4400
8380
ENDCHAR
STARTCHAR uni312C
ENCODING 12588
SWIDTH 960 0
DWIDTH 10 0
BBX 9 9 0 -1
BITMAP
0400
7F80
4000
4000
4000
4000
4000
4000
8000
ENDCHAR
STARTCHAR uni312D
ENCODING 12589
SWIDTH 960 0
DWIDTH 10 0
BBX 9 9 0 -1
BITMAP
FF80
0800
0800
7F00
4900
4900
4900
4900
0800
ENDCHAR
STARTCHAR uni312E
ENCODING 12590
SWIDTH 960 0
DWIDTH 10 0
BBX 9 9 0 -1
BITMAP
0800
0000
FF80
0800
7800
4000
4000
4000
3F00
ENDCHAR
STARTCHAR uni312F
ENCODING 12591
SWIDTH 960 0
DWIDTH 10 0
BBX 8 9 1 -1
BITMAP
FC
08
10
3F
11
11
11
11
16
ENDCHAR
STARTCHAR uni3220
ENCODING 12832
SWIDTH 960 0
DWIDTH 10 0
BBX 9 9 0 -1
BITMAP
4100
8080
8080
8080
BE80
8080
8080
8080
4100
ENDCHAR
STARTCHAR uni3221
ENCODING 12833
SWIDTH 960 0
DWIDTH 10 0
BBX 9 9 0 -1
BITMAP
4100
8080
9C80
8080
8080
8080
BE80
8080
4100
ENDCHAR
STARTCHAR uni3222
ENCODING 12834
SWIDTH 960 0
DWIDTH 10 0
BBX 9 9 0 -1
BITMAP
4100
8080
BE80
8080
9C80
8080
BE80
8080
4100
ENDCHAR
STARTCHAR uni3223
ENCODING 12835
SWIDTH 960 0
DWIDTH 10 0
BBX 9 9 0 -1
BITMAP
4100
8080
BE80
AA80
B680
A280
BE80
8080
4100
ENDCHAR
STARTCHAR uni3224
ENCODING 12836
SWIDTH 960 0
DWIDTH 10 0
BBX 9 9 0 -1
BITMAP
4100
8080
BE80
8880
BC80
9480
BE80
8080
4100
ENDCHAR
STARTCHAR uni3225-zh_tr
ENCODING 12837
SWIDTH 960 0
DWIDTH 10 0
BBX 9 9 0 -1
BITMAP
4100
8880
8880
BE80
8080
9480
A280
8080
4100
ENDCHAR
STARTCHAR uni3226
ENCODING 12838
SWIDTH 960 0
DWIDTH 10 0
BBX 9 9 0 -1
BITMAP
4100
9080
9080
9E80
F080
9280
8E80
8080
4100
ENDCHAR
STARTCHAR uni3227-zh_tw
ENCODING 12839
SWIDTH 960 0
DWIDTH 10 0
BBX 9 9 0 -1
BITMAP
4100
8080
9C80
8480
9480
9280
A280
8080
4100
ENDCHAR
STARTCHAR uni3228
ENCODING 12840
SWIDTH 960 0
DWIDTH 10 0
BBX 9 9 0 -1
BITMAP
4100
9080
9080
FC80
9480
9480
A680
8080
4100
ENDCHAR
STARTCHAR uni3229
ENCODING 12841
SWIDTH 960 0
DWIDTH 10 0
BBX 9 9 0 -1
BITMAP
4100
8080
8880
8880
BE80
8880
8880
8080
4100
ENDCHAR
STARTCHAR uni327F
ENCODING 12927
SWIDTH 960 0
DWIDTH 10 0
BBX 9 9 0 -1
BITMAP
3E00
4100
8080
9400
D980
1480
8080
4100
3E00
ENDCHAR
STARTCHAR uni3280
ENCODING 12928
SWIDTH 960 0
DWIDTH 10 0
BBX 9 9 0 -1
BITMAP
3E00
4100
8080
8080
BE80
8080
8080
4100
3E00
ENDCHAR
STARTCHAR uni3281
ENCODING 12929
SWIDTH 960 0
DWIDTH 10 0
BBX 9 9 0 -1
BITMAP
3E00
4100
9C80
8080
8080
8080
BE80
4100
3E00
ENDCHAR
STARTCHAR uni3282
ENCODING 12930
SWIDTH 960 0
DWIDTH 10 0
BBX 9 9 0 -1
BITMAP
3E00
4100
BE80
8080
9C80
8080
BE80
4100
3E00
ENDCHAR
STARTCHAR uni3283
ENCODING 12931
SWIDTH 960 0
DWIDTH 10 0
BBX 9 9 0 -1
BITMAP
3E00
4100
BE80
AA80
B680
A280
BE80
4100
3E00
ENDCHAR
STARTCHAR uni3284
ENCODING 12932
SWIDTH 960 0
DWIDTH 10 0
BBX 9 9 0 -1
BITMAP
3E00
4100
BE80
8880
BC80
9480
BE80
4100
3E00
ENDCHAR
STARTCHAR uni3285-zh_tr
ENCODING 12933
SWIDTH 960 0
DWIDTH 10 0
BBX 9 9 0 -1
BITMAP
3E00
4900
8880
BE80
8080
9480
A280
4100
3E00
ENDCHAR
STARTCHAR uni3286
ENCODING 12934
SWIDTH 960 0
DWIDTH 10 0
BBX 9 9 0 -1
BITMAP
3E00
5100
9080
9E80
F080
9280
8E80
4100
3E00
ENDCHAR
STARTCHAR uni3287-zh_tw
ENCODING 12935
SWIDTH 960 0
DWIDTH 10 0
BBX 9 9 0 -1
BITMAP
3E00
4100
9C80
8480
9480
9280
A280
4100
3E00
ENDCHAR
STARTCHAR uni3288
ENCODING 12936
SWIDTH 960 0
DWIDTH 10 0
BBX 9 9 0 -1
BITMAP
3E00
5100
9080
FC80
9480
9480
A680
4100
3E00
ENDCHAR
STARTCHAR uni3289
ENCODING 12937
SWIDTH 960 0
DWIDTH 10 0
BBX 9 9 0 -1
BITMAP
3E00
4100
8880
8880
BE80
8880
8880
4100
3E00
ENDCHAR
STARTCHAR uni32A3
ENCODING 12963
SWIDTH 960 0
DWIDTH 10 0
BBX 9 9 0 -1
BITMAP
3E00
4100
BE80
8880
AE80
A880
BE80
4100
3E00
ENDCHAR
STARTCHAR uni32A4
ENCODING 12964
SWIDTH 960 0
DWIDTH 10 0
BBX 9 9 0 -1
BITMAP
3E00
4100
8880
8E80
8880
8880
BE80
4100
3E00
ENDCHAR
STARTCHAR uni32A5
ENCODING 12965
SWIDTH 960 0
DWIDTH 10 0
BBX 9 9 0 -1
BITMAP
3E00
4100
8880
BE80
AA80
BE80
8880
4100
3E00
ENDCHAR
STARTCHAR uni32A6
ENCODING 12966
SWIDTH 960 0
DWIDTH 10 0
BBX 9 9 0 -1
BITMAP
3E00
4100
BE80
8880
8C80
8A80
8880
4100
3E00
ENDCHAR
STARTCHAR uni32A7
ENCODING 12967
SWIDTH 960 0
DWIDTH 10 0
BBX 9 9 0 -1
BITMAP
3E00
5100
BE80
9080
AE80
C480
9E80
4100
3E00
ENDCHAR
STARTCHAR uni32A8
ENCODING 12968
SWIDTH 960 0
DWIDTH 10 0
BBX 9 9 0 -1
BITMAP
3E00
5100
BE80
9080
BE80
D280
9E80
4100
3E00
ENDCHAR
STARTCHAR uni32C0
ENCODING 12992
SWIDTH 960 0
DWIDTH 10 0
BBX 8 7 1 0
BITMAP
4F
C9
4F
49
4F
49
EB
ENDCHAR
STARTCHAR uni32C1
ENCODING 12993
SWIDTH 960 0
DWIDTH 10 0
BBX 9 7 0 0
BITMAP
6780
9480
1780
2480
4780
8480
F580
ENDCHAR
STARTCHAR uni32C2
ENCODING 12994
SWIDTH 960 0
DWIDTH 10 0
BBX 9 7 0 0
BITMAP
6780
9480
1780
2480
1780
9480
6980
ENDCHAR
STARTCHAR uni32C3
ENCODING 12995
SWIDTH 960 0
DWIDTH 10 0
BBX 9 7 0 0
BITMAP
3780
5480
5780
9480
9780
F480
1580
ENDCHAR
STARTCHAR uni32C4
ENCODING 12996
SWIDTH 960 0
DWIDTH 10 0
BBX 9 7 0 0
BITMAP
F780
8480
8780
E480
1780
1480
E980
ENDCHAR
STARTCHAR uni32C5
ENCODING 12997
SWIDTH 960 0
DWIDTH 10 0
BBX 9 7 0 0
BITMAP
6780
9480
8780
E480
9780
9480
6980
ENDCHAR
STARTCHAR uni32C6
ENCODING 12998
SWIDTH 960 0
DWIDTH 10 0
BBX 9 7 0 0
BITMAP
F780
1480
1780
2480
2780
2480
2980
ENDCHAR
STARTCHAR uni32C7
ENCODING 12999
SWIDTH 960 0
DWIDTH 10 0
BBX 9 7 0 0
BITMAP
6780
9480
9780
6480
9780
9480
6980
ENDCHAR
STARTCHAR uni32C8
ENCODING 13000
SWIDTH 960 0
DWIDTH 10 0
BBX 9 7 0 0
BITMAP
6780
9480
9780
7480
1780
9480
6980
ENDCHAR
STARTCHAR uni32C9
ENCODING 13001
SWIDTH 960 0
DWIDTH 10 0
BBX 9 7 0 0
BITMAP
9380
AA80
AB80
AA80
AB80
AA80
9480
ENDCHAR
STARTCHAR uni32CA
ENCODING 13002
SWIDTH 960 0
DWIDTH 10 0
BBX 9 7 0 0
BITMAP
4B80
DA80
4B80
4A80
4B80
4A80
4A80
ENDCHAR
STARTCHAR uni32CB
ENCODING 13003
SWIDTH 960 0
DWIDTH 10 0
BBX 9 7 0 0
BITMAP
9380
AA80
8B80
9280
9380
A280
BA80
ENDCHAR
STARTCHAR uni32FF
ENCODING 13055
SWIDTH 960 0
DWIDTH 10 0
BBX 9 9 0 -1
BITMAP
2700
5200
8B80
7680
0280
F680
5A80
7380
4200
ENDCHAR
STARTCHAR uni3358
ENCODING 13144
SWIDTH 960 0
DWIDTH 10 0
BBX 9 7 0 0
BITMAP
6200
9380
9200
9780
9480
9780
6A80
ENDCHAR
STARTCHAR uni3359
ENCODING 13145
SWIDTH 960 0
DWIDTH 10 0
BBX 8 7 1 0
BITMAP
44
C7
44
4F
49
4F
E9
ENDCHAR
STARTCHAR uni335A
ENCODING 13146
SWIDTH 960 0
DWIDTH 10 0
BBX 9 7 0 0
BITMAP
6200
9380
1200
2780
4480
8780
FA80
ENDCHAR
STARTCHAR uni335B
ENCODING 13147
SWIDTH 960 0
DWIDTH 10 0
BBX 9 7 0 0
BITMAP
6200
9380
1200
2780
1480
9780
6A80
ENDCHAR
STARTCHAR uni335C
ENCODING 13148
SWIDTH 960 0
DWIDTH 10 0
BBX 9 7 0 0
BITMAP
3200
5380
5200
9780
9480
F780
1A80
ENDCHAR
STARTCHAR uni335D
ENCODING 13149
SWIDTH 960 0
DWIDTH 10 0
BBX 9 7 0 0
BITMAP
F200
8380
8200
E780
1480
1780
EA80
ENDCHAR
STARTCHAR uni335E
ENCODING 13150
SWIDTH 960 0
DWIDTH 10 0
BBX 9 7 0 0
BITMAP
6200
9380
8200
E780
9480
9780
6A80
ENDCHAR
STARTCHAR uni335F
ENCODING 13151
SWIDTH 960 0
DWIDTH 10 0
BBX 9 7 0 0
BITMAP
F200
1380
1200
2780
2480
2780
2A80
ENDCHAR
STARTCHAR uni3360
ENCODING 13152
SWIDTH 960 0
DWIDTH 10 0
BBX 9 7 0 0
BITMAP
6200
9380
9200
6780
9480
9780
6A80
ENDCHAR
STARTCHAR uni3361
ENCODING 13153
SWIDTH 960 0
DWIDTH 10 0
BBX 9 7 0 0
BITMAP
6200
9380
9200
7780
1480
9780
6A80
ENDCHAR
STARTCHAR uni3362
ENCODING 13154
SWIDTH 960 0
DWIDTH 10 0
BBX 9 7 0 0
BITMAP
9100
A980
A900
AB80
AA80
AB80
9280
ENDCHAR
STARTCHAR uni3363
ENCODING 13155
SWIDTH 960 0
DWIDTH 10 0
BBX 9 7 0 0
BITMAP
4900
D980
4900
4B80
4A80
4B80
4A80
ENDCHAR
STARTCHAR uni3364
ENCODING 13156
SWIDTH 960 0
DWIDTH 10 0
BBX 9 7 0 0
BITMAP
9100
A980
8900
9380
9280
A380
BA80
ENDCHAR
STARTCHAR uni3365
ENCODING 13157
SWIDTH 960 0
DWIDTH 10 0
BBX 9 7 0 0
BITMAP
9100
A980
8900
9380
8A80
AB80
9280
ENDCHAR
STARTCHAR uni3366
ENCODING 13158
SWIDTH 960 0
DWIDTH 10 0
BBX 9 7 0 0
BITMAP
8900
9980
9900
AB80
AA80
BB80
8A80
ENDCHAR
STARTCHAR uni3367
ENCODING 13159
SWIDTH 960 0
DWIDTH 10 0
BBX 9 7 0 0
BITMAP
B900
A180
A100
B380
8A80
8B80
B280
ENDCHAR
STARTCHAR uni3368
ENCODING 13160
SWIDTH 960 0
DWIDTH 10 0
BBX 9 7 0 0
BITMAP
9100
A980
A100
B380
AA80
AB80
9280
ENDCHAR
STARTCHAR uni3369
ENCODING 13161
SWIDTH 960 0
DWIDTH 10 0
BBX 9 7 0 0
BITMAP
B900
8980
8900
9380
9280
9380
9280
ENDCHAR
STARTCHAR uni336A
ENCODING 13162
SWIDTH 960 0
DWIDTH 10 0
BBX 9 7 0 0
BITMAP
9100
A980
A900
9380
AA80
AB80
9280
ENDCHAR
STARTCHAR uni336B
ENCODING 13163
SWIDTH 960 0
DWIDTH 10 0
BBX 9 7 0 0
BITMAP
9100
A980
A900
9B80
8A80
AB80
9280
ENDCHAR
STARTCHAR uni336C
ENCODING 13164
SWIDTH 960 0
DWIDTH 10 0
BBX 9 7 0 0
BITMAP
4900
B580
3500
5780
5680
9780
EA80
ENDCHAR
STARTCHAR uni336D
ENCODING 13165
SWIDTH 960 0
DWIDTH 10 0
BBX 9 7 0 0
BITMAP
4900
A980
2900
4B80
4A80
8B80
EA80
ENDCHAR
STARTCHAR uni336E
ENCODING 13166
SWIDTH 960 0
DWIDTH 10 0
BBX 9 7 0 0
BITMAP
4900
B580
2500
4B80
4A80
9380
FE80
ENDCHAR
STARTCHAR uni336F
ENCODING 13167
SWIDTH 960 0
DWIDTH 10 0
BBX 9 7 0 0
BITMAP
4900
B580
2500
4B80
4680
9780
EA80
ENDCHAR
STARTCHAR uni3370
ENCODING 13168
SWIDTH 960 0
DWIDTH 10 0
BBX 9 7 0 0
BITMAP
4500
AD80
2D00
5780
5680
9F80
E680
ENDCHAR
STARTCHAR uni337B
ENCODING 13179
SWIDTH 960 0
DWIDTH 10 0
BBX 9 9 0 -1
BITMAP
F280
2F80
AA00
BA80
2E80
FA80
2B00
2D00
2A80
ENDCHAR
STARTCHAR uni337C
ENCODING 13180
SWIDTH 960 0
DWIDTH 10 0
BBX 9 9 0 -1
BITMAP
7F00
2A00
EB80
BE80
E280
BE80
AA80
EB80
3A00
ENDCHAR
STARTCHAR uni337D
ENCODING 13181
SWIDTH 960 0
DWIDTH 10 0
BBX 9 9 0 -1
BITMAP
2780
2100
F900
2500
2580
2500
5500
5500
8F80
ENDCHAR
STARTCHAR uni337E
ENCODING 13182
SWIDTH 960 0
DWIDTH 10 0
BBX 9 9 0 -1
BITMAP
3900
ED00
BA80
EB80
AC00
BB80
EA80
2E80
4B80
ENDCHAR
STARTCHAR uni33E0
ENCODING 13280
SWIDTH 960 0
DWIDTH 10 0
BBX 8 7 1 0
BITMAP
4F
C9
49
4F
49
49
EF
ENDCHAR
STARTCHAR uni33E1
ENCODING 13281
SWIDTH 960 0
DWIDTH 10 0
BBX 9 7 0 0
BITMAP
6780
9480
1480
2780
4480
8480
F780
ENDCHAR
STARTCHAR uni33E2
ENCODING 13282
SWIDTH 960 0
DWIDTH 10 0
BBX 9 7 0 0
BITMAP
6780
9480
1480
2780
1480
9480
6780
ENDCHAR
STARTCHAR uni33E3
ENCODING 13283
SWIDTH 960 0
DWIDTH 10 0
BBX 9 7 0 0
BITMAP
3780
5480
5480
9780
9480
F480
1780
ENDCHAR
STARTCHAR uni33E4
ENCODING 13284
SWIDTH 960 0
DWIDTH 10 0
BBX 9 7 0 0
BITMAP
F780
8480
8480
E780
1480
1480
E780
ENDCHAR
STARTCHAR uni33E5
ENCODING 13285
SWIDTH 960 0
DWIDTH 10 0
BBX 9 7 0 0
BITMAP
6780
9480
8480
E780
9480
9480
6780
ENDCHAR
STARTCHAR uni33E6
ENCODING 13286
SWIDTH 960 0
DWIDTH 10 0
BBX 9 7 0 0
BITMAP
F780
1480
1480
2780
2480
2480
2780
ENDCHAR
STARTCHAR uni33E7
ENCODING 13287
SWIDTH 960 0
DWIDTH 10 0
BBX 9 7 0 0
BITMAP
6780
9480
9480
6780
9480
9480
6780
ENDCHAR
STARTCHAR uni33E8
ENCODING 13288
SWIDTH 960 0
DWIDTH 10 0
BBX 9 7 0 0
BITMAP
6780
9480
9480
7780
1480
9480
6780
ENDCHAR
STARTCHAR uni33E9
ENCODING 13289
SWIDTH 960 0
DWIDTH 10 0
BBX 9 7 0 0
BITMAP
9380
AA80
AA80
AB80
AA80
AA80
9380
ENDCHAR
STARTCHAR uni33EA
ENCODING 13290
SWIDTH 960 0
DWIDTH 10 0
BBX 9 7 0 0
BITMAP
4B80
DA80
4A80
4B80
4A80
4A80
4B80
ENDCHAR
STARTCHAR uni33EB
ENCODING 13291
SWIDTH 960 0
DWIDTH 10 0
BBX 9 7 0 0
BITMAP
9380
AA80
8A80
9380
9280
A280
BB80
ENDCHAR
STARTCHAR uni33EC
ENCODING 13292
SWIDTH 960 0
DWIDTH 10 0
BBX 9 7 0 0
BITMAP
9380
AA80
8A80
9380
8A80
AA80
9380
ENDCHAR
STARTCHAR uni33ED
ENCODING 13293
SWIDTH 960 0
DWIDTH 10 0
BBX 9 7 0 0
BITMAP
8B80
9A80
9A80
AB80
AA80
BA80
8B80
ENDCHAR
STARTCHAR uni33EE
ENCODING 13294
SWIDTH 960 0
DWIDTH 10 0
BBX 9 7 0 0
BITMAP
BB80
A280
A280
B380
8A80
8A80
B380
ENDCHAR
STARTCHAR uni33EF
ENCODING 13295
SWIDTH 960 0
DWIDTH 10 0
BBX 9 7 0 0
BITMAP
9380
AA80
A280
B380
AA80
AA80
9380
ENDCHAR
STARTCHAR uni33F0
ENCODING 13296
SWIDTH 960 0
DWIDTH 10 0
BBX 9 7 0 0
BITMAP
BB80
8A80
8A80
9380
9280
9280
9380
ENDCHAR
STARTCHAR uni33F1
ENCODING 13297
SWIDTH 960 0
DWIDTH 10 0
BBX 9 7 0 0
BITMAP
9380
AA80
AA80
9380
AA80
AA80
9380
ENDCHAR
STARTCHAR uni33F2
ENCODING 13298
SWIDTH 960 0
DWIDTH 10 0
BBX 9 7 0 0
BITMAP
9380
AA80
AA80
9B80
8A80
AA80
9380
ENDCHAR
STARTCHAR uni33F3
ENCODING 13299
SWIDTH 960 0
DWIDTH 10 0
BBX 9 7 0 0
BITMAP
4B80
B680
3680
5780
5680
9680
EB80
ENDCHAR
STARTCHAR uni33F4
ENCODING 13300
SWIDTH 960 0
DWIDTH 10 0
BBX 9 7 0 0
BITMAP
4B80
AA80
2A80
4B80
4A80
8A80
EB80
ENDCHAR
STARTCHAR uni33F5
ENCODING 13301
SWIDTH 960 0
DWIDTH 10 0
BBX 9 7 0 0
BITMAP
4B80
B680
2680
4B80
4A80
9280
FF80
ENDCHAR
STARTCHAR uni33F6
ENCODING 13302
SWIDTH 960 0
DWIDTH 10 0
BBX 9 7 0 0
BITMAP
4B80
B680
2680
4B80
4680
9680
EB80
ENDCHAR
STARTCHAR uni33F7
ENCODING 13303
SWIDTH 960 0
DWIDTH 10 0
BBX 9 7 0 0
BITMAP
4780
AE80
2E80
5780
5680
9E80
E780
ENDCHAR
STARTCHAR uni33F8
ENCODING 13304
SWIDTH 960 0
DWIDTH 10 0
BBX 9 7 0 0
BITMAP
5F80
B280
3280
5B80
4680
8680
FB80
ENDCHAR
STARTCHAR uni33F9
ENCODING 13305
SWIDTH 960 0
DWIDTH 10 0
BBX 9 7 0 0
BITMAP
4B80
B680
3280
5B80
5680
9680
EB80
ENDCHAR
STARTCHAR uni33FA
ENCODING 13306
SWIDTH 960 0
DWIDTH 10 0
BBX 9 7 0 0
BITMAP
5F80
A680
2680
4B80
4A80
8A80
EB80
ENDCHAR
STARTCHAR uni33FB
ENCODING 13307
SWIDTH 960 0
DWIDTH 10 0
BBX 9 7 0 0
BITMAP
4B80
B680
3680
4B80
5680
9680
EB80
ENDCHAR
STARTCHAR uni33FC
ENCODING 13308
SWIDTH 960 0
DWIDTH 10 0
BBX 9 7 0 0
BITMAP
4B80
B680
3680
4F80
4680
9680
EB80
ENDCHAR
STARTCHAR uni33FD
ENCODING 13309
SWIDTH 960 0
DWIDTH 10 0
BBX 9 7 0 0
BITMAP
4B80
B680
3680
5780
3680
B680
4B80
ENDCHAR
STARTCHAR uni33FE
ENCODING 13310
SWIDTH 960 0
DWIDTH 10 0
BBX 9 7 0 0
BITMAP
4B80
AA80
2A80
4B80
2A80
AA80
4B80
ENDCHAR
STARTCHAR uni4E00
ENCODING 19968
SWIDTH 960 0
DWIDTH 10 0
BBX 9 1 0 3
BITMAP
FF80
ENDCHAR
STARTCHAR uni4E01
ENCODING 19969
SWIDTH 960 0
DWIDTH 10 0
BBX 9 9 0 -1
BITMAP
FF80
0800
0800
0800
0800
0800
0800
0800
3800
ENDCHAR
STARTCHAR uni4E03
ENCODING 19971
SWIDTH 960 0
DWIDTH 10 0
BBX 9 9 0 -1
BITMAP
1000
1000
1180
1E00
F000
1000
1080
1080
0F80
ENDCHAR
STARTCHAR uni4E04
ENCODING 19972
SWIDTH 960 0
DWIDTH 10 0
BBX 9 9 0 -1
BITMAP
0800
0800
0800
0800
0800
0800
0800
0800
FF80
ENDCHAR
STARTCHAR uni4E05
ENCODING 19973
SWIDTH 960 0
DWIDTH 10 0
BBX 9 9 0 -1
BITMAP
FF80
0800
0800
0800
0800
0800
0800
0800
0800
ENDCHAR
STARTCHAR uni4E06
ENCODING 19974
SWIDTH 960 0
DWIDTH 10 0
BBX 9 9 0 -1
BITMAP
FF80
0800
0800
0800
1000
1000
2000
4000
8000
ENDCHAR
STARTCHAR uni4E07
ENCODING 19975
SWIDTH 960 0
DWIDTH 10 0
BBX 9 9 0 -1
BITMAP
FF80
1000
1000
1F00
1100
2100
2100
4100
8600
ENDCHAR
STARTCHAR uni4E08
ENCODING 19976
SWIDTH 960 0
DWIDTH 10 0
BBX 9 9 0 -1
BITMAP
0400
0400
FF80
0400
2400
1400
0800
3600
C180
ENDCHAR
STARTCHAR uni4E09
ENCODING 19977
SWIDTH 960 0
DWIDTH 10 0
BBX 9 9 0 -1
BITMAP
7F00
0000
0000
0000
3E00
0000
0000
0000
FF80
ENDCHAR
STARTCHAR uni4E0A
ENCODING 19978
SWIDTH 960 0
DWIDTH 10 0
BBX 9 9 0 -1
BITMAP
0800
0800
0800
0F00
0800
0800
0800
0800
FF80
ENDCHAR
STARTCHAR uni4E0B
ENCODING 19979
SWIDTH 960 0
DWIDTH 10 0
BBX 9 9 0 -1
BITMAP
FF80
0800
0800
0C00
0A00
0900
0800
0800
0800
ENDCHAR
STARTCHAR uni4E0C
ENCODING 19980
SWIDTH 960 0
DWIDTH 10 0
BBX 9 9 0 -1
BITMAP
FF80
2200
2200
2200
2200
2200
4200
4200
8200
ENDCHAR
STARTCHAR uni4E0D
ENCODING 19981
SWIDTH 960 0
DWIDTH 10 0
BBX 9 9 0 -1
BITMAP
FF80
0400
0800
1A00
2900
C880
0800
0800
0800
ENDCHAR
STARTCHAR uni4E0E-zh_tr
ENCODING 19982
SWIDTH 960 0
DWIDTH 10 0
BBX 9 9 0 -1
BITMAP
1000
1F00
1000
2000
3F00
0100
FF80
0100
0E00
ENDCHAR
STARTCHAR uni4E11
ENCODING 19985
SWIDTH 960 0
DWIDTH 10 0
BBX 9 9 0 -1
BITMAP
7E00
1200
1200
1200
FF80
2200
2200
2200
FF80
ENDCHAR
STARTCHAR uni4E13
ENCODING 19987
SWIDTH 960 0
DWIDTH 10 0
BBX 9 9 0 -1
BITMAP
0800
7F00
1000
FF80
2000
7F00
0200
1400
0E00
ENDCHAR
STARTCHAR uni4E14
ENCODING 19988
SWIDTH 960 0
DWIDTH 10 0
BBX 9 9 0 -1
BITMAP
7F00
4100
7F00
4100
4100
7F00
4100
4100
FF80
ENDCHAR
STARTCHAR uni4E15
ENCODING 19989
SWIDTH 960 0
DWIDTH 10 0
BBX 9 9 0 -1
BITMAP
FF80
0400
0800
1A00
2900
C880
0800
0000
FF80
ENDCHAR
STARTCHAR uni4E16
ENCODING 19990
SWIDTH 960 0
DWIDTH 10 0
BBX 9 9 0 -1
BITMAP
4900
4900
FF80
4900
4900
4F00
4000
4000
7F80
ENDCHAR
STARTCHAR uni4E17
ENCODING 19991
SWIDTH 960 0
DWIDTH 10 0
BBX 9 9 0 -1
BITMAP
4900
4900
4900
FF80
4900
4900
4900
4900
7F00
ENDCHAR
STARTCHAR uni4E18
ENCODING 19992
SWIDTH 960 0
DWIDTH 10 0
BBX 9 9 0 -1
BITMAP
0300
7C00
4000
4000
7F00
4200
4200
4200
FF80
ENDCHAR
STARTCHAR uni4E19
ENCODING 19993
SWIDTH 960 0
DWIDTH 10 0
BBX 9 9 0 -1
BITMAP
FF80
0800
0800
FF80
8880
9480
A280
8080
8180
ENDCHAR
STARTCHAR uni4E1A
ENCODING 19994
SWIDTH 960 0
DWIDTH 10 0
BBX 9 9 0 -1
BITMAP
1400
1400
1400
9480
5480
5500
1400
1400
FF80
ENDCHAR
STARTCHAR uni4E1B
ENCODING 19995
SWIDTH 960 0
DWIDTH 10 0
BBX 9 9 0 -1
BITMAP
2200
2200
2200
2200
5500
4500
8880
0000
FF80
ENDCHAR
STARTCHAR uni4E1C
ENCODING 19996
SWIDTH 960 0
DWIDTH 10 0
BBX 9 9 0 -1
BITMAP
1000
FF80
2000
4800
7F00
0800
4900
8880
1800
ENDCHAR
STARTCHAR uni4E1D
ENCODING 19997
SWIDTH 960 0
DWIDTH 10 0
BBX 9 9 0 -1
BITMAP
2100
2100
4200
F780
2100
4200
F780
0000
FF80
ENDCHAR
STARTCHAR uni4E1F-zh_tr
ENCODING 19999
SWIDTH 960 0
DWIDTH 10 0
BBX 9 9 0 -1
BITMAP
7F00
0800
7F00
0800
FF80
0800
1000
2100
FE80
ENDCHAR
STARTCHAR uni4E21
ENCODING 20001
SWIDTH 960 0
DWIDTH 10 0
BBX 9 9 0 -1
BITMAP
FF80
0800
FF80
8880
AA80
AA80
BE80
8080
8180
ENDCHAR
STARTCHAR uni4E22
ENCODING 20002
SWIDTH 960 0
DWIDTH 10 0
BBX 9 9 0 -1
BITMAP
0300
7C00
0800
7F00
0800
FF80
1000
2100
7E80
ENDCHAR
STARTCHAR uni4E23
ENCODING 20003
SWIDTH 960 0
DWIDTH 10 0
BBX 9 9 0 -1
BITMAP
FF80
2200
E380
A280
A280
E380
2200
4200
8200
ENDCHAR
STARTCHAR uni4E25
ENCODING 20005
SWIDTH 960 0
DWIDTH 10 0
BBX 9 9 0 -1
BITMAP
7F80
1200
5280
3300
7F80
4000
4000
4000
8000
ENDCHAR
STARTCHAR uni4E26
ENCODING 20006
SWIDTH 960 0
DWIDTH 10 0
BBX 9 9 0 -1
BITMAP
2200
1400
FF80
1400
1400
9480
5500
1400
FF80
ENDCHAR
STARTCHAR uni4E27
ENCODING 20007
SWIDTH 960 0
DWIDTH 10 0
BBX 9 9 0 -1
BITMAP
0800
FF80
4900
2A00
FF80
4800
4500
5200
6180
ENDCHAR
STARTCHAR uni4E28
ENCODING 20008
SWIDTH 960 0
DWIDTH 10 0
BBX 1 9 4 -1
BITMAP
80
80
80
80
80
80
80
80
80
ENDCHAR
STARTCHAR uni4E2A
ENCODING 20010
SWIDTH 960 0
DWIDTH 10 0
BBX 9 9 0 -1
BITMAP
0800
1400
2200
C980
0800
0800
0800
0800
0800
ENDCHAR
STARTCHAR uni4E2B
ENCODING 20011
SWIDTH 960 0
DWIDTH 10 0
BBX 7 9 1 -1
BITMAP
82
44
28
10
10
10
10
10
10
ENDCHAR
STARTCHAR uni4E2D
ENCODING 20013
SWIDTH 960 0
DWIDTH 10 0
BBX 9 9 0 -1
BITMAP
0800
0800
FF80
8880
8880
FF80
0800
0800
0800
ENDCHAR
STARTCHAR uni4E30
ENCODING 20016
SWIDTH 960 0
DWIDTH 10 0
BBX 9 9 0 -1
BITMAP
0800
0800
7F00
0800
3E00
0800
FF80
0800
0800
ENDCHAR
STARTCHAR uni4E32
ENCODING 20018
SWIDTH 960 0
DWIDTH 10 0
BBX 9 9 0 -1
BITMAP
0800
7F00
4900
7F00
0800
FF80
8880
FF80
0800
ENDCHAR
STARTCHAR uni4E33
ENCODING 20019
SWIDTH 960 0
DWIDTH 10 0
BBX 9 9 0 -1
BITMAP
1400
7F00
5500
7F00
1400
FF80
9480
FF80
2400
ENDCHAR
STARTCHAR uni4E34
ENCODING 20020
SWIDTH 960 0
DWIDTH 10 0
BBX 9 9 0 -1
BITMAP
2400
A780
AA00
A100
A000
AF80
AA80
AA80
2F80
ENDCHAR
STARTCHAR uni4E35-zh_tr
ENCODING 20021
SWIDTH 960 0
DWIDTH 10 0
BBX 9 9 0 -1
BITMAP
1400
5500
FF80
2200
1400
7F00
0800
FF80
0800
ENDCHAR
STARTCHAR uni4E3A
ENCODING 20026
SWIDTH 960 0
DWIDTH 10 0
BBX 9 9 0 -1
BITMAP
9000
5000
FF80
1080
1480
2280
2280
4080
8300
ENDCHAR
STARTCHAR uni4E3B
ENCODING 20027
SWIDTH 960 0
DWIDTH 10 0
BBX 9 9 0 -1
BITMAP
1000
0800
FF80
0800
0800
7F00
0800
0800
FF80
ENDCHAR
STARTCHAR uni4E3D
ENCODING 20029
SWIDTH 960 0
DWIDTH 10 0
BBX 9 9 0 -1
BITMAP
FF80
0000
F780
9480
D680
B580
9480
9480
B580
ENDCHAR
STARTCHAR uni4E3E
ENCODING 20030
SWIDTH 960 0
DWIDTH 10 0
BBX 9 9 0 -1
BITMAP
5100
2A00
FF80
4100
8880
3E00
0800
7F00
0800
ENDCHAR
STARTCHAR uni4E3F
ENCODING 20031
SWIDTH 960 0
DWIDTH 10 0
BBX 4 9 1 -1
BITMAP
10
10
10
10
10
10
10
20
C0
ENDCHAR
STARTCHAR uni4E42
ENCODING 20034
SWIDTH 960 0
DWIDTH 10 0
BBX 9 9 0 -1
BITMAP
4100
4100
2200
2200
1400
0800
1400
2200
C180
ENDCHAR
STARTCHAR uni4E48
ENCODING 20040
SWIDTH 960 0
DWIDTH 10 0
BBX 9 9 0 -1
BITMAP
1000
1000
2400
2400
4800
8800
1100
2100
7E80
ENDCHAR
STARTCHAR uni4E49
ENCODING 20041
SWIDTH 960 0
DWIDTH 10 0
BBX 9 9 0 -1
BITMAP
1000
4900
4900
2200
2200
1400
0800
3600
C180
ENDCHAR
STARTCHAR uni4E4B-zh_tr
ENCODING 20043
SWIDTH 960 0
DWIDTH 10 0
BBX 9 9 0 -1
BITMAP
1000
0800
FF00
0200
0400
4800
5000
A000
9F80
ENDCHAR
STARTCHAR uni4E4E
ENCODING 20046
SWIDTH 960 0
DWIDTH 10 0
BBX 9 9 0 -1
BITMAP
0700
7800
0800
4900
2A00
FF80
0800
0800
3800
ENDCHAR
STARTCHAR uni4E50
ENCODING 20048
SWIDTH 960 0
DWIDTH 10 0
BBX 9 9 0 -1
BITMAP
0700
7800
4000
4800
FF80
0800
4900
8880
1800
ENDCHAR
STARTCHAR uni4E52
ENCODING 20050
SWIDTH 960 0
DWIDTH 10 0
BBX 9 9 0 -1
BITMAP
0300
7C00
4000
7F00
4200
4200
FF80
2000
C000
ENDCHAR
STARTCHAR uni4E53
ENCODING 20051
SWIDTH 960 0
DWIDTH 10 0
BBX 9 9 0 -1
BITMAP
0300
7C00
4000
7F00
4200
4200
FF80
0200
0180
ENDCHAR
STARTCHAR uni4E54
ENCODING 20052
SWIDTH 960 0
DWIDTH 10 0
BBX 9 9 0 -1
BITMAP
0300
7C00
0800
FF80
1400
2200
E380
2200
4200
ENDCHAR
STARTCHAR uni4E55
ENCODING 20053
SWIDTH 960 0
DWIDTH 10 0
BBX 9 9 0 -1
BITMAP
7F80
4400
7F80
4400
7F80
4400
7F80
A480
A580
ENDCHAR
STARTCHAR uni4E56
ENCODING 20054
SWIDTH 960 0
DWIDTH 10 0
BBX 9 9 0 -1
BITMAP
7F00
0800
FF80
2A00
EA80
2B00
6A00
AB80
0800
ENDCHAR
STARTCHAR uni4E57
ENCODING 20055
SWIDTH 960 0
DWIDTH 10 0
BBX 9 9 0 -1
BITMAP
7F00
0800
FF80
4900
FF80
4900
FF80
2A00
C980
ENDCHAR
STARTCHAR uni4E58
ENCODING 20056
SWIDTH 960 0
DWIDTH 10 0
BBX 9 9 0 -1
BITMAP
7F00
0800
FF80
2A00
EB80
2A00
DD80
2A00
C980
ENDCHAR
STARTCHAR uni4E59
ENCODING 20057
SWIDTH 960 0
DWIDTH 10 0
BBX 9 9 0 -1
BITMAP
FE00
0400
0800
1000
2000
4000
8080
8080
7F80
ENDCHAR
STARTCHAR uni4E5A
ENCODING 20058
SWIDTH 960 0
DWIDTH 10 0
BBX 7 9 1 -1
BITMAP
80
80
80
80
80
80
82
82
7E
ENDCHAR
STARTCHAR uni4E5B
ENCODING 20059
SWIDTH 960 0
DWIDTH 10 0
BBX 9 4 0 4
BITMAP
FF80
0080
0100
0200
ENDCHAR
STARTCHAR uni4E5D
ENCODING 20061
SWIDTH 960 0
DWIDTH 10 0
BBX 9 9 0 -1
BITMAP
1000
1000
FE00
1200
1200
1200
1200
2280
C380
ENDCHAR
STARTCHAR uni4E5F
ENCODING 20063
SWIDTH 960 0
DWIDTH 10 0
BBX 9 9 0 -1
BITMAP
0800
4800
4F00
7900
C900
4B00
4800
4080
3F80
ENDCHAR
STARTCHAR uni4E60
ENCODING 20064
SWIDTH 960 0
DWIDTH 10 0
BBX 8 9 1 -1
BITMAP
FF
01
61
11
01
0D
31
C1
06
ENDCHAR
STARTCHAR uni4E66
ENCODING 20070
SWIDTH 960 0
DWIDTH 10 0
BBX 9 9 0 -1
BITMAP
1100
1080
7E00
1200
1200
FF80
1080
1080
1300
ENDCHAR
STARTCHAR uni4E70
ENCODING 20080
SWIDTH 960 0
DWIDTH 10 0
BBX 9 9 0 -1
BITMAP
FF80
2080
1500
4400
2400
FF80
0400
1A00
E180
ENDCHAR
STARTCHAR uni4E85
ENCODING 20101
SWIDTH 960 0
DWIDTH 10 0
BBX 3 9 2 -1
BITMAP
20
20
20
20
20
20
20
20
E0
ENDCHAR
STARTCHAR uni4E86
ENCODING 20102
SWIDTH 960 0
DWIDTH 10 0
BBX 8 9 1 -1
BITMAP
FF
01
02
0C
08
08
08
08
38
ENDCHAR
STARTCHAR uni4E88
ENCODING 20104
SWIDTH 960 0
DWIDTH 10 0
BBX 9 9 0 -1
BITMAP
7F00
0200
1400
FF80
0880
0900
0800
0800
3800
ENDCHAR
STARTCHAR uni4E89
ENCODING 20105
SWIDTH 960 0
DWIDTH 10 0
BBX 9 9 0 -1
BITMAP
3E00
4200
7F00
0900
FF80
0900
7F00
0800
1800
ENDCHAR
STARTCHAR uni4E8A
ENCODING 20106
SWIDTH 960 0
DWIDTH 10 0
BBX 9 9 0 -1
BITMAP
0800
FF80
2A00
7F00
0900
FF80
0900
7F00
0800
ENDCHAR
STARTCHAR uni4E8B
ENCODING 20107
SWIDTH 960 0
DWIDTH 10 0
BBX 9 9 0 -1
BITMAP
0800
FF80
4900
7F00
0900
FF80
0900
7F00
0800
ENDCHAR
STARTCHAR uni4E8C
ENCODING 20108
SWIDTH 960 0
DWIDTH 10 0
BBX 9 7 0 0
BITMAP
7F00
0000
0000
0000
0000
0000
FF80
ENDCHAR
STARTCHAR uni4E8D
ENCODING 20109
SWIDTH 960 0
DWIDTH 10 0
BBX 9 9 0 -1
BITMAP
7F00
0000
0000
FF80
0800
0800
0800
0800
3800
ENDCHAR
STARTCHAR uni4E8E
ENCODING 20110
SWIDTH 960 0
DWIDTH 10 0
BBX 9 9 0 -1
BITMAP
7F00
0800
0800
0800
FF80
0800
0800
0800
3800
ENDCHAR
STARTCHAR uni4E96
ENCODING 20118
SWIDTH 960 0
DWIDTH 10 0
BBX 9 9 0 -1
BITMAP
7F00
0000
FF80
0000
0000
7F00
0000
0000
FF80
ENDCHAR
STARTCHAR uni4E97
ENCODING 20119
SWIDTH 960 0
DWIDTH 10 0
BBX 9 9 0 -1
BITMAP
0800
8880
8880
FF80
0000
7F00
0000
0000
FF80
ENDCHAR
STARTCHAR uni4E98
ENCODING 20120
SWIDTH 960 0
DWIDTH 10 0
BBX 9 9 0 -1
BITMAP
FF80
0000
7F00
4100
7F00
4100
7F00
0000
FF80
ENDCHAR
STARTCHAR uni4E9A
ENCODING 20122
SWIDTH 960 0
DWIDTH 10 0
BBX 9 9 0 -1
BITMAP
FF80
1400
1400
9480
5480
5500
1400
1400
FF80
ENDCHAR
STARTCHAR uni4E9C
ENCODING 20124
SWIDTH 960 0
DWIDTH 10 0
BBX 9 9 0 -1
BITMAP
FF80
1400
1400
FF80
9480
FF80
1400
1400
FF80
ENDCHAR
STARTCHAR uni4E9E
ENCODING 20126
SWIDTH 960 0
DWIDTH 10 0
BBX 9 9 0 -1
BITMAP
FF80
1400
1400
F780
8080
F780
1400
1400
FF80
ENDCHAR
STARTCHAR uni4EA1-zh_tr
ENCODING 20129
SWIDTH 960 0
DWIDTH 10 0
BBX 9 9 0 -1
BITMAP
0800
0800
FF80
4000
4000
4000
4000
4000
7F00
ENDCHAR
STARTCHAR uni4EA2
ENCODING 20130
SWIDTH 960 0
DWIDTH 10 0
BBX 9 9 0 -1
BITMAP
0800
FF80
0000
3E00
2200
2200
2280
2280
C380
ENDCHAR
STARTCHAR uni4EA4
ENCODING 20132
SWIDTH 960 0
DWIDTH 10 0
BBX 9 9 0 -1
BITMAP
0800
FF80
2200
4100
A280
1400
0800
3600
C180
ENDCHAR
STARTCHAR uni4EA7
ENCODING 20135
SWIDTH 960 0
DWIDTH 10 0
BBX 9 9 0 -1
BITMAP
0800
7F80
2100
1200
7F80
4000
4000
4000
8000
ENDCHAR
STARTCHAR uni4EA8
ENCODING 20136
SWIDTH 960 0
DWIDTH 10 0
BBX 9 9 0 -1
BITMAP
0800
FF80
2200
3E00
0000
7F00
0400
0800
3800
ENDCHAR
STARTCHAR uni4EA9
ENCODING 20137
SWIDTH 960 0
DWIDTH 10 0
BBX 9 9 0 -1
BITMAP
0800
FF80
0000
7F00
4900
7F00
4900
4900
7F00
ENDCHAR
STARTCHAR uni4EAB
ENCODING 20139
SWIDTH 960 0
DWIDTH 10 0
BBX 9 9 0 -1
BITMAP
0800
FF80
2200
2200
7F00
0400
FF80
0800
3800
ENDCHAR
STARTCHAR uni4EAC
ENCODING 20140
SWIDTH 960 0
DWIDTH 10 0
BBX 9 9 0 -1
BITMAP
0800
FF80
0000
7F00
4100
7F00
0800
4900
9880
ENDCHAR
STARTCHAR uni4EAD
ENCODING 20141
SWIDTH 960 0
DWIDTH 10 0
BBX 9 9 0 -1
BITMAP
0800
FF80
2200
2200
FF80
8080
7F00
0800
1800
ENDCHAR
STARTCHAR uni4EAE
ENCODING 20142
SWIDTH 960 0
DWIDTH 10 0
BBX 9 9 0 -1
BITMAP
0800
FF80
2200
3E00
0000
FF80
A280
2200
C380
ENDCHAR
STARTCHAR uni4EB0
ENCODING 20144
SWIDTH 960 0
DWIDTH 10 0
BBX 9 9 0 -1
BITMAP
0800
FF80
4100
7F00
4100
7F00
0800
4900
9880
ENDCHAR
STARTCHAR uni4EB2
ENCODING 20146
SWIDTH 960 0
DWIDTH 10 0
BBX 9 9 0 -1
BITMAP
0800
7F00
2200
FF80
0800
FF80
2A00
4900
8880
ENDCHAR
STARTCHAR uni4EB6
ENCODING 20150
SWIDTH 960 0
DWIDTH 10 0
BBX 9 9 0 -1
BITMAP
0800
FF80
5D00
4100
7F00
2200
3E00
2200
FF80
ENDCHAR
STARTCHAR uni4EBA
ENCODING 20154
SWIDTH 960 0
DWIDTH 10 0
BBX 9 9 0 -1
BITMAP
0800
0800
0800
0800
1400
1400
2200
4100
8080
ENDCHAR
STARTCHAR uni4EBB
ENCODING 20155
SWIDTH 960 0
DWIDTH 10 0
BBX 4 9 0 -1
BITMAP
10
10
20
60
A0
20
20
20
20
ENDCHAR
STARTCHAR uni4EBC
ENCODING 20156
SWIDTH 960 0
DWIDTH 10 0
BBX 9 9 0 -1
BITMAP
0800
0800
1400
1400
2200
4100
8080
0000
FF80
ENDCHAR
STARTCHAR uni4EBE
ENCODING 20158
SWIDTH 960 0
DWIDTH 10 0
BBX 9 9 0 -1
BITMAP
8800
8800
8800
9400
9400
A200
C180
8000
FF80
ENDCHAR
STARTCHAR uni4EC0
ENCODING 20160
SWIDTH 960 0
DWIDTH 10 0
BBX 9 9 0 -1
BITMAP
2200
2200
4200
DF80
4200
4200
4200
4200
4200
ENDCHAR
STARTCHAR uni4EC1
ENCODING 20161
SWIDTH 960 0
DWIDTH 10 0
BBX 9 9 0 -1
BITMAP
2000
2F00
4000
C000
4000
4000
4000
5F80
4000
ENDCHAR
STARTCHAR uni4EC3
ENCODING 20163
SWIDTH 960 0
DWIDTH 10 0
BBX 9 9 0 -1
BITMAP
2F80
2100
4100
C100
4100
4100
4100
4100
4700
ENDCHAR
STARTCHAR uni4ECB
ENCODING 20171
SWIDTH 960 0
DWIDTH 10 0
BBX 9 9 0 -1
BITMAP
0800
1400
2200
C180
2200
2200
2200
2200
4200
ENDCHAR
STARTCHAR uni4ECE
ENCODING 20174
SWIDTH 960 0
DWIDTH 10 0
BBX 9 9 0 -1
BITMAP
2200
2200
2200
2200
2200
5500
5500
4500
8880
ENDCHAR
STARTCHAR uni4ED3
ENCODING 20179
SWIDTH 960 0
DWIDTH 10 0
BBX 9 9 0 -1
BITMAP
0800
1400
2200
C180
3E00
2200
2600
2080
3F80
ENDCHAR
STARTCHAR uni4EDD
ENCODING 20189
SWIDTH 960 0
DWIDTH 10 0
BBX 9 9 0 -1
BITMAP
0800
1400
2200
C180
3E00
0800
0800
0800
7F00
ENDCHAR
STARTCHAR uni4EEC
ENCODING 20204
SWIDTH 960 0
DWIDTH 10 0
BBX 9 9 0 -1
BITMAP
5380
4880
C080
5080
5080
5080
5080
5080
5180
ENDCHAR
STARTCHAR uni4EF2
ENCODING 20210
SWIDTH 960 0
DWIDTH 10 0
BBX 9 9 0 -1
BITMAP
2200
2200
5F80
D280
5280
5F80
4200
4200
4200
ENDCHAR
STARTCHAR uni4EF6
ENCODING 20214
SWIDTH 960 0
DWIDTH 10 0
BBX 9 9 0 -1
BITMAP
2A00
2A00
4F80
D200
4200
5F80
4200
4200
4200
ENDCHAR
STARTCHAR uni4EF9
ENCODING 20217
SWIDTH 960 0
DWIDTH 10 0
BBX 9 9 0 -1
BITMAP
2200
2200
5F80
C200
4F80
4200
5F80
4200
4200
ENDCHAR
STARTCHAR uni4EFB
ENCODING 20219
SWIDTH 960 0
DWIDTH 10 0
BBX 9 9 0 -1
BITMAP
2180
2E00
4200
C200
5F80
4200
4200
4200
4F80
ENDCHAR
STARTCHAR uni4F01
ENCODING 20225
SWIDTH 960 0
DWIDTH 10 0
BBX 9 9 0 -1
BITMAP
0800
1400
2200
C980
0800
4F00
4800
4800
FF80
ENDCHAR
STARTCHAR uni4F11
ENCODING 20241
SWIDTH 960 0
DWIDTH 10 0
BBX 9 9 0 -1
BITMAP
2400
2400
5F80
C400
4E00
5500
6480
4400
4400
ENDCHAR
STARTCHAR uni4F17
ENCODING 20247
SWIDTH 960 0
DWIDTH 10 0
BBX 9 9 0 -1
BITMAP
0800
1400
2200
C180
0000
2200
2200
5500
8880
ENDCHAR
STARTCHAR uni4F1A
ENCODING 20250
SWIDTH 960 0
DWIDTH 10 0
BBX 9 9 0 -1
BITMAP
0800
1400
2200
DD80
0000
7F00
1000
2200
7D00
ENDCHAR
STARTCHAR uni4F1E
ENCODING 20254
SWIDTH 960 0
DWIDTH 10 0
BBX 9 9 0 -1
BITMAP
0800
1400
2200
C980
4900
2A00
FF80
0800
0800
ENDCHAR
STARTCHAR uni4F1F
ENCODING 20255
SWIDTH 960 0
DWIDTH 10 0
BBX 9 9 0 -1
BITMAP
2400
3F80
4400
DF00
4400
5F80
4480
4580
4400
ENDCHAR
STARTCHAR uni4F2F
ENCODING 20271
SWIDTH 960 0
DWIDTH 10 0
BBX 9 9 0 -1
BITMAP
2200
2400
5F80
D080
5080
5F80
5080
5080
5F80
ENDCHAR
STARTCHAR uni4F30
ENCODING 20272
SWIDTH 960 0
DWIDTH 10 0
BBX 9 9 0 -1
BITMAP
2200
2200
5F80
C200
4200
4F80
4880
4880
4F80
ENDCHAR
STARTCHAR uni4F38
ENCODING 20280
SWIDTH 960 0
DWIDTH 10 0
BBX 9 9 0 -1
BITMAP
2200
3F80
5280
DF80
5280
5280
5F80
4200
4200
ENDCHAR
STARTCHAR uni4F39
ENCODING 20281
SWIDTH 960 0
DWIDTH 10 0
BBX 9 9 0 -1
BITMAP
2F00
2900
4900
CF00
4900
4F00
4900
4900
5F80
ENDCHAR
STARTCHAR uni4F43
ENCODING 20291
SWIDTH 960 0
DWIDTH 10 0
BBX 9 9 0 -1
BITMAP
5F80
5280
D280
5280
5F80
5280
5280
5280
5F80
ENDCHAR
STARTCHAR uni4F44
ENCODING 20292
SWIDTH 960 0
DWIDTH 10 0
BBX 9 9 0 -1
BITMAP
2900
2900
5F80
C900
4900
4F00
4900
4900
4F00
ENDCHAR
STARTCHAR uni4F46
ENCODING 20294
SWIDTH 960 0
DWIDTH 10 0
BBX 9 9 0 -1
BITMAP
2F80
2880
4880
CF80
4880
4880
4F80
4000
5F80
ENDCHAR
STARTCHAR uni4F47
ENCODING 20295
SWIDTH 960 0
DWIDTH 10 0
BBX 9 9 0 -1
BITMAP
2200
3F80
5080
C000
5F80
4200
4200
4200
4E00
ENDCHAR
STARTCHAR uni4F4D-zh_tr
ENCODING 20301
SWIDTH 960 0
DWIDTH 10 0
BBX 9 9 0 -1
BITMAP
2200
2200
5F80
C000
4900
4900
4900
4200
5F80
ENDCHAR
STARTCHAR uni4F4F
ENCODING 20303
SWIDTH 960 0
DWIDTH 10 0
BBX 9 9 0 -1
BITMAP
2400
2200
5F80
C200
4200
4F80
4200
4200
5F80
ENDCHAR
STARTCHAR uni4F53
ENCODING 20307
SWIDTH 960 0
DWIDTH 10 0
BBX 9 9 0 -1
BITMAP
2400
2400
5F80
C400
4E00
5500
6480
5F00
4400
ENDCHAR
STARTCHAR uni4F55
ENCODING 20309
SWIDTH 960 0
DWIDTH 10 0
BBX 9 9 0 -1
BITMAP
2F80
2100
5D00
D500
5500
5500
5D00
4100
4300
ENDCHAR
STARTCHAR uni4F58
ENCODING 20312
SWIDTH 960 0
DWIDTH 10 0
BBX 9 9 0 -1
BITMAP
0800
1400
2200
DD80
0000
7F00
0800
4900
9880
ENDCHAR
STARTCHAR uni4F59
ENCODING 20313
SWIDTH 960 0
DWIDTH 10 0
BBX 9 9 0 -1
BITMAP
0800
1400
2200
DD80
0800
7F00
0800
4900
9880
ENDCHAR
STARTCHAR uni4F60
ENCODING 20320
SWIDTH 960 0
DWIDTH 10 0
BBX 9 9 0 -1
BITMAP
2800
2F80
4A80
D200
4200
4B00
4A80
5280
4600
ENDCHAR
STARTCHAR uni4F6A
ENCODING 20330
SWIDTH 960 0
DWIDTH 10 0
BBX 9 9 0 -1
BITMAP
5F80
5080
D780
5580
5580
5580
5780
5080
5F80
ENDCHAR
STARTCHAR uni4F7C
ENCODING 20348
SWIDTH 960 0
DWIDTH 10 0
BBX 9 9 0 -1
BITMAP
2200
3F80
4500
C880
5500
4500
4200
4500
5880
ENDCHAR
STARTCHAR uni4F96
ENCODING 20374
SWIDTH 960 0
DWIDTH 10 0
BBX 9 9 0 -1
BITMAP
0800
1400
2200
DD80
0000
7F00
5500
7F00
5500
ENDCHAR
STARTCHAR uni4F9B
ENCODING 20379
SWIDTH 960 0
DWIDTH 10 0
BBX 9 9 0 -1
BITMAP
2900
2900
5F80
C900
4900
5F80
4000
4900
5080
ENDCHAR
STARTCHAR uni4FA3
ENCODING 20387
SWIDTH 960 0
DWIDTH 10 0
BBX 9 9 0 -1
BITMAP
2F00
2900
4900
CF00
4000
5F80
5080
5080
5F80
ENDCHAR
STARTCHAR uni4FAF
ENCODING 20399
SWIDTH 960 0
DWIDTH 10 0
BBX 9 9 0 -1
BITMAP
2F00
2100
5F80
C800
4F80
5200
5F80
4500
5880
ENDCHAR
STARTCHAR uni4FB1
ENCODING 20401
SWIDTH 960 0
DWIDTH 10 0
BBX 9 9 0 -1
BITMAP
2F80
2880
4F80
C000
5F80
4200
4F80
4200
5F80
ENDCHAR
STARTCHAR uni4FB6
ENCODING 20406
SWIDTH 960 0
DWIDTH 10 0
BBX 9 9 0 -1
BITMAP
2F00
2900
4900
CF00
4400
5F80
5080
5080
5F80
ENDCHAR
STARTCHAR uni4FBF
ENCODING 20415
SWIDTH 960 0
DWIDTH 10 0
BBX 9 9 0 -1
BITMAP
2F80
2200
5F80
D280
5F80
5280
5F80
4400
5B80
ENDCHAR
STARTCHAR uni4FC9
ENCODING 20425
SWIDTH 960 0
DWIDTH 10 0
BBX 9 9 0 -1
BITMAP
2F80
2200
4F00
C500
5F80
4000
4F80
4880
4F80
ENDCHAR
STARTCHAR uni4FCC
ENCODING 20428
SWIDTH 960 0
DWIDTH 10 0
BBX 9 9 0 -1
BITMAP
2280
2F80
4200
CF80
4A80
4F80
4A80
4F80
4A80
ENDCHAR
STARTCHAR uni4FDA
ENCODING 20442
SWIDTH 960 0
DWIDTH 10 0
BBX 9 9 0 -1
BITMAP
2F80
2A80
4F80
CA80
4F80
4200
4F80
4200
5F80
ENDCHAR
STARTCHAR uni4FDD
ENCODING 20445
SWIDTH 960 0
DWIDTH 10 0
BBX 9 9 0 -1
BITMAP
2F80
2880
4880
CF80
4200
5F80
4700
4A80
5200
ENDCHAR
STARTCHAR uni4FE1-zh_tr
ENCODING 20449
SWIDTH 960 0
DWIDTH 10 0
BBX 9 9 0 -1
BITMAP
2F80
2000
5F80
C000
4F80
4000
4F80
4880
4F80
ENDCHAR
STARTCHAR uni4FE5
ENCODING 20453
SWIDTH 960 0
DWIDTH 10 0
BBX 9 9 0 -1
BITMAP
2200
3F80
5280
DF80
5280
5F80
4200
5F80
4200
ENDCHAR
STARTCHAR uni4FF1
ENCODING 20465
SWIDTH 960 0
DWIDTH 10 0
BBX 9 9 0 -1
BITMAP
2F00
2900
4F00
C900
4F00
4900
5F80
4900
5080
ENDCHAR
STARTCHAR uni500B
ENCODING 20491
SWIDTH 960 0
DWIDTH 10 0
BBX 9 9 0 -1
BITMAP
5F80
5280
DF80
5280
5780
5580
5780
5080
5F80
ENDCHAR
STARTCHAR uni500D
ENCODING 20493
SWIDTH 960 0
DWIDTH 10 0
BBX 9 9 0 -1
BITMAP
2200
2F80
4500
DF80
4000
4F80
4880
4880
4F80
ENDCHAR
STARTCHAR uni5011
ENCODING 20497
SWIDTH 960 0
DWIDTH 10 0
BBX 9 9 0 -1
BITMAP
7B80
6A80
BB80
AA80
BB80
A080
A080
A080
A180
ENDCHAR
STARTCHAR uni5019
ENCODING 20505
SWIDTH 960 0
DWIDTH 10 0
BBX 9 9 0 -1
BITMAP
2700
2100
4F80
D400
5780
5A00
5780
4200
4D80
ENDCHAR
STARTCHAR uni501A
ENCODING 20506
SWIDTH 960 0
DWIDTH 10 0
BBX 9 9 0 -1
BITMAP
2400
3F80
4A00
D100
7F80
4100
5D00
5500
5F00
ENDCHAR
STARTCHAR uni5021
ENCODING 20513
SWIDTH 960 0
DWIDTH 10 0
BBX 9 9 0 -1
BITMAP
2F00
2900
4F00
C900
5F80
5080
5F80
5080
5F80
ENDCHAR
STARTCHAR uni5029-zh_tr
ENCODING 20521
SWIDTH 960 0
DWIDTH 10 0
BBX 9 9 0 -1
BITMAP
2200
2F80
4200
DF80
4A80
4A80
4F80
4880
4980
ENDCHAR
STARTCHAR uni5047
ENCODING 20551
SWIDTH 960 0
DWIDTH 10 0
BBX 9 9 0 -1
BITMAP
5D80
5480
DD80
5000
5B80
5280
5900
5280
5480
ENDCHAR
STARTCHAR uni5049
ENCODING 20553
SWIDTH 960 0
DWIDTH 10 0
BBX 9 9 0 -1
BITMAP
4800
5F00
C900
5F80
5100
5F00
4A00
5F80
4200
ENDCHAR
STARTCHAR uni5058
ENCODING 20568
SWIDTH 960 0
DWIDTH 10 0
BBX 9 9 0 -1
BITMAP
2F00
2900
4900
CF00
4000
5F80
5680
5680
5F80
ENDCHAR
STARTCHAR uni505C
ENCODING 20572
SWIDTH 960 0
DWIDTH 10 0
BBX 9 9 0 -1
BITMAP
2200
3F80
4900
C900
5F80
5080
4F00
4200
4600
ENDCHAR
STARTCHAR uni5074
ENCODING 20596
SWIDTH 960 0
DWIDTH 10 0
BBX 9 9 0 -1
BITMAP
7880
AA80
BA80
AA80
BA80
AA80
BA80
9080
A980
ENDCHAR
STARTCHAR uni5085
ENCODING 20613
SWIDTH 960 0
DWIDTH 10 0
BBX 9 9 0 -1
BITMAP
2280
3F80
4A80
CF80
4A80
4100
5F80
4900
4500
ENDCHAR
STARTCHAR uni5098
ENCODING 20632
SWIDTH 960 0
DWIDTH 10 0
BBX 9 9 0 -1
BITMAP
0800
3600
C180
4900
AA80
4900
AA80
FF80
0800
ENDCHAR
STARTCHAR uni50B4
ENCODING 20660
SWIDTH 960 0
DWIDTH 10 0
BBX 9 9 0 -1
BITMAP
5F80
5500
D500
5700
5000
5F80
5680
5680
5F80
ENDCHAR
STARTCHAR uni50CF
ENCODING 20687
SWIDTH 960 0
DWIDTH 10 0
BBX 9 9 0 -1
BITMAP
2F00
3100
5F80
D480
5F80
4A80
5700
4A80
5680
ENDCHAR
STARTCHAR uni50F5
ENCODING 20725
SWIDTH 960 0
DWIDTH 10 0
BBX 9 9 0 -1
BITMAP
3F80
5500
5F00
D500
7F80
5500
5F00
5500
7F80
ENDCHAR
STARTCHAR uni513F
ENCODING 20799
SWIDTH 960 0
DWIDTH 10 0
BBX 9 9 0 -1
BITMAP
2400
2400
2400
2400
2400
2400
4480
4480
8780
ENDCHAR
STARTCHAR uni5143
ENCODING 20803
SWIDTH 960 0
DWIDTH 10 0
BBX 9 9 0 -1
BITMAP
7F00
0000
0000
FF80
2400
2400
2480
4480
8780
ENDCHAR
STARTCHAR uni5144
ENCODING 20804
SWIDTH 960 0
DWIDTH 10 0
BBX 9 9 0 -1
BITMAP
7F00
4100
4100
4100
7F00
1400
1480
2480
C780
ENDCHAR
STARTCHAR uni5147
ENCODING 20807
SWIDTH 960 0
DWIDTH 10 0
BBX 9 9 0 -1
BITMAP
1400
4900
5500
4100
7F00
1400
1480
2480
C780
ENDCHAR
STARTCHAR uni5148
ENCODING 20808
SWIDTH 960 0
DWIDTH 10 0
BBX 9 9 0 -1
BITMAP
4800
7F00
4800
8800
FF80
1400
1400
2480
C780
ENDCHAR
STARTCHAR uni5149
ENCODING 20809
SWIDTH 960 0
DWIDTH 10 0
BBX 9 9 0 -1
BITMAP
0800
4900
2A00
0800
FF80
1400
1400
2480
C780
ENDCHAR
STARTCHAR uni514B
ENCODING 20811
SWIDTH 960 0
DWIDTH 10 0
BBX 9 9 0 -1
BITMAP
0800
FF80
0800
7F00
4100
7F00
1400
2480
C780
ENDCHAR
STARTCHAR uni5151
ENCODING 20817
SWIDTH 960 0
DWIDTH 10 0
BBX 9 9 0 -1
BITMAP
2200
1400
7F00
4100
4100
7F00
1400
2480
C780
ENDCHAR
STARTCHAR uni515A
ENCODING 20826
SWIDTH 960 0
DWIDTH 10 0
BBX 9 9 0 -1
BITMAP
4900
2A00
FF80
8080
3E00
2200
3E00
1480
E780
ENDCHAR
STARTCHAR uni5165
ENCODING 20837
SWIDTH 960 0
DWIDTH 10 0
BBX 9 9 0 -1
BITMAP
3800
0800
0800
0800
1400
1400
2200
4100
8080
ENDCHAR
STARTCHAR uni5167
ENCODING 20839
SWIDTH 960 0
DWIDTH 10 0
BBX 9 9 0 -1
BITMAP
3800
0800
FF80
8880
9480
A280
8080
8080
8180
ENDCHAR
STARTCHAR uni5168
ENCODING 20840
SWIDTH 960 0
DWIDTH 10 0
BBX 9 9 0 -1
BITMAP
7C00
2200
4100
BE80
0800
7F00
0800
0800
FF80
ENDCHAR
STARTCHAR uni5169
ENCODING 20841
SWIDTH 960 0
DWIDTH 10 0
BBX 9 9 0 -1
BITMAP
FF80
0800
FF80
8880
EE80
AA80
DD80
8880
8980
ENDCHAR
STARTCHAR uni5170
ENCODING 20848
SWIDTH 960 0
DWIDTH 10 0
BBX 9 9 0 -1
BITMAP
4100
2200
7F00
0000
0000
7F00
0000
0000
FF80
ENDCHAR
STARTCHAR uni5171
ENCODING 20849
SWIDTH 960 0
DWIDTH 10 0
BBX 9 9 0 -1
BITMAP
2200
2200
FF80
2200
2200
FF80
0000
2200
C180
ENDCHAR
STARTCHAR uni5173
ENCODING 20851
SWIDTH 960 0
DWIDTH 10 0
BBX 9 9 0 -1
BITMAP
4100
2200
7F00
0800
0800
FF80
1400
2200
C180
ENDCHAR
STARTCHAR uni5175
ENCODING 20853
SWIDTH 960 0
DWIDTH 10 0
BBX 9 9 0 -1
BITMAP
0300
7C00
4000
7F00
4200
4200
FF80
2200
C180
ENDCHAR
STARTCHAR uni5176
ENCODING 20854
SWIDTH 960 0
DWIDTH 10 0
BBX 9 9 0 -1
BITMAP
2200
FF80
2200
3E00
2200
FF80
0000
2200
C180
ENDCHAR
STARTCHAR uni5177
ENCODING 20855
SWIDTH 960 0
DWIDTH 10 0
BBX 9 9 0 -1
BITMAP
7F00
4100
7F00
4100
7F00
4100
FF80
2200
C180
ENDCHAR
STARTCHAR uni5178
ENCODING 20856
SWIDTH 960 0
DWIDTH 10 0
BBX 9 9 0 -1
BITMAP
1400
7F00
5500
7F00
5500
FF80
0000
2200
C180
ENDCHAR
STARTCHAR uni517D
ENCODING 20861
SWIDTH 960 0
DWIDTH 10 0
BBX 9 9 0 -1
BITMAP
4100
2200
7F00
4900
7F00
4900
FF80
4100
7F00
ENDCHAR
STARTCHAR uni5180
ENCODING 20864
SWIDTH 960 0
DWIDTH 10 0
BBX 9 9 0 -1
BITMAP
1480
F700
1480
FF80
4900
7F00
4900
FF80
2200
ENDCHAR
STARTCHAR uni5182
ENCODING 20866
SWIDTH 960 0
DWIDTH 10 0
BBX 9 9 0 -1
BITMAP
FF80
8080
8080
8080
8080
8080
8080
8080
8180
ENDCHAR
STARTCHAR uni5185
ENCODING 20869
SWIDTH 960 0
DWIDTH 10 0
BBX 9 9 0 -1
BITMAP
0800
0800
FF80
8880
9480
A280
8080
8080
8180
ENDCHAR
STARTCHAR uni5186
ENCODING 20870
SWIDTH 960 0
DWIDTH 10 0
BBX 9 9 0 -1
BITMAP
FF80
8880
8880
8880
FF80
8080
8080
8080
8180
ENDCHAR
STARTCHAR uni5188
ENCODING 20872
SWIDTH 960 0
DWIDTH 10 0
BBX 9 9 0 -1
BITMAP
FF80
8080
A280
9480
8880
9480
A280
8080
8180
ENDCHAR
STARTCHAR uni5189
ENCODING 20873
SWIDTH 960 0
DWIDTH 10 0
BBX 9 9 0 -1
BITMAP
0800
7F00
4900
7F00
4900
4900
FF80
4100
4300
ENDCHAR
STARTCHAR uni518A
ENCODING 20874
SWIDTH 960 0
DWIDTH 10 0
BBX 9 9 0 -1
BITMAP
7F00
5500
5500
5500
FF80
5500
5500
5500
4300
ENDCHAR
STARTCHAR uni518C
ENCODING 20876
SWIDTH 960 0
DWIDTH 10 0
BBX 9 9 0 -1
BITMAP
7700
5500
5500
5500
FF80
5500
5500
5500
BB00
ENDCHAR
STARTCHAR uni518D-ko
ENCODING 20877
SWIDTH 960 0
DWIDTH 10 0
BBX 9 9 0 -1
BITMAP
FF80
0800
7F00
4900
FF80
4900
FF80
4100
4300
ENDCHAR
STARTCHAR uni5192
ENCODING 20882
SWIDTH 960 0
DWIDTH 10 0
BBX 9 9 0 -1
BITMAP
FF80
8080
FF80
8080
FF80
4100
7F00
4100
7F00
ENDCHAR
STARTCHAR uni5193-zh_tr
ENCODING 20883
SWIDTH 960 0
DWIDTH 10 0
BBX 9 9 0 -1
BITMAP
2200
7F00
2200
FF80
0800
FF80
4900
FF80
4100
ENDCHAR
STARTCHAR uni5199-zh_tr
ENCODING 20889
SWIDTH 960 0
DWIDTH 10 0
BBX 9 9 0 -1
BITMAP
FF80
A080
3E00
2000
3E00
0200
FF80
0200
1C00
ENDCHAR
STARTCHAR uni519A
ENCODING 20890
SWIDTH 960 0
DWIDTH 10 0
BBX 9 9 0 -1
BITMAP
FF80
8080
0800
0800
8880
8880
8880
8880
FF80
ENDCHAR
STARTCHAR uni519B
ENCODING 20891
SWIDTH 960 0
DWIDTH 10 0
BBX 9 9 0 -1
BITMAP
FF80
9080
7F00
2000
4800
7F00
0800
FF80
0800
ENDCHAR
STARTCHAR uni519D
ENCODING 20893
SWIDTH 960 0
DWIDTH 10 0
BBX 9 9 0 -1
BITMAP
FF80
8080
3E00
2200
3E00
2200
3E00
2200
FF80
ENDCHAR
STARTCHAR uni51A0
ENCODING 20896
SWIDTH 960 0
DWIDTH 10 0
BBX 9 9 0 -1
BITMAP
FF80
8080
7100
0780
F900
5500
5300
5080
9F80
ENDCHAR
STARTCHAR uni51A5
ENCODING 20901
SWIDTH 960 0
DWIDTH 10 0
BBX 9 9 0 -1
BITMAP
FF80
8080
7F00
4100
7F00
4100
FF80
2200
C180
ENDCHAR
STARTCHAR uni51A7
ENCODING 20903
SWIDTH 960 0
DWIDTH 10 0
BBX 9 9 0 -1
BITMAP
FF80
8080
2200
FF80
2200
6600
7700
AA80
2200
ENDCHAR
STARTCHAR uni51A8
ENCODING 20904
SWIDTH 960 0
DWIDTH 10 0
BBX 9 9 0 -1
BITMAP
FF80
8080
7F00
4100
FF80
8880
FF80
8880
FF80
ENDCHAR
STARTCHAR uni51CA-zh_tr
ENCODING 20938
SWIDTH 960 0
DWIDTH 10 0
BBX 9 9 0 -1
BITMAP
0200
8F80
4200
1F80
0A80
4A80
4F80
8880
0880
ENDCHAR
STARTCHAR uni51E0
ENCODING 20960
SWIDTH 960 0
DWIDTH 10 0
BBX 9 9 0 -1
BITMAP
3E00
2200
2200
2200
2200
2200
2280
4280
8380
ENDCHAR
STARTCHAR uni51F0
ENCODING 20976
SWIDTH 960 0
DWIDTH 10 0
BBX 9 9 0 -1
BITMAP
7F00
4900
5D00
5500
5D00
4900
5D00
4980
BE80
ENDCHAR
STARTCHAR uni51F5
ENCODING 20981
SWIDTH 960 0
DWIDTH 10 0
BBX 9 9 0 -1
BITMAP
8080
8080
8080
8080
8080
8080
8080
8080
FF80
ENDCHAR
STARTCHAR uni51F6-zh_tr
ENCODING 20982
SWIDTH 960 0
DWIDTH 10 0
BBX 9 9 0 -1
BITMAP
8080
A280
9480
8880
9480
A280
8080
8080
FF80
ENDCHAR
STARTCHAR uni51F8
ENCODING 20984
SWIDTH 960 0
DWIDTH 10 0
BBX 9 9 0 -1
BITMAP
3E00
2200
2200
2200
E380
8080
8080
8080
FF80
ENDCHAR
STARTCHAR uni51F9
ENCODING 20985
SWIDTH 960 0
DWIDTH 10 0
BBX 9 9 0 -1
BITMAP
F780
9480
9480
9480
9C80
8080
8080
8080
FF80
ENDCHAR
STARTCHAR uni51FA
ENCODING 20986
SWIDTH 960 0
DWIDTH 10 0
BBX 9 9 0 -1
BITMAP
0800
4900
4900
7F00
0800
8880
8880
8880
FF80
ENDCHAR
STARTCHAR uni51FB
ENCODING 20987
SWIDTH 960 0
DWIDTH 10 0
BBX 9 9 0 -1
BITMAP
0800
0800
7F00
0800
FF80
0800
4900
4900
7F00
ENDCHAR
STARTCHAR uni5200
ENCODING 20992
SWIDTH 960 0
DWIDTH 10 0
BBX 9 9 0 -1
BITMAP
FF80
1080
1080
1080
1080
2080
2080
4080
8300
ENDCHAR
STARTCHAR uni5217
ENCODING 21015
SWIDTH 960 0
DWIDTH 10 0
BBX 9 9 0 -1
BITMAP
FC80
2280
3A80
4A80
AA80
1280
1280
2080
C180
ENDCHAR
STARTCHAR uni5218-zh_tr
ENCODING 21016
SWIDTH 960 0
DWIDTH 10 0
BBX 9 9 0 -1
BITMAP
2080
2280
FA80
1280
9280
5280
2280
5080
8980
ENDCHAR
STARTCHAR uni5219
ENCODING 21017
SWIDTH 960 0
DWIDTH 10 0
BBX 9 9 0 -1
BITMAP
F880
8A80
AA80
AA80
AA80
AA80
2280
5080
8980
ENDCHAR
STARTCHAR uni521A
ENCODING 21018
SWIDTH 960 0
DWIDTH 10 0
BBX 9 9 0 -1
BITMAP
F880
8A80
8A80
DA80
AA80
AA80
DA80
8880
9980
ENDCHAR
STARTCHAR uni521B
ENCODING 21019
SWIDTH 960 0
DWIDTH 10 0
BBX 9 9 0 -1
BITMAP
3080
4A80
8680
7A80
4A80
4A80
5880
4480
7D80
ENDCHAR
STARTCHAR uni5230
ENCODING 21040
SWIDTH 960 0
DWIDTH 10 0
BBX 9 9 0 -1
BITMAP
F880
2280
4A80
FA80
2280
FA80
2280
3880
C180
ENDCHAR
STARTCHAR uni5236
ENCODING 21046
SWIDTH 960 0
DWIDTH 10 0
BBX 9 9 0 -1
BITMAP
A080
FA80
A280
FA80
2280
FA80
AA80
B880
2180
ENDCHAR
STARTCHAR uni5237
ENCODING 21047
SWIDTH 960 0
DWIDTH 10 0
BBX 9 9 0 -1
BITMAP
F880
8A80
FA80
A280
FA80
AA80
AA80
B880
A180
ENDCHAR
STARTCHAR uni523A
ENCODING 21050
SWIDTH 960 0
DWIDTH 10 0
BBX 9 9 0 -1
BITMAP
2080
FA80
2280
FA80
AA80
AA80
7280
A880
2180
ENDCHAR
ENDFONT
